<?xml version="1.0" encoding="UTF-8" standalone="no"?>
<svg width="25px" height="50px" viewBox="0 0 25 50" version="1.1" xmlns="http://www.w3.org/2000/svg" xmlns:xlink="http://www.w3.org/1999/xlink" xmlns:sketch="http://www.bohemiancoding.com/sketch/ns">
    <!-- Generator: bin/sketchtool 1.4 (305) - http://www.bohemiancoding.com/sketch -->
    <title>Cartaz</title>
    <desc>Created with bin/sketchtool.</desc>
    <defs></defs>
    <g id="Page-1" stroke="none" stroke-width="1" fill="none" fill-rule="evenodd" sketch:type="MSPage">
        <g id="Landing" sketch:type="MSArtboardGroup" transform="translate(-904.000000, -1287.000000)" fill="#6A908B">
            <g id="Faixa:-Adote-um-mapa" sketch:type="MSLayerGroup" transform="translate(-25.500000, 995.000000)">
                <g id="Cartaz" transform="translate(929.000000, 292.118817)" sketch:type="MSShapeGroup">
                    <path d="M20.0561297,5.76536443 L20.0561297,43.5369278 L0.953,49 L0.953,9.0079621 L2.12785423,9.0079621 L2.12785423,47.4374439 L18.8812755,42.6557872 L18.8812755,6.1178207 L20.0561297,5.76536443 Z M22.0663053,0.736988338 L22.3118499,1.2539242 L22.3118499,1.23042711 L22.0663053,0.736988338 Z M21.7361713,0.643 L21.4553811,0.725239796 C21.6069373,0.689994169 21.7608432,0.678245627 21.9123994,0.666497085 C21.8548316,0.654748542 21.794914,0.643 21.7361713,0.643 Z M25.308903,3.74461516 C25.2372369,2.35828717 23.8285867,1.14818732 22.3600189,0.760485423 C22.2178615,0.725239796 22.0780539,0.689994169 21.9370714,0.666497085 L21.9123994,0.666497085 C21.7608432,0.678245627 21.6069373,0.689994169 21.4553811,0.725239796 L20.9372704,0.877970845 L3.38494825,6.01208382 L3.39669679,6.04732945 C2.05736297,6.39978571 1.08223397,7.59813703 1.01174271,9.0079621 L2.12785423,9.0079621 L2.12785423,9.26643003 L2.18659694,9.26643003 C2.12785423,8.12682143 3.0089949,7.16344096 4.1486035,7.10469825 L4.1486035,7.08120117 L4.21909475,7.10469825 C5.32463258,7.10469825 6.22809548,7.97409038 6.28801305,9.06670481 L6.32208382,9.81861152 L18.8812755,6.1178207 L20.0561297,5.76536443 L25.3312252,4.21455685 L25.308903,3.74461516 Z M16.5914846,38.9331505 L1.6073938,43.2150178 L1.6073938,42.6534375 L19.61086,37.5087508 L19.61086,38.0703311 L16.5914846,38.9331505 L16.5914846,38.9784934 L16.5914846,38.9331505 L16.5914846,38.9331505 Z M22.3118499,1.2539242 L22.0663053,0.736988338 L22.3118499,1.23042711 L22.3118499,1.2539242 Z M22.3717674,0.678245627 L22.3600189,0.760485423 C22.2178615,0.725239796 22.0780539,0.689994169 21.9370714,0.666497085 C22.1003761,0.666497085 22.2307849,0.666497085 22.3717674,0.678245627 Z M2.12785423,9.0079621 L2.12785423,9.26643003 L1.01174271,9.3134242 L1.01174271,9.0079621 L2.12785423,9.0079621 Z M16.3941091,12.0813808 L5.03326873,15.3380767 L5.03326873,15.899657 L16.3941091,12.6417862 L16.3941091,12.0813808 Z M16.3941091,29.1132425 L16.3941091,29.6771725 L10.8957913,31.2514772 L10.8957913,30.6875472 L16.3941091,29.1132425 Z M16.3941091,31.4629509 L16.3941091,32.026881 L10.8957913,33.6011856 L10.8957913,33.0372556 L16.3941091,31.4629509 Z M16.3941091,33.8126594 L16.3941091,34.3765894 L10.8957913,35.9508941 L10.8957913,35.3869641 L16.3941091,33.8126594 Z M7.0798648,14.3488494 L7.47696552,13.836613 L6.82022201,13.3678461 L8.08906458,13.0036413 L8.08906458,12.442061 L6.74738105,12.8274132 L7.47696552,11.8887047 L7.0798648,11.6055648 L5.72173331,13.3549227 L5.732307,13.3643216 L5.72173331,13.377245 L7.0798648,14.3488494 Z M15.0289285,13.4383374 L14.6318278,13.949399 L15.2873964,14.4193407 L14.0185539,14.7835455 L14.0185539,15.3439509 L15.3614122,14.9585988 L14.6318278,15.8984821 L15.0289285,16.181622 L16.38706,14.4310892 L16.3753114,14.4240401 L16.38706,14.408767 L15.0289285,13.4383374 Z M16.5750367,17.8358168 L16.5750367,26.5990544 L5.02152019,29.9121434 L5.02152019,21.1489057 L16.5750367,17.8358168 Z M17.1624638,17.0557136 L4.43409308,20.7059856 L4.43409308,30.6922466 L17.1624638,27.0419745 L17.1624638,17.0557136 Z M8.93848418,31.6145071 L8.93848418,36.1647176 L5.02152019,37.3430964 L5.02152019,32.7928859 L8.93848418,31.6145071 Z M9.5259113,30.8250051 L4.43409308,32.3558402 L4.43409308,38.1325984 L9.5259113,36.6017633 L9.5259113,30.8250051" id="Fill-1"></path>
                </g>
            </g>
        </g>
    </g>
</svg>