<?xml version="1.0" encoding="UTF-8" standalone="no"?>
<svg width="93px" height="91px" viewBox="0 0 93 91" version="1.1" xmlns="http://www.w3.org/2000/svg" xmlns:xlink="http://www.w3.org/1999/xlink" xmlns:sketch="http://www.bohemiancoding.com/sketch/ns">
    <!-- Generator: bin/sketchtool 1.4 (305) - http://www.bohemiancoding.com/sketch -->
    <title>Desenho 03</title>
    <desc>Created with bin/sketchtool.</desc>
    <defs></defs>
    <g id="Page-1" stroke="none" stroke-width="1" fill="none" fill-rule="evenodd" sketch:type="MSPage">
        <g id="Landing" sketch:type="MSArtboardGroup" transform="translate(-932.000000, -687.000000)" fill="#521A1C">
            <g id="FAIXA-Como-funciona" sketch:type="MSLayerGroup" transform="translate(-3.000000, 560.000000)">
                <g id="Desenho-03" transform="translate(935.000000, 127.000000)" sketch:type="MSShapeGroup">
                    <path d="M68.9070434,51.4483347 C65.7998058,51.4483347 63.277469,53.4635537 63.277469,55.9448842 L63.277469,85.87488 C63.277469,88.3562105 65.9902252,90.3651074 69.0999607,90.3651074 C72.2071983,90.3651074 74.9249504,88.3535284 74.9249504,85.87488 L74.9249504,85.8685579 C74.9249504,85.89308 74.7746901,85.8917389 74.8071632,85.9225832 C74.8071632,85.9225832 74.6155909,55.1940863 74.5496839,55.2894926 C74.1523202,53.1217768 71.7348967,51.4483347 68.9070434,51.4483347 Z M89.6368202,60.3745726 C91.2802686,55.6339516 92.1214959,50.7076905 92.1214959,45.6572863 C92.1214959,39.5179474 90.8907831,33.6625284 88.6751157,28.3130695 C89.1643264,26.3336758 88.865343,24.16596 87.6528843,22.3298674 C79.4402541,9.88988 66.2256074,1.94548421 51.5965537,0.376644211 C51.084093,0.318595789 50.5677893,0.273383158 50.0539835,0.232002105 C49.7434711,0.208821053 49.4343037,0.177785263 49.122062,0.161117895 C48.2241508,0.108242105 47.3156715,0.0733747368 46.403157,0.0733747368 L46.3489711,0.0733747368 C46.3203409,0.0733747368 46.2919029,0.0720336842 46.2634649,0.0720336842 C45.9696694,0.0720336842 45.6797169,0.0954063158 45.3859215,0.0992378947 C44.8865269,0.109391579 44.3882851,0.118587368 43.8927335,0.1456 C28.3265702,0.884903158 13.9966921,8.86550737 5.20415702,21.8382758 C3.89696901,23.7672842 3.60202066,26.0794505 4.19479959,28.1555916 C1.93782025,33.5477726 0.686163223,39.4574084 0.686163223,45.6559453 C0.686163223,51.0519579 1.64402479,56.3088842 3.51920455,61.3476021 C1.23647727,64.2197537 0.00691735537,67.8442358 0.00691735537,71.7976589 C0.00691735537,80.9924905 7.63080372,88.43744 16.689657,88.6592884 L16.689657,54.9308568 C14.1014132,54.9887137 12.0114112,55.5138316 10.0053781,56.4119537 C8.95720661,52.9244505 8.35539669,49.32564 8.35539669,45.6534547 C8.35539669,41.4226253 9.02830165,37.3542547 10.3147376,33.5502632 C13.1464339,34.0071789 16.1009132,32.8458274 17.8169938,30.3181347 C24.2216963,20.8679284 34.85175,15.2266947 46.2699979,15.2266947 C57.8590661,15.2266947 68.5782769,20.9943705 74.9574236,30.6574211 C76.4183306,32.8716905 78.8397893,34.0704 81.3115909,34.0704 C81.7633326,34.0704 82.2096942,34.0161832 82.6587459,33.9361032 C83.8635186,37.6289789 84.5197066,41.5657347 84.5197066,45.6547958 C84.5197066,48.9089558 83.9490248,52.1050674 83.1247066,55.2197579 C81.0591074,54.2586063 78.8073161,53.6869347 76.2190723,53.6288863 L76.2190723,87.36 C85.2781178,87.1354695 92.9045021,79.6918611 92.9045021,70.49588 C92.9045021,66.6905474 91.7669814,63.1951895 89.6368202,60.3745726 Z M23.8087686,51.9230674 C20.701531,51.9230674 17.9837789,53.9373284 17.9837789,56.4184674 L17.9837789,56.42364 C17.9837789,56.4002674 18.1351921,56.4016084 18.1029112,56.3707642 C18.1029112,56.3707642 18.2931384,87.0956211 18.3590455,87.0013642 C18.7577541,89.1729116 21.1286777,90.8438632 23.9549938,90.8438632 C27.0647293,90.8438632 29.6324132,88.8297937 29.6324132,86.3484632 L29.6324132,56.4198084 C29.6310682,53.9346463 26.9173512,51.9230674 23.8087686,51.9230674 Z" id="Fill-1"></path>
                </g>
            </g>
        </g>
    </g>
</svg>