<?xml version="1.0" encoding="UTF-8" standalone="no"?>
<svg width="119px" height="92px" viewBox="0 0 119 92" version="1.1" xmlns="http://www.w3.org/2000/svg" xmlns:xlink="http://www.w3.org/1999/xlink" xmlns:sketch="http://www.bohemiancoding.com/sketch/ns">
    <!-- Generator: bin/sketchtool 1.4 (305) - http://www.bohemiancoding.com/sketch -->
    <title>Desenho 02</title>
    <desc>Created with bin/sketchtool.</desc>
    <defs></defs>
    <g id="Page-1" stroke="none" stroke-width="1" fill="none" fill-rule="evenodd" sketch:type="MSPage">
        <g id="Landing" sketch:type="MSArtboardGroup" transform="translate(-593.000000, -682.000000)">
            <g id="FAIXA-Como-funciona" sketch:type="MSLayerGroup" transform="translate(-3.000000, 560.000000)">
                <g id="Desenho-02" transform="translate(595.000000, 122.000000)" sketch:type="MSShapeGroup">
                    <path d="M54.4702997,87.1724607 C52.8436034,86.7928286 51.3647886,84.8828046 51.3719441,83.1958144 C51.3767145,81.463743 52.0564923,80.6309251 53.4971441,80.6309251 C53.7523589,80.6309251 54.0314256,80.6570248 54.3343441,80.7068515 L54.8543145,80.8468408 C56.4857812,81.368835 57.6974552,82.5741669 57.7356182,83.7154359 C57.7690108,84.8187417 56.3331293,86.614876 54.9854997,87.1250067 L54.4702997,87.1724607 M93.3321219,82.6168755 L92.6642701,82.5646761 C90.164596,81.6393228 87.6625367,80.7163423 85.1795589,79.7387897 C84.8957219,79.6272727 84.6023441,79.228659 84.5307886,78.9178352 C84.2421812,77.6389496 84.0370552,76.3458278 83.7627589,74.8486537 C88.1968182,76.5593708 92.4901515,78.2131432 96.9599886,79.9380965 C95.6767589,80.8919222 94.5199441,81.7721941 93.3321219,82.6168755 M99.0589515,77.7006398 C97.8401219,77.2260997 96.6785367,76.7776593 95.4501664,76.3054919 C100.444744,63.4857905 105.41547,50.7372701 110.429129,37.8772327 C111.647959,38.3517729 112.790463,38.7954679 114.037915,39.2771261 C109.040952,52.0920821 104.06307,64.8643295 99.0589515,77.7006398 M92.7906849,75.2804852 C91.4859886,74.7751 90.2647738,74.307678 88.9720034,73.8117835 C93.964196,61.0063183 98.9349219,48.2530525 103.950966,35.3953879 C105.229426,35.8865369 106.467337,36.3587043 107.762492,36.8593442 C102.760759,49.7003999 97.790033,62.4536657 92.7906849,75.2804852 M86.3220627,72.770168 C85.4586256,72.445108 84.6381219,72.1342842 83.7126701,71.7854972 C88.709633,58.9681685 93.6875145,46.2006665 98.6987886,33.35012 C99.6266256,33.7178886 100.430433,34.031085 101.291485,34.3656358 C96.3064478,47.1616102 91.3381071,59.9053852 86.3220627,72.770168 M115.056389,36.6173287 C109.952092,34.6527326 104.90027,32.7023727 99.7172627,30.7045588 C100.299248,29.2500933 100.745277,27.8786724 101.389277,26.6045321 C102.298033,24.8155159 104.041603,24.2864036 105.875811,24.2769128 L105.937826,24.2769128 C109.558537,24.2769128 112.733218,25.5083444 115.2639,28.1562783 C116.740329,29.7032791 117.169663,31.4970408 116.284759,33.5304452 C115.85304,34.515116 115.492877,35.5187683 115.056389,36.6173287 M106.035618,21.446281 L106.016537,21.446281 C102.584255,21.4510264 99.7721219,22.7655025 98.4316478,26.1916822 C92.5211589,41.3176486 86.622596,56.4531058 80.7454997,71.5909358 C80.5379886,72.120048 80.4783589,72.7772861 80.5666108,73.3396161 C80.8933812,75.3445481 81.3179441,77.3328712 81.6948034,79.3306852 C82.3125664,82.5836577 82.9279441,85.8413756 83.5624034,89.1702746 C79.951233,89.2319648 76.3543738,89.3292455 72.7575145,89.3292455 C67.9227441,89.3292455 63.0879738,89.151293 58.2102701,88.4608371 C58.6873071,87.891389 59.0737071,87.4832845 59.4028627,87.0277259 C60.2925367,85.8010397 60.8387441,84.4652093 60.4952775,82.9087177 C59.8918256,80.1516396 57.0868478,77.9782458 53.9217071,77.8097841 C53.8024478,77.8074114 53.6903441,77.802666 53.5734701,77.802666 C50.6659293,77.802666 48.690996,79.7008264 48.5097219,82.6714476 C48.3713812,84.9658491 49.2109664,86.8189283 51.0308627,88.3991469 C50.7327145,88.4964276 50.5657515,88.5818448 50.391633,88.6031991 C49.2849071,88.7431885 48.1829515,88.9282591 47.0738404,88.9852039 C45.9981219,89.0374034 44.9247886,89.0635031 43.8514552,89.0635031 C38.7185367,89.0635031 33.6309367,88.4703279 28.5767293,87.4927753 C28.3930701,87.4571848 28.2189515,87.4382031 28.0519886,87.4382031 C27.2815738,87.4382031 26.7520627,87.8249533 26.6232627,88.5296454 C26.4634552,89.4336444 26.9285664,90.0956278 28.0090552,90.2403626 C32.1187293,90.7955745 36.2212478,91.4955212 40.3547738,91.782618 C41.7524923,91.8798987 43.152596,91.9439616 44.5479293,91.9439616 C47.8633367,91.9439616 51.1668182,91.5856838 54.3820478,90.4800053 C54.4512182,90.458651 54.5251589,90.4491602 54.6014849,90.4491602 C54.835233,90.4491602 55.0976034,90.5322047 55.3337367,90.5725407 C57.6664478,90.990136 59.9896182,91.7233005 62.3342552,91.7873634 C67.882196,91.9415889 73.4325219,91.9676886 78.9828478,91.9676886 C80.7812775,91.9676886 82.5820923,91.9653159 84.3805219,91.9629432 C85.1509367,91.9629432 86.0406108,91.6022927 86.6774552,91.1348707 C91.1639886,87.8534258 95.6195145,84.5221541 100.039263,81.1529192 C100.6451,80.6878699 101.191307,79.9926686 101.465603,79.2903492 C106.610448,66.2072781 111.709974,53.1052253 116.81904,40.0102906 C117.534596,38.1714476 118.223915,36.3159957 118.972863,34.491389 C120.201233,31.4780592 119.6431,28.7684351 117.503589,26.4123434 C114.450552,23.0525993 110.534077,21.446281 106.035618,21.446281" id="Imported-Layers" fill="#8F2F23"></path>
                    <path d="M44.168338,60.614202 L44.168338,62.1574251 L45.8922531,62.1574251 L45.8785089,62.1476455 L44.168338,60.614202 M45.7783726,32.6816675 L44.168338,32.6816675 L44.168338,33.6831 C44.6808002,33.3056069 45.2305681,32.9672323 45.7783726,32.6816675 Z M49.5894422,46.7408411 C49.5933691,45.8059099 49.9330471,44.9003177 50.5495726,44.180538 C51.2328555,43.3864334 52.1831686,42.8935408 53.2277276,42.8172598 L53.5497346,42.7977006 C55.5819123,42.7977006 57.3117178,44.4054692 57.4805751,46.4298493 C57.4884289,46.5315573 57.4923558,46.6332653 57.4903923,46.7330174 C57.4805751,48.7613094 55.9176634,50.5020807 53.8363992,50.648775 C53.7342995,50.6546427 53.6302363,50.6585546 53.5281365,50.6585546 C51.4763242,50.6585546 49.7641899,49.0723011 49.5992595,47.0342295 C49.5914057,46.9364334 49.5894422,46.8386372 49.5894422,46.7408411 Z M53.5418807,40.9082791 C53.3946215,40.9082791 53.2414718,40.9141469 53.0922491,40.9258824 C50.645782,41.113651 48.6528733,42.7585821 47.9695904,44.9746427 C47.7889523,45.5203452 47.7025602,46.0914747 47.7005968,46.6821634 C47.7005968,46.8484168 47.7084506,47.0166262 47.7202313,47.1867915 C47.7595005,47.6229623 47.8360753,48.0571772 47.9695904,48.4522736 C48.7058867,50.850235 50.9520812,52.5557998 53.5399173,52.5557998 C53.6871765,52.5557998 53.8363992,52.549932 53.985622,52.5381965 C57.0643222,52.3054416 59.3831647,49.7529623 59.3772743,46.7447529 C59.3772743,46.5941469 59.3713839,46.4454967 59.3596032,46.2968466 C59.1259518,43.2319155 56.5616773,40.9082791 53.5418807,40.9082791 M47.7005968,46.6821634 C47.7025602,46.0914747 47.7889523,45.5203452 47.9695904,44.9746427 C48.6528733,42.7585821 50.645782,41.113651 53.0922491,40.9258824 C53.2414718,40.9141469 53.3946215,40.9082791 53.5418807,40.9082791 C56.5616773,40.9082791 59.1259518,43.2319155 59.3596032,46.2968466 C59.3713839,46.4454967 59.3772743,46.5941469 59.3772743,46.7447529 C59.3831647,49.7529623 57.0643222,52.3054416 53.985622,52.5381965 C53.8363992,52.549932 53.6871765,52.5557998 53.5399173,52.5557998 C50.9520812,52.5557998 48.7058867,50.850235 47.9695904,48.4522736 C47.8360753,48.0571772 47.7595005,47.6229623 47.7202313,47.1867915 C47.7084506,47.0166262 47.7005968,46.8484168 47.7005968,46.6821634 M53.5026116,39.0149458 L53.5026116,39.0149458 C53.3180467,39.0149458 53.1315183,39.0208135 52.9430264,39.034505 C51.0443637,39.187067 49.2772526,40.0163783 47.9695904,41.3992157 L47.6632911,41.7199871 C46.4538017,43.1302075 45.7960437,44.8768466 45.7960437,46.7115022 C45.7960437,46.9168741 45.8038975,47.1261579 45.8215686,47.3354416 C45.9570471,49.1544499 46.7542106,50.8013369 47.9695904,52.0453039 C49.373462,53.5435408 51.3663706,54.4491331 53.5301,54.4491331 C53.7401899,54.4491331 53.9286817,54.4295739 54.1407351,54.4295739 C58.1933099,54.1048907 61.2818274,50.725056 61.2837909,46.7408411 C61.2837909,46.5432929 61.275937,46.3457447 61.2602294,46.1481965 C60.9500032,42.1483342 57.5944555,39.0403728 53.5497346,39.0149458 L53.5026116,39.0149458 M41.0071726,47.0264058 C41.0150264,44.0651386 42.0595854,41.0960477 44.168338,38.7137336 L44.2449128,38.6178934 C45.3130333,37.4462956 46.5814264,36.4781138 47.9695904,35.8189678 C49.7151034,34.9094637 51.6707064,34.4380863 53.6832496,34.4380863 C56.8169267,34.4380863 59.8151252,35.5920807 62.1516388,37.6712268 C64.9260032,40.1611166 66.3396921,43.6113645 66.3396921,47.073348 C66.3396921,50.0815573 65.2735351,53.1015022 63.1019518,55.5111992 L54.6315992,64.9094086 L47.9695904,58.9301524 L45.1971894,56.453954 C44.8182422,56.1155794 44.4766007,55.7752488 44.168338,55.3957998 C42.0635123,53.031089 41.0012822,50.0346152 41.0071726,47.0264058 M47.9695904,31.6763232 C47.5513741,31.8269292 47.1331578,31.9970945 46.7149415,32.188775 L45.7783726,32.6816675 C45.4924168,32.8307333 42.2520042,35.1950284 41.4155716,36.1006207 C35.3406363,42.836819 35.9120022,53.2188576 42.6702205,59.270483 C42.6702205,59.270483 44.3630723,60.790995 45.2094982,61.551251 C45.7073857,61.9984514 46.7031607,62.8928521 46.7031607,62.8928521 L47.9695904,64.0214196 L53.4947578,68.9777281 C53.8560338,69.2984995 54.3095923,69.4667088 54.7651143,69.4667088 C55.2972111,69.4667088 55.8116368,69.259381 56.1905839,68.8427695 L65.9312931,58.0441193 C72.0062284,51.307921 71.4348625,40.9063232 64.6786076,34.8546978 C61.6607746,32.1477006 57.7476052,30.6533755 53.6832496,30.6533755 C51.7080121,30.6533755 49.7720437,30.9976179 47.9695904,31.6763232 Z" id="Fill-1" fill="#8F2F23"></path>
                    <path d="M81.5768732,17.6970804 L83.2879012,27.6533755 L74.3557091,22.9442801 L73.8493428,23.220161 L67.4367312,26.5894587 L65.4248781,27.6533755 L66.1218124,23.6408111 L67.1386285,17.6970804 L59.9174643,10.6375346 L67.6722188,9.5053304 L69.8909742,9.17755114 L74.3557091,0.100797093 L78.8190827,9.17755114 L88.7925926,10.6375346 L81.5768732,17.6970804" id="Fill-7" fill="#8F2F23"></path>
                    <path d="M24.0228647,20.0204364 L21.8618309,20.0204364 L21.8618309,18.5243361 C21.8618309,13.9343003 18.1401982,10.2126676 13.5501624,10.2126676 C8.96012659,10.2126676 5.23849391,13.9343003 5.23849391,18.5243361 L5.23849391,36.8100067 L21.8618309,36.8100067 L21.8618309,36.6437733 L24.0228647,36.6437733 C28.6129005,36.6437733 32.3345331,32.9221407 32.3345331,28.3321049 C32.3345331,23.7420691 28.6129005,20.0204364 24.0228647,20.0204364 L24.0228647,20.0204364 Z" id="Imported-Layers" stroke="#8F2F23" stroke-width="4" transform="translate(20.864431, 25.838604) rotate(-68.000000) translate(-20.864431, -25.838604) "></path>
                </g>
            </g>
        </g>
    </g>
</svg>