<?xml version="1.0" encoding="utf-8"?>
<!-- Generator: Adobe Illustrator 16.0.0, SVG Export Plug-In . SVG Version: 6.00 Build 0)  -->
<!DOCTYPE svg PUBLIC "-//W3C//DTD SVG 1.1//EN" "http://www.w3.org/Graphics/SVG/1.1/DTD/svg11.dtd">
<svg version="1.1" id="Layer_1" xmlns:sketch="http://www.bohemiancoding.com/sketch/ns"
	 xmlns="http://www.w3.org/2000/svg" xmlns:xlink="http://www.w3.org/1999/xlink" x="0px" y="0px" width="155.75px" height="124px"
	 viewBox="0 -43 155.75 124" enable-background="new 0 -43 155.75 124" xml:space="preserve">
<polygon fill="#8F2F23" points="131.26,-5.875 84.447,-5.875 84.447,-31.019 131.26,-31.019 123.022,-18.729 "/>
<polygon fill="#8F2F23" points="61.776,-5.875 20.049,-5.875 27.287,-18.871 20.049,-31.019 61.776,-31.019 "/>
<title>Desenho 01</title>
<desc>Created with bin/sketchtool.</desc>
<path fill="#8F2F23" d="M100.939-15.295c0,2.082-1.688,3.769-3.77,3.769H50.716c-2.082,0-3.769-1.687-3.769-3.769v-16.829
	c0-2.082,1.687-3.769,3.769-3.769H97.17c15.417,0,3.77,1.687,3.77,3.769V-15.295z"/>
<rect x="41.309" y="-36.669" fill="#8F2F23" stroke="#EF4D4B" stroke-width="2" stroke-miterlimit="10" width="64.806" height="25.143"/>
<g>
	<path fill="#EF4B4D" d="M59.813-23.944h1.652v2.608c-0.729,0.813-1.739,1.22-3.03,1.22c-1.08,0-1.985-0.358-2.718-1.073
		c-0.732-0.716-1.099-1.618-1.099-2.709c0-1.09,0.373-2,1.12-2.729c0.747-0.729,1.648-1.094,2.704-1.094s1.972,0.347,2.75,1.041
		l-0.853,1.231c-0.33-0.288-0.632-0.485-0.909-0.594c-0.277-0.109-0.578-0.163-0.9-0.163c-0.624,0-1.149,0.212-1.578,0.636
		c-0.427,0.424-0.641,0.983-0.641,1.678s0.204,1.25,0.615,1.667c0.41,0.417,0.899,0.626,1.467,0.626
		c0.567,0,1.041-0.109,1.419-0.326V-23.944z"/>
	<path fill="#EF4B4D" d="M68.89-25.112c0,1.178-0.466,1.939-1.399,2.282l1.862,2.629h-2.02l-1.63-2.346h-1.136v2.346h-1.641v-7.352
		h2.787c1.143,0,1.958,0.192,2.446,0.578S68.89-25.967,68.89-25.112z M66.913-24.239c0.204-0.182,0.305-0.472,0.305-0.868
		c0-0.396-0.105-0.668-0.315-0.815c-0.21-0.147-0.579-0.221-1.104-0.221h-1.23v2.177h1.199
		C66.327-23.965,66.709-24.057,66.913-24.239z"/>
	<path fill="#EF4B4D" d="M75.811-20.2l-0.684-1.588h-3.082L71.362-20.2h-1.746l3.176-7.352h1.588l3.177,7.352H75.811z
		 M73.592-25.365l-0.925,2.136h1.84L73.592-25.365z M74.287-28.309h-1.504l1.335-1.862l1.63,0.684L74.287-28.309z"/>
	<path fill="#EF4B4D" d="M81.522-26.132v5.932h-1.641v-5.932h-2.083v-1.42h5.807v1.42H81.522z"/>
	<path fill="#EF4B4D" d="M84.805-27.552h1.641v7.352h-1.641V-27.552z"/>
	<path fill="#EF4B4D" d="M89.974-26.085c-0.157,0.13-0.236,0.302-0.236,0.516s0.096,0.384,0.289,0.51
		c0.192,0.126,0.638,0.275,1.336,0.447c0.697,0.172,1.239,0.43,1.624,0.773c0.386,0.344,0.579,0.845,0.579,1.504
		s-0.247,1.194-0.742,1.604c-0.493,0.41-1.145,0.615-1.95,0.615c-1.164,0-2.213-0.432-3.146-1.294l0.979-1.199
		c0.792,0.694,1.525,1.041,2.198,1.041c0.302,0,0.538-0.065,0.709-0.194c0.173-0.13,0.259-0.305,0.259-0.526
		c0-0.221-0.091-0.396-0.274-0.526c-0.182-0.129-0.543-0.261-1.082-0.394c-0.856-0.203-1.481-0.468-1.877-0.794
		c-0.396-0.326-0.595-0.837-0.595-1.535s0.251-1.236,0.752-1.615c0.501-0.379,1.127-0.568,1.878-0.568
		c0.489,0,0.98,0.084,1.471,0.252c0.492,0.168,0.92,0.407,1.284,0.715l-0.831,1.2c-0.638-0.484-1.297-0.726-1.978-0.726
		C90.348-26.279,90.131-26.215,89.974-26.085z"/>
</g>
<circle fill="#EF4B4D" cx="102.469" cy="7.048" r="6.946"/>
<g id="Page-1" sketch:type="MSPage">
	<g id="Landing" transform="translate(-257.000000, -690.000000)" sketch:type="MSArtboardGroup">
		<g id="FAIXA-Como-funciona" transform="translate(-3.000000, 560.000000)" sketch:type="MSLayerGroup">
			<g id="Desenho-01" transform="translate(260.000000, 130.000000)" sketch:type="MSShapeGroup">
				<path id="Imported-Layers" fill="#8F2F23" d="M87.334,23.29c0.338,0,0.683-0.047,0.99-0.143
					c0.958-0.293,1.541-1.028,1.717-2.032l34.178-9.477l5.189,18.136l-9.607,2.663c-0.604-0.563-1.203-0.841-1.858-0.841
					c-0.258,0-0.526,0.045-0.807,0.132c-0.954,0.289-1.521,0.903-1.79,1.945L82.47,42.789l-5.191-18.136l8.058-2.232
					c0.335,0.394,0.751,0.694,1.298,0.8C86.856,23.265,87.094,23.29,87.334,23.29 M102.34,1.55c-2.327,0-4.382,1.477-5.081,3.648
					c-0.62,1.927-0.195,4.712,2.839,6.393c-0.188,0.047-0.332,0.096-0.481,0.115c-3.125,0.409-5.49,2.606-6.106,5.578l-4.473,1.236
					c-0.432-0.35-0.961-0.536-1.56-0.539h-0.041c-1.367,0-2.211,0.747-2.592,1.703l-11.029,3.059l6.714,23.452l15.727-4.361
					c0,4.783-0.001,9.569,0,14.354c0,1.021,0.487,1.642,1.524,1.764c0.389,0.048,0.78,0.07,1.174,0.07
					c0.386,0,0.771-0.021,1.148-0.066c1.052-0.122,1.554-0.766,1.554-1.814V41.995v-0.721h1.354v0.725c0,4.698,0,9.398,0.004,14.097
					c0,1.102,0.521,1.734,1.632,1.882c0.356,0.047,0.716,0.062,1.078,0.062c0.238,0,0.478-0.007,0.711-0.015
					c1.368-0.037,2.024-0.729,2.024-2.074c0-5.172-0.006-10.342,0.012-15.513c0.003-0.272,0.132-0.588,0.298-0.817
					c0.404-0.545,0.835-1.07,1.259-1.602l6.159-1.709c0.511,0.44,1.113,0.678,1.748,0.678c0.229,0,0.465-0.03,0.701-0.096
					c0.925-0.258,1.588-0.896,1.862-1.779l12.37-3.429l-6.713-23.454l-17.645,4.894c-0.423-0.31-0.859-0.606-1.334-0.813
					c-0.791-0.34-1.651-0.518-2.499-0.772c2.567-1.712,3.511-3.815,2.775-6.233c-0.683-2.245-2.708-3.744-5.082-3.754H102.34"/>
				<path id="Fill-1" fill="#8F2F23" d="M62.601,20.617h-0.974v-9.011H25.802v9.011h-0.971c-3.16,0-5.732,2.402-5.732,5.355v13.177
					c0,2.954,2.572,5.358,5.732,5.358h0.971v15.211h35.826V44.508h0.974c3.16,0,5.731-2.404,5.731-5.358V25.972
					C68.333,23.019,65.761,20.617,62.601,20.617L62.601,20.617z M28.639,14.256h30.155v6.36H28.639V14.256z M28.639,38.533h30.155
					V57.07H28.639V38.533z M65.498,39.149c0,1.494-1.299,2.708-2.897,2.708h-0.974v-5.976H25.802v5.976h-0.971
					c-1.598,0-2.897-1.214-2.897-2.708V25.972c0-1.493,1.299-2.708,2.897-2.708h37.77c1.598,0,2.897,1.215,2.897,2.708V39.149z
					 M30.148,47.5h26.734v1.234H30.148V47.5z M34.965,46.613l0.935-0.873l-1.548-1.447h2.989v-1.232h-3.158l1.717-1.604
					l-0.935-0.873l-3.199,2.989l0.025,0.026l-0.025,0.022L34.965,46.613z M53.67,49.626l-0.935,0.87l1.545,1.449h-2.989v1.232h3.16
					l-1.716,1.604l0.935,0.873l3.199-2.991l-0.027-0.023l0.027-0.027L53.67,49.626z"/>
			</g>
		</g>
	</g>
</g>
<line fill="#8F2F23" stroke="#EF4D4B" stroke-width="2" stroke-miterlimit="10" x1="40.532" y1="-11.526" x2="62.059" y2="-5.594"/>
<line fill="none" stroke="#EF4D4B" stroke-width="2" stroke-miterlimit="10" x1="84.447" y1="-5.875" x2="106.167" y2="-11.333"/>
</svg>
