<?xml version="1.0" encoding="utf-8"?>
<!-- Generator: Adobe Illustrator 16.0.0, SVG Export Plug-In . SVG Version: 6.00 Build 0)  -->
<!DOCTYPE svg PUBLIC "-//W3C//DTD SVG 1.1//EN" "http://www.w3.org/Graphics/SVG/1.1/DTD/svg11.dtd">
<svg version="1.1" id="Layer_1" xmlns:sketch="http://www.bohemiancoding.com/sketch/ns"
	 xmlns="http://www.w3.org/2000/svg" xmlns:xlink="http://www.w3.org/1999/xlink" x="0px" y="0px" width="176.666px"
	 height="105.666px" viewBox="0 -24.666 176.666 105.666" enable-background="new 0 -24.666 176.666 105.666" xml:space="preserve">
<title>Desenho 01</title>
<desc>Created with bin/sketchtool.</desc>
<g id="Page-1" sketch:type="MSPage">
	<g id="Landing" transform="translate(-257.000000, -690.000000)" sketch:type="MSArtboardGroup">
		<g id="FAIXA-Como-funciona" transform="translate(-3.000000, 560.000000)" sketch:type="MSLayerGroup">
			<g id="Desenho-01" transform="translate(260.000000, 130.000000)" sketch:type="MSShapeGroup">
				<path id="Imported-Layers" fill="#8F2F23" d="M87.902,30.131c0.469,0,0.945-0.065,1.371-0.198
					c1.327-0.406,2.135-1.424,2.379-2.815l41.07-11.388l8.396,5.618l5.085,17.77l-13.312,3.69c-0.837-0.781-1.668-1.166-2.576-1.166
					c-0.357,0-0.729,0.062-1.117,0.182c-1.322,0.4-2.107,1.252-2.48,2.696L81.16,57.15l-7.193-25.129l11.167-3.092
					c0.464,0.545,1.038,0.961,1.798,1.108C87.24,30.097,87.569,30.131,87.902,30.131L87.902,30.131z M108.695,0.008
					c-3.225,0-6.072,2.047-7.041,5.055c-0.858,2.67-0.27,6.53,3.934,8.859c-0.26,0.065-0.461,0.133-0.666,0.16
					c-4.332,0.567-7.608,3.611-8.462,7.729l-6.198,1.714c-0.598-0.485-1.331-0.743-2.162-0.748h-0.055
					c-1.896,0-3.065,1.036-3.593,2.361L69.17,29.375l9.303,32.499l21.793-6.044c0,6.628-0.002,13.259,0,19.888
					c0,1.415,0.675,2.276,2.112,2.445c0.537,0.065,1.081,0.097,1.626,0.097c0.535,0,1.069-0.029,1.592-0.092
					c1.457-0.169,2.153-1.061,2.153-2.514V56.052v-0.999h1.876v1.004c0,6.51,0,13.023,0.005,19.533c0,1.527,0.724,2.404,2.262,2.607
					c0.493,0.064,0.993,0.086,1.496,0.086c0.329,0,0.659-0.01,0.983-0.021c1.896-0.051,2.806-1.009,2.806-2.875
					c0-7.166-0.007-14.328,0.017-21.493c0.003-0.379,0.182-0.815,0.412-1.132c0.56-0.756,1.156-1.484,1.744-2.221l8.535-2.369
					c0.706,0.611,1.543,0.939,2.423,0.939c0.316,0,0.643-0.041,0.972-0.133c1.279-0.357,2.199-1.243,2.58-2.465L151,41.762
					l-6.904-24.127L131.6,12.063l-14.352,3.98c-0.586-0.43-1.189-0.84-1.848-1.127c-1.096-0.471-2.29-0.717-3.463-1.069
					c3.557-2.373,4.863-5.287,3.846-8.637c-0.946-3.111-3.752-5.188-7.043-5.202H108.695L108.695,0.008z"/>
				<path id="Fill-1" fill="#8F2F23" d="M55.123,31.413h-1.219V20.126H9.033v11.286H7.818c-3.958,0-7.179,3.009-7.179,6.708v16.505
					c0,3.698,3.221,6.711,7.179,6.711h1.215v19.051h44.871V61.336h1.219c3.958,0,7.179-3.013,7.179-6.711V38.12
					C62.302,34.421,59.082,31.413,55.123,31.413L55.123,31.413z M12.586,23.446h37.768v7.966H12.586V23.446z M12.586,53.852h37.768
					V77.07H12.586V53.852z M58.752,54.625c0,1.87-1.628,3.391-3.629,3.391h-1.219v-7.484H9.033v7.484H7.818
					c-2.001,0-3.629-1.521-3.629-3.391V38.12c0-1.871,1.628-3.391,3.629-3.391h47.305c2.001,0,3.629,1.521,3.629,3.391V54.625z
					 M14.477,65.082h33.484v1.547H14.477V65.082z M20.51,63.973l1.17-1.094l-1.939-1.812h3.744v-1.543H19.53l2.15-2.012l-1.17-1.091
					l-4.007,3.743l0.031,0.033l-0.031,0.028L20.51,63.973z M43.938,67.745l-1.17,1.091l1.936,1.814h-3.744v1.544h3.958l-2.15,2.009
					l1.17,1.094l4.007-3.746l-0.035-0.029l0.035-0.032L43.938,67.745z"/>
			</g>
		</g>
	</g>
</g>
<path fill="#8F2F23" d="M150-16c-13.07,0-23.67,10.63-23.67,23.73c0,1.93,0.229,3.81,0.67,5.61c0.3,1.26,0.7,2.48,1.2,3.65
	c2.81,6.63,8.54,11.72,15.569,13.63c1.37,0.38,2.801,0.64,4.261,0.75c0.649,0.06,1.31,0.09,1.97,0.09
	c13.07,0,23.67-10.62,23.67-23.73C173.67-5.37,163.07-16,150-16z M149.86,2.66l1.55,0.65l-1.391,1.12h-1.439L149.86,2.66z
	 M132.36,11.22c-0.54-0.52-0.87-1.15-0.98-1.9c-0.02-0.12-0.03-0.24-0.04-0.37c-0.01-0.12-0.02-0.25-0.02-0.38
	c0-0.11,0-0.22,0.02-0.32c0.01-0.11,0.021-0.21,0.04-0.32c0.021-0.1,0.04-0.2,0.061-0.3c0.159-0.61,0.479-1.14,0.939-1.59
	c0.71-0.7,1.57-1.04,2.57-1.04c0.99,0,1.859,0.32,2.59,0.97c0.01,0,0.02,0.01,0.03,0.02l-0.82,1.17c-0.31-0.28-0.6-0.46-0.86-0.57
	c-0.26-0.1-0.55-0.15-0.85-0.15c-0.6,0-1.1,0.2-1.5,0.6c-0.23,0.23-0.4,0.5-0.5,0.81c-0.03,0.1-0.06,0.21-0.08,0.32
	c-0.02,0.03-0.02,0.07-0.01,0.1c-0.021,0.09-0.03,0.18-0.03,0.28v0.1c0,0.66,0.2,1.19,0.59,1.58c0.391,0.4,0.86,0.6,1.4,0.6
	s0.99-0.11,1.34-0.31V8.59h1.58v2.49c-0.7,0.77-1.66,1.16-2.88,1.16c-0.76,0-1.42-0.18-2-0.55
	C132.74,11.56,132.55,11.4,132.36,11.22z M141.91,10.01l-0.05-0.08h-1.08v2.23h-1.57v-7h2.66c1.08,0,1.86,0.18,2.32,0.55
	c0.3,0.23,0.5,0.57,0.609,1.01c0.04,0.14,0.061,0.3,0.07,0.46c0.01,0.08,0.01,0.16,0.01,0.24c0,0.14-0.01,0.27-0.02,0.4
	c-0.011,0.12-0.03,0.23-0.051,0.33c-0.14,0.73-0.55,1.23-1.21,1.49c-0.01,0.01-0.029,0.01-0.04,0.02l1.721,2.43l0.05,0.07h-1.92
	l-1.49-2.14L141.91,10.01z M151.46,12.16l-0.64-1.51h-2.94l-0.64,1.51h-1.66l0.03-0.07l2.989-6.93h1.511l2.979,6.93l0.03,0.07
	H151.46z M158.88,6.51H156.9v5.65h-1.57V6.51h-1.97V5.16h5.52V6.51z M161.58,12.16h-1.561v-7h1.561V12.16z M165.79,12.24
	c-1.11,0-2.11-0.41-2.99-1.23l0.931-1.14c0.75,0.66,1.449,0.99,2.09,0.99c0.279,0,0.51-0.06,0.67-0.19c0.16-0.12,0.25-0.29,0.25-0.5
	s-0.09-0.37-0.26-0.5c-0.181-0.12-0.521-0.25-1.03-0.37c-0.82-0.2-1.41-0.45-1.79-0.77c-0.38-0.31-0.561-0.79-0.561-1.46
	c0-0.66,0.23-1.17,0.71-1.53C164.29,5.18,164.88,5,165.6,5c0.46,0,0.931,0.08,1.4,0.24c0.46,0.16,0.87,0.38,1.22,0.68l-0.79,1.14
	c-0.609-0.46-1.239-0.69-1.88-0.69c-0.26,0-0.47,0.06-0.62,0.18c-0.149,0.13-0.22,0.29-0.22,0.49c0,0.21,0.09,0.37,0.271,0.49
	c0.18,0.12,0.609,0.26,1.27,0.42c0.66,0.17,1.18,0.41,1.55,0.74c0.36,0.33,0.55,0.81,0.55,1.44c0,0.62-0.239,1.13-0.71,1.52
	C167.17,12.04,166.55,12.24,165.79,12.24z"/>
<path fill="#8F2F23" d="M143.29,7.42c0,0.38-0.09,0.65-0.29,0.83c-0.19,0.17-0.55,0.26-1.08,0.26h-1.14V6.44h1.17
	c0.5,0,0.84,0.07,1.05,0.21C143.2,6.79,143.29,7.05,143.29,7.42z"/>
<polygon fill="#8F2F23" points="150.23,9.21 148.48,9.21 149.36,7.18 "/>
</svg>
