<?xml version="1.0" encoding="UTF-8" standalone="no"?>
<svg width="380px" height="380px" viewBox="0 0 380 380" version="1.1" xmlns="http://www.w3.org/2000/svg" xmlns:xlink="http://www.w3.org/1999/xlink" xmlns:sketch="http://www.bohemiancoding.com/sketch/ns">
    <!-- Generator: bin/sketchtool 1.4 (305) - http://www.bohemiancoding.com/sketch -->
    <title>Foto-ellipse03</title>
    <desc>Created with bin/sketchtool.</desc>
    <defs>
        <path id="path-1" d="M358.373277,179.066432 C358.373277,277.891719 278.258855,358.006141 179.438818,358.006141 C80.6135305,358.006141 0.499108468,277.891719 0.499108468,179.066432 C0.499108468,80.2411453 80.6135305,0.131973186 179.438818,0.131973186 C278.258855,0.131973186 358.373277,80.2411453 358.373277,179.066432 L358.373277,179.066432 Z"></path>
    </defs>
    <g id="Page-1" stroke="none" stroke-width="1" fill="none" fill-rule="evenodd" sketch:type="MSPage">
        <g id="Landing" sketch:type="MSArtboardGroup" transform="translate(-170.000000, -3349.000000)">
            <g id="Faixa:-Torne-se-um-parceiro" sketch:type="MSLayerGroup" transform="translate(-25.000000, 3272.000000)">
                <g id="Foto-ellipse03" transform="translate(205.500000, 87.750000)">
                    <circle id="Oval-5" stroke="#A7A39F" stroke-width="21" fill="#D8D8D8" sketch:type="MSShapeGroup" cx="179.25" cy="179.25" r="179.25"></circle>
                    <mask id="mask-2" sketch:name="Clip 2" fill="white">
                        <use xlink:href="#path-1"></use>
                    </mask>
                    <g id="Clip-2"></g>
                    <path d="M0.499108468,0.131973186 L145.613312,0.131973186 L145.613312,319.896666 L0.499108468,319.896666 L0.499108468,0.131973186 Z" id="Fill-1" fill="#AEBEBC" sketch:type="MSShapeGroup" mask="url(#mask-2)"></path>
                    <path d="M143.933324,33.290734 L358.373277,33.290734 L358.373277,319.896666 L143.933324,319.896666 L143.933324,33.290734 Z" id="Fill-3" fill="#DFC0B3" sketch:type="MSShapeGroup" mask="url(#mask-2)"></path>
                    <path d="M145.613312,0.131973186 L358.373277,0.131973186 L358.373277,33.2539842 L145.613312,33.2539842 L145.613312,0.131973186 Z" id="Fill-4" fill="#50341C" sketch:type="MSShapeGroup" mask="url(#mask-2)"></path>
                    <path d="M221.333515,104.107473 L358.373277,104.107473 L358.373277,303.695283 L221.333515,303.695283 L221.333515,104.107473 Z" id="Fill-5" fill="#FBE3DA" sketch:type="MSShapeGroup" mask="url(#mask-2)"></path>
                    <path d="M0.499108468,0.131973186 L110.233817,0.131973186 L110.233817,90.6203204 L0.499108468,90.6203204 L0.499108468,0.131973186 Z" id="Fill-6" fill="#FFFFFF" sketch:type="MSShapeGroup" mask="url(#mask-2)"></path>
                    <path d="M0.499108468,29.9202583 L110.233817,29.9202583 L110.233817,41.7274231 L0.499108468,41.7274231 L0.499108468,29.9202583 Z" id="Fill-7" fill="#777776" sketch:type="MSShapeGroup" mask="url(#mask-2)"></path>
                    <path d="M0.499108468,242.370476 L108.128582,242.370476 L108.128582,303.065288 L0.499108468,303.065288 L0.499108468,242.370476 Z" id="Fill-8" fill="#139583" sketch:type="MSShapeGroup" mask="url(#mask-2)"></path>
                    <path d="M214.109567,181.523415 L199.997669,181.523415 C198.658929,181.523415 197.577437,182.610157 197.577437,183.948897 C197.577437,185.287637 198.658929,186.37438 199.997669,186.37438 L214.109567,186.37438 C215.443058,186.37438 216.5298,185.287637 216.5298,183.948897 C216.5298,182.610157 215.443058,181.523415 214.109567,181.523415" id="Fill-9" fill="#CFA698" sketch:type="MSShapeGroup" mask="url(#mask-2)"></path>
                    <path d="M175.254598,59.6402939 L161.1427,59.6402939 C159.803959,59.6402939 158.722467,60.7270361 158.722467,62.0657764 C158.722467,63.4045167 159.803959,64.4912589 161.1427,64.4912589 L175.254598,64.4912589 C176.593338,64.4912589 177.67483,63.4045167 177.67483,62.0657764 C177.67483,60.7270361 176.593338,59.6402939 175.254598,59.6402939" id="Fill-10" fill="#CFA698" sketch:type="MSShapeGroup" mask="url(#mask-2)"></path>
                    <path d="M182.189798,52.9360923 L168.08315,52.9360923 C166.744409,52.9360923 165.657667,54.0228344 165.657667,55.3563248 C165.657667,56.6950651 166.744409,57.7818073 168.08315,57.7818073 L182.189798,57.7818073 C183.528538,57.7818073 184.61003,56.6950651 184.61003,55.3563248 C184.61003,54.0228344 183.528538,52.9360923 182.189798,52.9360923" id="Fill-11" fill="#CFA698" sketch:type="MSShapeGroup" mask="url(#mask-2)"></path>
                    <path d="M174.556353,46.6886373 L160.449705,46.6886373 C159.110964,46.6886373 158.029472,47.7753795 158.029472,49.1141198 C158.029472,50.4528602 159.110964,51.5396023 160.449705,51.5396023 L174.556353,51.5396023 C175.895093,51.5396023 176.981835,50.4528602 176.981835,49.1141198 C176.981835,47.7753795 175.895093,46.6886373 174.556353,46.6886373" id="Fill-12" fill="#CFA698" sketch:type="MSShapeGroup" mask="url(#mask-2)"></path>
                    <path d="M169.46914,230.558061 L155.362491,230.558061 C154.023751,230.558061 152.942259,231.644803 152.942259,232.978293 C152.942259,234.317034 154.023751,235.403776 155.362491,235.403776 L169.46914,235.403776 C170.80788,235.403776 171.894622,234.317034 171.894622,232.978293 C171.894622,231.644803 170.80788,230.558061 169.46914,230.558061" id="Fill-13" fill="#CFA698" sketch:type="MSShapeGroup" mask="url(#mask-2)"></path>
                    <path d="M150.369777,38.8136941 L150.254278,38.6824451 L150.364527,38.8189441 L150.369777,38.8136941 L150.254278,38.6824451 L150.364527,38.8189441 C150.532526,38.687695 151.283271,38.141699 152.244014,37.6902022 C153.210007,37.2334555 154.343999,36.9132078 155.267992,36.9237078 C156.338984,36.9762074 157.142228,37.0969565 158.606968,38.4881965 C160.297456,40.1734343 162.024693,41.4754249 163.85693,42.3784184 C165.678667,43.2814119 167.636903,43.7539085 169.495389,43.7539085 C172.577117,43.7539085 175.065599,42.5096675 176.703587,41.328426 C178.352075,40.1419346 179.449318,38.8871936 179.869314,38.4881965 L172.020621,30.6290032 C171.285626,31.3797478 170.74488,31.9414937 170.251384,32.2932412 C169.747388,32.6397387 169.579389,32.6449886 169.495389,32.6449886 C169.42189,32.6397387 169.253891,32.6502386 168.755145,32.4139903 C168.272148,32.177742 167.484654,31.6632457 166.455661,30.6342531 C163.137685,27.2375276 158.858966,25.7675383 155.267992,25.8200379 C151.656018,25.8357878 148.763289,26.9907794 146.726304,28.0355219 C144.689318,29.1012642 143.455577,30.1302568 143.240329,30.3035055 L150.369777,38.8136941" id="Fill-14" fill="#2E2017" sketch:type="MSShapeGroup" mask="url(#mask-2)"></path>
                    <path d="M179.04507,38.8136941 L178.934821,38.6824451 L179.03982,38.8189441 L179.04507,38.8136941 L178.934821,38.6824451 L179.03982,38.8189441 C179.207819,38.687695 179.963814,38.141699 180.924557,37.6902022 C181.8853,37.2334555 183.024542,36.9132078 183.943285,36.9237078 C185.014277,36.9762074 185.822772,37.0969565 187.287511,38.4881965 C188.972749,40.1734343 190.699986,41.4754249 192.537473,42.3784184 C194.35921,43.2814119 196.312196,43.7539085 198.170682,43.7539085 C201.25241,43.7539085 203.740892,42.5096675 205.37888,41.328426 C207.027369,40.1419346 208.129861,38.8871936 208.544608,38.4881965 L200.695914,30.6290032 C199.96617,31.3797478 199.425423,31.9414937 198.926677,32.2932412 C198.422681,32.6397387 198.259932,32.6449886 198.170682,32.6449886 C198.097183,32.6397387 197.934434,32.6502386 197.435688,32.4139903 C196.947441,32.177742 196.159947,31.6632457 195.136204,30.6342531 C191.812978,27.2375276 187.534259,25.7675383 183.943285,25.8200379 C180.331311,25.8357878 177.443832,26.9907794 175.401597,28.0355219 C173.364611,29.1012642 172.13087,30.1302568 171.915622,30.3035055 L179.04507,38.8136941" id="Fill-15" fill="#2E2017" sketch:type="MSShapeGroup" mask="url(#mask-2)"></path>
                    <path d="M207.725614,38.8136941 L207.615364,38.6824451 L207.720364,38.8189441 L207.725614,38.8136941 L207.615364,38.6824451 L207.720364,38.8189441 C207.883112,38.687695 208.639107,38.141699 209.59985,37.6902022 C210.565843,37.2334555 211.699835,36.9132078 212.623828,36.9237078 C213.689571,36.9762074 214.498065,37.0969565 215.962804,38.4881965 C217.653292,40.1734343 219.37528,41.4754249 221.212766,42.3784184 C223.034503,43.2814119 224.992739,43.7539085 226.851226,43.7539085 C229.932953,43.7539085 232.416185,42.5096675 234.059424,41.328426 C235.707912,40.1419346 236.805154,38.8871936 237.225151,38.4881965 L229.376457,30.6290032 C228.641463,31.3797478 228.100717,31.9414937 227.60197,32.2932412 C227.103224,32.6397387 226.935225,32.6449886 226.851226,32.6449886 C226.777726,32.6397387 226.609727,32.6502386 226.110981,32.4139903 C225.627984,32.177742 224.84049,31.6632457 223.811498,30.6342531 C220.493521,27.2375276 216.209552,25.7675383 212.623828,25.8200379 C209.011854,25.8357878 206.119125,26.9907794 204.08214,28.0355219 C202.045155,29.1012642 200.811413,30.1302568 200.590915,30.3035055 L207.725614,38.8136941" id="Fill-16" fill="#2E2017" sketch:type="MSShapeGroup" mask="url(#mask-2)"></path>
                    <path d="M236.400907,38.8136941 L236.290657,38.6824451 L236.395657,38.8189441 L236.400907,38.8136941 L236.290657,38.6824451 L236.395657,38.8189441 C236.563656,38.687695 237.3144,38.141699 238.280393,37.6902022 C239.241136,37.2334555 240.375128,36.9132078 241.299121,36.9237078 C242.370114,36.9762074 243.178608,37.0969565 244.638097,38.4881965 C246.328585,40.1734343 248.055823,41.4754249 249.888059,42.3784184 C251.715046,43.2814119 253.668032,43.7539085 255.526519,43.7539085 C258.608246,43.7539085 261.096729,42.5096675 262.734717,41.328426 C264.383205,40.1419346 265.485697,38.8871936 265.900444,38.4881965 L258.05175,30.6290032 C257.322006,31.3797478 256.77601,31.9414937 256.282513,32.2932412 C255.778517,32.6397387 255.610518,32.6449886 255.526519,32.6449886 C255.453019,32.6397387 255.28502,32.6502386 254.791524,32.4139903 C254.303278,32.177742 253.515783,31.6632457 252.492041,30.6342531 C249.168815,27.2375276 244.890095,25.7675383 241.299121,25.8200379 C237.687147,25.8357878 234.794418,26.9907794 232.757433,28.0355219 C230.720448,29.1012642 229.486707,30.1302568 229.271458,30.3035055 L236.400907,38.8136941" id="Fill-17" fill="#2E2017" sketch:type="MSShapeGroup" mask="url(#mask-2)"></path>
                    <path d="M265.0762,38.8136941 L264.965951,38.6824451 L265.0762,38.8189441 L265.0762,38.8136941 L264.965951,38.6824451 L265.0762,38.8189441 C265.238949,38.687695 265.994943,38.141699 266.955686,37.6902022 C267.921679,37.2334555 269.055671,36.9132078 269.979664,36.9237078 C271.045407,36.9762074 271.853901,37.0969565 273.31864,38.4881965 C275.009128,40.1734343 276.731116,41.4754249 278.568602,42.3784184 C280.390339,43.2814119 282.348575,43.7539085 284.207062,43.7539085 C287.28879,43.7539085 289.772022,42.5096675 291.41526,41.328426 C293.063748,40.1419346 294.16099,38.8871936 294.580987,38.4881965 L286.732294,30.6290032 C285.997299,31.3797478 285.456553,31.9414937 284.957806,32.2932412 C284.45381,32.6397387 284.291061,32.6449886 284.207062,32.6449886 C284.128312,32.6397387 283.965564,32.6502386 283.466817,32.4139903 C282.983821,32.177742 282.191076,31.6632457 281.167334,30.6342531 C277.849358,27.2375276 273.565389,25.7675383 269.979664,25.8200379 C266.367691,25.8357878 263.474961,26.9907794 261.437976,28.0355219 C259.400991,29.1012642 258.16725,30.1302568 257.946751,30.3035055 L265.0762,38.8136941" id="Fill-18" fill="#2E2017" sketch:type="MSShapeGroup" mask="url(#mask-2)"></path>
                    <path d="M293.756743,38.8136941 L293.646494,38.6824451 L293.751493,38.8189441 L293.756743,38.8136941 L293.646494,38.6824451 L293.751493,38.8189441 C293.919492,38.687695 294.670236,38.141699 295.630979,37.6902022 C296.596972,37.2334555 297.730964,36.9132078 298.654958,36.9237078 C299.72595,36.9762074 300.529194,37.0969565 301.993933,38.4881965 C303.684421,40.1734343 305.411659,41.4754249 307.243896,42.3784184 C309.065632,43.2814119 311.023868,43.7539085 312.882355,43.7539085 C315.964083,43.7539085 318.452565,42.5096675 320.090553,41.328426 C321.739041,40.1419346 322.836283,38.8871936 323.25628,38.4881965 L315.407587,30.6290032 C314.672592,31.3797478 314.131846,31.9414937 313.6331,32.2932412 C313.134353,32.6397387 312.966354,32.6449886 312.882355,32.6449886 C312.808855,32.6397387 312.640857,32.6502386 312.14211,32.4139903 C311.659114,32.177742 310.871619,31.6632457 309.842627,30.6342531 C306.524651,27.2375276 302.245932,25.7675383 298.654958,25.8200379 C295.042984,25.8357878 292.150255,26.9907794 290.113269,28.0355219 C288.071034,29.1012642 286.842543,30.1302568 286.622044,30.3035055 L293.756743,38.8136941" id="Fill-19" fill="#2E2017" sketch:type="MSShapeGroup" mask="url(#mask-2)"></path>
                    <path d="M322.432036,38.8136941 L322.321787,38.6824451 L322.426786,38.8189441 L322.432036,38.8136941 L322.321787,38.6824451 L322.426786,38.8189441 C322.594785,38.687695 323.350779,38.141699 324.311522,37.6902022 C325.272266,37.2334555 326.411507,36.9132078 327.330251,36.9237078 C328.401243,36.9762074 329.209737,37.0969565 330.674477,38.4881965 C332.359714,40.1734343 334.086952,41.4754249 335.924439,42.3784184 C337.746176,43.2814119 339.699161,43.7539085 341.557648,43.7539085 C344.639376,43.7539085 347.127858,42.5096675 348.765846,41.328426 C350.414334,40.1419346 351.516826,38.8871936 351.931573,38.4881965 L344.08288,30.6290032 C343.353135,31.3797478 342.812389,31.9414937 342.313643,32.2932412 C341.809646,32.6397387 341.646897,32.6449886 341.557648,32.6449886 C341.484149,32.6397387 341.31615,32.6502386 340.822653,32.4139903 C340.339657,32.177742 339.546913,31.6632457 338.52317,30.6342531 C335.199944,27.2375276 330.921225,25.7675383 327.330251,25.8200379 C323.718277,25.8357878 320.830798,26.9907794 318.788562,28.0355219 C316.751577,29.1012642 315.517836,30.1302568 315.302587,30.3035055 L322.432036,38.8136941" id="Fill-20" fill="#2E2017" sketch:type="MSShapeGroup" mask="url(#mask-2)"></path>
                    <path d="M351.112579,38.8136941 L351.00233,38.6824451 L351.107329,38.8189441 L351.112579,38.8136941 L351.00233,38.6824451 L351.107329,38.8189441 C351.275328,38.687695 352.026073,38.141699 352.986816,37.6902022 C353.952809,37.2334555 355.0868,36.9132078 356.010794,36.9237078 C357.076536,36.9762074 357.88503,37.0969565 359.34977,38.4881965 C361.040258,40.1734343 362.762245,41.4754249 364.599732,42.3784184 C366.421469,43.2814119 368.379705,43.7539085 370.238191,43.7539085 C373.319919,43.7539085 375.803151,42.5096675 377.446389,41.328426 C379.094877,40.1419346 380.192119,38.8871936 380.612116,38.4881965 L372.763423,30.6290032 C372.028428,31.3797478 371.487682,31.9414937 370.988936,32.2932412 C370.490189,32.6397387 370.322191,32.6449886 370.238191,32.6449886 C370.164692,32.6397387 369.996693,32.6502386 369.497947,32.4139903 C369.01495,32.177742 368.227456,31.6632457 367.198463,30.6342531 C363.880487,27.2375276 359.596518,25.7675383 356.010794,25.8200379 C352.39882,25.8357878 349.506091,26.9907794 347.469105,28.0355219 C345.42687,29.1012642 344.198379,30.1302568 343.977881,30.3035055 L351.112579,38.8136941" id="Fill-21" fill="#2E2017" sketch:type="MSShapeGroup" mask="url(#mask-2)"></path>
                    <path d="M336.218437,248.943428 L241.162622,248.943428 L241.162622,254.492638 L265.842694,254.492638 L269.680417,251.353161 L272.237148,254.492638 L298.25596,254.492638 L302.329931,249.473674 L306.739899,253.054149 L305.590158,254.492638 L336.218437,254.492638 L336.218437,248.943428" id="Fill-22" fill="#B89C8A" sketch:type="MSShapeGroup" mask="url(#mask-2)"></path>
                    <path d="M269.680417,251.353161 L265.842694,254.492638 L265.380698,254.865386 L281.67133,274.920241 L285.278054,270.473523 L272.237148,254.492638 L269.680417,251.353161" id="Fill-23" fill="#B89C8A" sketch:type="MSShapeGroup" mask="url(#mask-2)"></path>
                    <path d="M307.842391,303.690033 L305.033662,303.690033 L305.458908,304.21503 L307.364645,304.17828 C307.522144,304.020781 307.684892,303.847532 307.842391,303.690033" id="Fill-24" fill="#AB8A76" sketch:type="MSShapeGroup" mask="url(#mask-2)"></path>
                    <path d="M289.094777,275.151239 L285.503802,279.645207 L305.033662,303.690033 L307.842391,303.690033 C308.666635,302.839539 309.46988,301.994296 310.283624,301.128052 L289.094777,275.151239" id="Fill-25" fill="#B89C8A" sketch:type="MSShapeGroup" mask="url(#mask-2)"></path>
                    <path d="M302.329931,249.473674 L258.387748,303.595534 L266.40969,303.553534 L285.503802,279.645207 L289.094777,275.151239 L306.739899,253.054149 L302.329931,249.473674" id="Fill-26" fill="#B89C8A" sketch:type="MSShapeGroup" mask="url(#mask-2)"></path>
                    <path d="M0.499108468,303.060038 L358.373277,303.060038 L358.373277,358.006141 L0.499108468,358.006141 L0.499108468,303.060038 Z" id="Fill-27" fill="#636462" sketch:type="MSShapeGroup" mask="url(#mask-2)"></path>
                    <path d="M203.583393,278.311716 L189.476745,278.311716 C188.138005,278.311716 187.051263,279.398459 187.051263,280.737199 C187.051263,282.075939 188.138005,283.162681 189.476745,283.162681 L203.583393,283.162681 C204.922134,283.162681 206.003626,282.075939 206.003626,280.737199 C206.003626,279.398459 204.922134,278.311716 203.583393,278.311716" id="Fill-28" fill="#C69688" sketch:type="MSShapeGroup" mask="url(#mask-2)"></path>
                    <path d="M210.172096,271.723014 L196.065448,271.723014 C194.726707,271.723014 193.645215,272.809756 193.645215,274.148496 C193.645215,275.487237 194.726707,276.573979 196.065448,276.573979 L210.172096,276.573979 C211.510836,276.573979 212.592328,275.487237 212.592328,274.148496 C212.592328,272.809756 211.510836,271.723014 210.172096,271.723014" id="Fill-29" fill="#CFA698" sketch:type="MSShapeGroup" mask="url(#mask-2)"></path>
                    <path d="M160.911701,120.581854 L206.239874,120.581854 L206.239874,243.861465 L160.911701,243.861465 L160.911701,120.581854 Z" id="Fill-30" fill="#FFFFFF" sketch:type="MSShapeGroup" mask="url(#mask-2)"></path>
                    <path d="M160.911701,120.581854 L206.239874,120.581854 L206.239874,131.643524 L160.911701,131.643524 L160.911701,120.581854 Z" id="Fill-31" fill="#DA5951" sketch:type="MSShapeGroup" mask="url(#mask-2)"></path>
                    <path d="M160.911701,238.322755 L206.239874,238.322755 L206.239874,243.861465 L160.911701,243.861465 L160.911701,238.322755 Z" id="Fill-32" fill="#DA5951" sketch:type="MSShapeGroup" mask="url(#mask-2)"></path>
                    <path d="M24.7906832,287.4519 C22.2549515,285.152417 22.2077019,281.340945 21.9399538,281.351444 C20.5067141,281.419694 25.7514263,281.304195 28.292408,283.603678 C30.8333896,285.913662 31.1746372,289.667384 31.1378874,289.709384 C31.1011377,289.751384 27.3316649,289.767134 24.7906832,287.4519" id="Fill-33" fill="#18806E" sketch:type="MSShapeGroup" mask="url(#mask-2)"></path>
                    <path d="M95.93817,243.325969 C96.4316664,239.939743 99.5658938,237.771509 99.4083949,237.55626 C98.5474012,236.406519 101.571379,240.679988 101.088383,244.081963 C100.589636,247.478689 97.6759074,249.856922 97.6181579,249.851672 C97.5656582,249.846422 95.4446735,246.727944 95.93817,243.325969" id="Fill-34" fill="#18806E" sketch:type="MSShapeGroup" mask="url(#mask-2)"></path>
                    <path d="M105.083604,252.613152 C106.810842,249.652173 110.527815,248.817429 110.464815,248.560181 C110.102568,247.174191 111.299559,252.266654 109.572322,255.243383 C107.839834,258.204361 104.24361,259.317353 104.19636,259.291104 C104.143861,259.259604 103.345867,255.57413 105.083604,252.613152" id="Fill-35" fill="#18806E" sketch:type="MSShapeGroup" mask="url(#mask-2)"></path>
                    <path d="M73.200584,277.77097 C70.4653537,275.697235 70.0768565,271.906763 69.8248584,271.938262 C68.3968687,272.132511 73.6048311,271.549765 76.3453113,273.62875 C79.0752916,275.697235 79.7472868,279.408958 79.715787,279.450958 C79.6895372,279.498208 75.9305643,279.844705 73.200584,277.77097" id="Fill-36" fill="#18806E" sketch:type="MSShapeGroup" mask="url(#mask-2)"></path>
                    <path d="M68.5858673,298.083074 C65.3308908,297.006832 63.7454022,293.536607 63.5091539,293.657356 C62.2281632,294.297851 66.9741289,292.066617 70.2291054,293.153359 C73.484082,294.240101 75.3163187,297.531828 75.2953189,297.579077 C75.2900689,297.636827 71.8355938,299.175066 68.5858673,298.083074" id="Fill-37" fill="#18806E" sketch:type="MSShapeGroup" mask="url(#mask-2)"></path>
                    <path d="M75.1850697,270.043026 C73.2845834,267.187047 74.166577,263.480573 73.9093289,263.428074 C72.502339,263.149826 77.6158022,264.310067 79.5162884,267.166047 C81.4167747,270.022026 80.8340289,273.744249 80.7867793,273.775749 C80.7447796,273.812499 77.080306,272.899005 75.1850697,270.043026" id="Fill-38" fill="#18806E" sketch:type="MSShapeGroup" mask="url(#mask-2)"></path>
                    <path d="M38.0993372,276.736728 C40.4198205,274.211496 44.2365429,274.185246 44.2155431,273.917498 C44.1525436,272.484258 44.2522928,277.728971 41.9318096,280.254202 C39.6113263,282.784684 35.8523534,283.104932 35.8156037,283.068182 C35.768354,283.041932 35.778854,279.26196 38.0993372,276.736728" id="Fill-39" fill="#18806E" sketch:type="MSShapeGroup" mask="url(#mask-2)"></path>
                    <path d="M53.5394758,246.381447 C55.8547091,243.861465 59.6714316,243.829965 59.6556817,243.562217 C59.5926822,242.128977 59.6871815,247.37894 57.3666982,249.898921 C55.046215,252.429403 51.292492,252.749651 51.2557423,252.712901 C51.2084927,252.681401 51.2189926,248.906679 53.5394758,246.381447" id="Fill-40" fill="#18806E" sketch:type="MSShapeGroup" mask="url(#mask-2)"></path>
                    <path d="M6.18481745,257.527116 C8.50530071,255.001885 12.3167732,254.975635 12.3010233,254.707887 C12.2380238,253.274647 12.3325231,258.519359 10.0120398,261.044591 C7.69680654,263.575073 3.93783366,263.89532 3.90108393,263.858571 C3.85383427,263.821821 3.86433419,260.052348 6.18481745,257.527116" id="Fill-41" fill="#18806E" sketch:type="MSShapeGroup" mask="url(#mask-2)"></path>
                    <path d="M224.509742,247.095442 L221.737762,247.095442 L218.960532,247.095442 L221.737762,247.095442 L224.509742,247.095442" id="Fill-42" fill="#18806E" sketch:type="MSShapeGroup" mask="url(#mask-2)"></path>
                </g>
            </g>
        </g>
    </g>
</svg>