<?xml version="1.0" encoding="utf-8"?>
<!-- Generator: Adobe Illustrator 16.0.0, SVG Export Plug-In . SVG Version: 6.00 Build 0)  -->
<!DOCTYPE svg PUBLIC "-//W3C//DTD SVG 1.1//EN" "http://www.w3.org/Graphics/SVG/1.1/DTD/svg11.dtd">
<svg version="1.1" id="Layer_1" xmlns="http://www.w3.org/2000/svg" xmlns:xlink="http://www.w3.org/1999/xlink" x="0px" y="0px"
	 width="565px" height="565px" viewBox="0 0 565 565" enable-background="new 0 0 565 565" xml:space="preserve">
<g>
	<g>
		<defs>
			<circle id="SVGID_1_" cx="282.5" cy="282.5" r="273.5"/>
		</defs>
		<clipPath id="SVGID_2_">
			<use xlink:href="#SVGID_1_"  overflow="visible"/>
		</clipPath>
		<rect x="-716.954" y="-768.998" clip-path="url(#SVGID_2_)" fill="#B3C4C7" width="827.58" height="1266.911"/>
		<rect x="108.074" y="63.735" clip-path="url(#SVGID_2_)" fill="#E5C4BB" width="613.051" height="434.178"/>
		<rect x="110.618" y="-176.366" clip-path="url(#SVGID_2_)" fill="#603913" width="613.054" height="240.047"/>
		<rect x="225.325" y="171.01" clip-path="url(#SVGID_2_)" fill="#603913" width="457.494" height="302.353"/>
		<rect x="225.325" y="171.01" clip-path="url(#SVGID_2_)" fill="#3E2312" width="457.494" height="27.353"/>
		<rect x="-663.267" y="58.625" clip-path="url(#SVGID_2_)" fill="#808285" width="720.298" height="17.887"/>
		<rect x="-478.08" y="380.464" clip-path="url(#SVGID_2_)" fill="#009E8F" width="584.919" height="91.951"/>
		
			<line opacity="0.6" clip-path="url(#SVGID_2_)" fill="none" stroke="#E5C4BB" stroke-width="7.3427" stroke-linecap="round" stroke-miterlimit="10" x1="193.008" y1="291.962" x2="214.382" y2="291.962"/>
		
			<line opacity="0.6" clip-path="url(#SVGID_2_)" fill="none" stroke="#E5C4BB" stroke-width="7.3427" stroke-linecap="round" stroke-miterlimit="10" x1="134.147" y1="107.322" x2="155.521" y2="107.322"/>
		
			<line opacity="0.6" clip-path="url(#SVGID_2_)" fill="none" stroke="#E5C4BB" stroke-width="7.3427" stroke-linecap="round" stroke-miterlimit="10" x1="144.66" y1="97.163" x2="166.03" y2="97.163"/>
		
			<line opacity="0.6" clip-path="url(#SVGID_2_)" fill="none" stroke="#E5C4BB" stroke-width="7.3427" stroke-linecap="round" stroke-miterlimit="10" x1="133.099" y1="87.704" x2="154.47" y2="87.704"/>
		
			<line opacity="0.6" clip-path="url(#SVGID_2_)" fill="none" stroke="#E5C4BB" stroke-width="7.3427" stroke-linecap="round" stroke-miterlimit="10" x1="125.391" y1="366.243" x2="146.761" y2="366.243"/>
		<g clip-path="url(#SVGID_2_)">
			<path fill="none" stroke="#3E2312" stroke-width="16.8174" stroke-miterlimit="10" d="M112.424,65.653
				c0,0,12.963-10.865,23.828,0c10.862,10.866,17.515,2.805,20.318,0"/>
			<path fill="none" stroke="#3E2312" stroke-width="16.8174" stroke-miterlimit="10" d="M155.867,65.653
				c0,0,12.963-10.865,23.828,0c10.862,10.866,17.515,2.805,20.318,0"/>
			<path fill="none" stroke="#3E2312" stroke-width="16.8174" stroke-miterlimit="10" d="M199.311,65.653
				c0,0,12.963-10.865,23.828,0c10.862,10.866,17.515,2.805,20.318,0"/>
			<path fill="none" stroke="#3E2312" stroke-width="16.8174" stroke-miterlimit="10" d="M242.754,65.653
				c0,0,12.963-10.865,23.829,0c10.861,10.866,17.514,2.805,20.317,0"/>
			<path fill="none" stroke="#3E2312" stroke-width="16.8174" stroke-miterlimit="10" d="M286.197,65.653
				c0,0,12.963-10.865,23.829,0c10.861,10.866,17.514,2.805,20.317,0"/>
			<path fill="none" stroke="#3E2312" stroke-width="16.8174" stroke-miterlimit="10" d="M329.641,65.653
				c0,0,12.963-10.865,23.829,0c10.861,10.866,17.514,2.805,20.317,0"/>
			<path fill="none" stroke="#3E2312" stroke-width="16.8174" stroke-miterlimit="10" d="M373.084,65.653
				c0,0,12.963-10.865,23.829,0c10.861,10.866,17.514,2.805,20.317,0"/>
			<path fill="none" stroke="#3E2312" stroke-width="16.8174" stroke-miterlimit="10" d="M416.527,65.653
				c0,0,12.963-10.865,23.829,0c10.861,10.866,17.514,2.805,20.317,0"/>
			<path fill="none" stroke="#3E2312" stroke-width="16.8174" stroke-miterlimit="10" d="M459.971,65.653
				c0,0,12.963-10.865,23.829,0c10.865,10.866,17.51,2.805,20.321,0"/>
			<path fill="none" stroke="#3E2312" stroke-width="16.8174" stroke-miterlimit="10" d="M503.422,65.653
				c0,0,12.939-10.865,23.813,0c10.857,10.866,17.506,2.805,20.317,0"/>
			<path fill="none" stroke="#3E2312" stroke-width="16.8174" stroke-miterlimit="10" d="M546.854,65.653
				c0,0,12.954-10.865,23.828,0c10.857,10.866,17.506,2.805,20.317,0"/>
		</g>
		<rect x="-718.192" y="472.407" clip-path="url(#SVGID_2_)" fill="#646563" width="1441.383" height="113.86"/>
		
			<line clip-path="url(#SVGID_2_)" fill="none" stroke="#E5C4BB" stroke-width="7.3427" stroke-linecap="round" stroke-miterlimit="10" x1="177.066" y1="438.591" x2="198.437" y2="438.591"/>
		
			<line opacity="0.6" clip-path="url(#SVGID_2_)" fill="none" stroke="#E5C4BB" stroke-width="7.3427" stroke-linecap="round" stroke-miterlimit="10" x1="187.051" y1="428.61" x2="208.421" y2="428.61"/>
		<rect x="133.794" y="197.306" clip-path="url(#SVGID_2_)" fill="#FFFFFF" width="68.67" height="53.707"/>
		<rect x="133.794" y="251.495" clip-path="url(#SVGID_2_)" fill="#CEC9BD" width="68.67" height="53.707"/>
		<rect x="133.794" y="305.685" clip-path="url(#SVGID_2_)" fill="#FFFFFF" width="68.67" height="53.707"/>
		<rect x="133.794" y="195.973" clip-path="url(#SVGID_2_)" fill="#E95E55" width="68.67" height="16.753"/>
		<rect x="133.794" y="359.002" clip-path="url(#SVGID_2_)" fill="#E95E55" width="68.67" height="8.389"/>
		<path clip-path="url(#SVGID_2_)" fill="#E2E2E0" d="M59.089,403.213"/>
		<path clip-path="url(#SVGID_2_)" fill="#068978" d="M88.37,381.917c0.745-5.135,5.491-8.42,5.258-8.746
			c-1.305-1.739,3.277,4.738,2.54,9.887c-0.75,5.15-5.169,8.754-5.255,8.746C90.832,391.796,87.616,387.065,88.37,381.917z"/>
		<path clip-path="url(#SVGID_2_)" fill="#068978" d="M102.226,395.982c2.613-4.481,8.244-5.748,8.147-6.136
			c-0.552-2.105,1.266,5.615-1.348,10.12c-2.629,4.489-8.077,6.175-8.151,6.136C100.801,406.056,99.593,400.472,102.226,395.982z"/>
		<path clip-path="url(#SVGID_2_)" fill="#068978" d="M53.92,434.094c-4.144-3.138-4.726-8.886-5.114-8.831
			c-2.163,0.295,5.732-0.59,9.88,2.556c4.136,3.138,5.157,8.761,5.106,8.823C63.749,436.711,58.056,437.239,53.92,434.094z"/>
		<path clip-path="url(#SVGID_2_)" fill="#068978" d="M46.931,464.865c-4.929-1.631-7.332-6.889-7.686-6.702
			c-1.945,0.971,5.242-2.408,10.178-0.77c4.929,1.646,7.705,6.641,7.674,6.711C57.085,464.19,51.858,466.52,46.931,464.865z"/>
		<path clip-path="url(#SVGID_2_)" fill="#068978" d="M56.93,422.39c-2.877-4.326-1.542-9.941-1.93-10.02
			c-2.136-0.428,5.611,1.336,8.493,5.662c2.873,4.326,1.992,9.965,1.922,10.011C65.353,428.098,59.804,426.715,56.93,422.39z"/>
		<path clip-path="url(#SVGID_2_)" fill="#068978" d="M0.749,432.532c3.515-3.828,9.293-3.867,9.266-4.271
			c-0.093-2.175,0.051,5.771-3.464,9.6s-9.203,4.318-9.262,4.264C-2.781,442.078-2.766,436.354,0.749,432.532z"/>
		<path clip-path="url(#SVGID_2_)" fill="#068978" d="M24.135,386.546c3.515-3.821,9.293-3.868,9.27-4.272
			c-0.097-2.175,0.047,5.778-3.468,9.601c-3.515,3.828-9.204,4.318-9.262,4.264C20.604,396.091,20.62,390.366,24.135,386.546z"/>
		<path clip-path="url(#SVGID_2_)" fill="#068978" d="M230.145,387.625c0,0-1.879,0-4.201,0c-2.326,0-4.206,0-4.206,0
			s1.88,0,4.206,0C228.266,387.625,230.145,387.625,230.145,387.625z"/>
		
			<line clip-path="url(#SVGID_2_)" fill="none" stroke="#E2E1DE" stroke-width="1.0408" stroke-miterlimit="10" x1="133.334" y1="225.333" x2="202.668" y2="225.333"/>
		
			<line clip-path="url(#SVGID_2_)" fill="none" stroke="#E2E1DE" stroke-width="1.0408" stroke-miterlimit="10" x1="133.334" y1="237.333" x2="202.668" y2="237.333"/>
		<g clip-path="url(#SVGID_2_)">
			
				<line fill="none" stroke="#E2E1DE" stroke-width="0.3515" stroke-miterlimit="10" x1="140.085" y1="312.667" x2="165.387" y2="312.667"/>
			
				<line fill="none" stroke="#E2E1DE" stroke-width="0.3515" stroke-miterlimit="10" x1="140.085" y1="316.767" x2="165.387" y2="316.767"/>
			
				<line fill="none" stroke="#E2E1DE" stroke-width="0.3515" stroke-miterlimit="10" x1="140.085" y1="320.867" x2="165.387" y2="320.867"/>
			
				<line fill="none" stroke="#E2E1DE" stroke-width="0.3515" stroke-miterlimit="10" x1="140.085" y1="324.967" x2="165.387" y2="324.967"/>
			
				<line fill="none" stroke="#E2E1DE" stroke-width="0.3515" stroke-miterlimit="10" x1="140.085" y1="329.067" x2="165.387" y2="329.067"/>
			
				<line fill="none" stroke="#E2E1DE" stroke-width="0.3515" stroke-miterlimit="10" x1="140.085" y1="333.167" x2="165.387" y2="333.167"/>
			
				<line fill="none" stroke="#E2E1DE" stroke-width="0.3515" stroke-miterlimit="10" x1="140.085" y1="337.267" x2="165.387" y2="337.267"/>
			
				<line fill="none" stroke="#E2E1DE" stroke-width="0.3515" stroke-miterlimit="10" x1="140.085" y1="341.367" x2="165.387" y2="341.367"/>
			
				<line fill="none" stroke="#E2E1DE" stroke-width="0.3515" stroke-miterlimit="10" x1="140.085" y1="345.467" x2="165.387" y2="345.467"/>
			
				<line fill="none" stroke="#E2E1DE" stroke-width="0.3515" stroke-miterlimit="10" x1="140.085" y1="349.567" x2="165.387" y2="349.567"/>
			
				<line fill="none" stroke="#E2E1DE" stroke-width="0.3515" stroke-miterlimit="10" x1="140.085" y1="353.667" x2="165.387" y2="353.667"/>
		</g>
		<g clip-path="url(#SVGID_2_)">
			
				<line fill="none" stroke="#E2E1DE" stroke-width="0.3515" stroke-miterlimit="10" x1="170.195" y1="312.667" x2="195.497" y2="312.667"/>
			
				<line fill="none" stroke="#E2E1DE" stroke-width="0.3515" stroke-miterlimit="10" x1="170.195" y1="316.767" x2="195.497" y2="316.767"/>
			
				<line fill="none" stroke="#E2E1DE" stroke-width="0.3515" stroke-miterlimit="10" x1="170.195" y1="320.867" x2="195.497" y2="320.867"/>
			
				<line fill="none" stroke="#E2E1DE" stroke-width="0.3515" stroke-miterlimit="10" x1="170.195" y1="324.967" x2="195.497" y2="324.967"/>
			
				<line fill="none" stroke="#E2E1DE" stroke-width="0.3515" stroke-miterlimit="10" x1="170.195" y1="329.067" x2="195.497" y2="329.067"/>
			
				<line fill="none" stroke="#E2E1DE" stroke-width="0.3515" stroke-miterlimit="10" x1="170.195" y1="333.167" x2="195.497" y2="333.167"/>
			
				<line fill="none" stroke="#E2E1DE" stroke-width="0.3515" stroke-miterlimit="10" x1="170.195" y1="337.267" x2="195.497" y2="337.267"/>
			
				<line fill="none" stroke="#E2E1DE" stroke-width="0.3515" stroke-miterlimit="10" x1="170.195" y1="341.367" x2="195.497" y2="341.367"/>
			
				<line fill="none" stroke="#E2E1DE" stroke-width="0.3515" stroke-miterlimit="10" x1="170.195" y1="345.467" x2="195.497" y2="345.467"/>
			
				<line fill="none" stroke="#E2E1DE" stroke-width="0.3515" stroke-miterlimit="10" x1="170.195" y1="349.567" x2="195.497" y2="349.567"/>
			
				<line fill="none" stroke="#E2E1DE" stroke-width="0.3515" stroke-miterlimit="10" x1="170.195" y1="353.667" x2="195.497" y2="353.667"/>
		</g>
		<g opacity="0.3" clip-path="url(#SVGID_2_)">
			<g>
				<rect x="255.371" y="390.421" fill="#3E2312" width="144" height="8.412"/>
			</g>
			<g>
				<polygon fill="#3E2312" points="352.774,474.154 292.058,399.399 298.57,394.079 363.737,473.96 				"/>
			</g>
			<g>
				<polygon fill="#3E2312" points="293.615,473.152 281.46,473.215 348.032,391.229 354.716,396.65 				"/>
			</g>
		</g>
		<g opacity="0.3" clip-path="url(#SVGID_2_)">
			<g>
				<rect x="420.741" y="390.421" fill="#3E2312" width="143.992" height="8.412"/>
			</g>
			<g>
				<polygon fill="#3E2312" points="518.133,474.154 457.428,399.399 463.94,394.079 529.115,473.96 				"/>
			</g>
			<g>
				<polygon fill="#3E2312" points="458.984,473.152 446.83,473.215 513.395,391.229 520.074,396.65 				"/>
			</g>
		</g>
		<g clip-path="url(#SVGID_2_)">
			<path fill="#FCE5DF" d="M225.827,361.33v-35.329c0-18.777,13.372-34,29.866-34h55.047c16.494,0,29.865,15.223,29.865,34v35.329"
				/>
			<path fill="#F4F4F4" d="M340.606,325.999v27.33H228.17c-0.791,0-1.572,0.03-2.345,0.1v-27.43c0-18.78,13.378-34,29.865-34h55.051
				C327.237,291.999,340.606,307.219,340.606,325.999z"/>
			<path fill="#FFFFFF" d="M248.221,317.501c0,0-22.396,0.855-22.396,35.928l114.781-0.1c0,0,5.996-29.328-18.16-38.328
				l-15.812-22.5l-45.677-1L248.221,317.501z"/>
			<path fill="none" stroke="#355BA9" stroke-width="9" stroke-miterlimit="10" d="M262.72,388.713c0,0-11.354,48.49,10.561,78.602"
				/>
			<path fill="none" stroke="#355BA9" stroke-width="9" stroke-miterlimit="10" d="M313.006,388.713c0,0,11.354,48.49-10.561,78.602
				"/>
			<path fill="#355BA9" d="M340.606,353.329v8c0,18.78-13.369,34-29.865,34H255.69c-16.487,0-29.865-15.22-29.865-34v-7.9
				c0.772-0.069,1.554-0.1,2.345-0.1c0,0,11.711,7.337,54.46,7.337S340.606,353.329,340.606,353.329z"/>
			<path fill="#3F403F" d="M248.001,291.999"/>
			<path fill="#A09F9F" d="M318.664,390.337h-67.333c-12-71.67,2.332-98.666,2.332-98.666l7.34-0.08
				c-0.57,2.54-1.74,9.95-1.74,28.08h51.4c0,0-0.126-2.542-4.663-27.777l9.54-0.1C326.87,357.794,318.664,390.337,318.664,390.337z"
				/>
			<g>
				<path fill="#EAD7D3" d="M288.331,297.835c0,2.67-2.164,4.834-4.834,4.834l0,0c-2.669,0-4.833-2.164-4.833-4.834l0,0
					c0-2.669,2.164-4.833,4.833-4.833l0,0C286.167,293.002,288.331,295.166,288.331,297.835L288.331,297.835z"/>
				<g>
					<circle fill="#FCE5DF" cx="282.337" cy="261.668" r="34.789"/>
					<path fill="#3F403F" d="M294.71,275.584c0,1.909-0.821,3.458-1.833,3.458c0,0-4.878,1.127-10.212,1.127
						s-9.788-1.127-9.788-1.127c-1.013,0-1.834-1.549-1.834-3.458l0,0c0-1.91,0.821-3.459,1.834-3.459h20
						C293.889,272.125,294.71,273.674,294.71,275.584L294.71,275.584z"/>
					<ellipse fill="#E5C4BB" cx="282.751" cy="268.416" rx="9.75" ry="5.75"/>
					<ellipse fill="#E5C4BB" cx="272.626" cy="259.479" rx="2.375" ry="1.125"/>
					<ellipse fill="#E5C4BB" cx="292.685" cy="259.626" rx="2.375" ry="1.125"/>
					<ellipse fill="#3F403F" cx="279.252" cy="259.833" rx="1.202" ry="2.604"/>
					<ellipse fill="#3F403F" cx="286.418" cy="259.833" rx="1.317" ry="2.854"/>
					<path fill="#FCE5DF" d="M269.876,263.291c0,0,10-7.291,25.25-0.701"/>
					<path fill="none" stroke="#3F403F" stroke-width="2" stroke-miterlimit="10" d="M272.956,255.435c0,0,1.605-4.498,6.203-2.663"
						/>
					<path fill="none" stroke="#3F403F" stroke-width="2" stroke-miterlimit="10" d="M285.077,252.483c0,0,4.316-2.045,6.27,2.504"
						/>
					<path fill="#3F403F" d="M264.043,254.416c0,5.247-4.253,9.5-9.5,9.5l0,0c-5.247,0-9.5-4.253-9.5-9.5v-0.625
						c0-5.247,4.253-9.5,9.5-9.5l0,0c5.247,0,9.5,4.253,9.5,9.5V254.416z"/>
					<path fill="#FCE5DF" d="M252.384,262.908c0,2.306-1.869,4.175-4.175,4.175l0,0c-2.306,0-4.175-1.869-4.175-4.175v-0.275
						c0-2.306,1.869-4.175,4.175-4.175l0,0c2.306,0,4.175,1.869,4.175,4.175V262.908z"/>
					<path fill="#FCE5DF" d="M321.009,262.908c0,2.306-1.869,4.175-4.175,4.175l0,0c-2.306,0-4.175-1.869-4.175-4.175v-0.275
						c0-2.306,1.869-4.175,4.175-4.175l0,0c2.306,0,4.175,1.869,4.175,4.175V262.908z"/>
					<path fill="#3F403F" d="M320.835,254.332c0,5.247-4.253,9.5-9.5,9.5l0,0c-5.247,0-9.5-4.253-9.5-9.5v-0.625
						c0-5.247,4.253-9.5,9.5-9.5l0,0c5.247,0,9.5,4.253,9.5,9.5V254.332z"/>
				</g>
			</g>
			<path fill="#EAD7D3" d="M280.247,281.251c0,0,3,3.25,5.75,0.5"/>
			<path fill="#3F403F" d="M272.997,462.501c0,0-20.5-0.5-26.5,9h31.5C277.997,471.501,279.997,461.501,272.997,462.501z"/>
			<path fill="#3F403F" d="M295.997,470.001c0,0,0-20.5,29.5,0l-30,2"/>
			<path fill="#F4F4F4" d="M233.728,302.001c0,0-22.4,22.5-7.906,48.5"/>
			<path fill="#F4F4F4" d="M327.717,297.501c0,0,24.156,16.5,13.177,47.5"/>
		</g>
		<g opacity="0.3" clip-path="url(#SVGID_2_)">
			<defs>
				<rect id="SVGID_3_" x="225.325" y="171.01" opacity="0.3" width="457.494" height="302.353"/>
			</defs>
			<clipPath id="SVGID_4_">
				<use xlink:href="#SVGID_3_"  overflow="visible"/>
			</clipPath>
		</g>
		<g opacity="0.3" clip-path="url(#SVGID_2_)">
			<rect x="226.997" y="118.001" fill="none" width="301" height="37"/>
			<text transform="matrix(1 0 0 1 272.1455 129.3604)" fill="#3E2312" font-family="'PlutoBold'" font-size="16">– HAMBURGER DO LEO –</text>
		</g>
		<g opacity="0.3" clip-path="url(#SVGID_2_)">
			<rect x="259.997" y="349.002" fill="none" width="49" height="29"/>
			<text transform="matrix(1 0 0 1 267.4492 360.3613)" fill="#FFFFFF" font-family="'PlutoBold'" font-size="16">LEO</text>
		</g>
		<polygon clip-path="url(#SVGID_2_)" fill="#E2E1DE" points="141.73,221.726 141.73,217.336 143.03,218.636 143.767,217.899 
			141.959,216.092 142.011,216.04 141.274,215.304 141.223,215.355 141.144,215.276 140.407,216.013 140.486,216.092 
			138.655,217.926 139.392,218.662 140.689,217.363 140.689,221.726 		"/>
		<polygon clip-path="url(#SVGID_2_)" fill="#E2E1DE" points="144.123,230.919 139.733,230.919 141.033,229.619 140.297,228.883 
			138.489,230.69 138.438,230.639 137.701,231.375 137.753,231.427 137.674,231.506 138.41,232.242 138.489,232.163 
			140.323,233.994 141.06,233.258 139.761,231.96 144.123,231.96 		"/>
		<polygon clip-path="url(#SVGID_2_)" fill="#E2E1DE" points="192.111,245.333 196.501,245.333 195.201,246.633 195.938,247.369 
			197.745,245.562 197.797,245.613 198.533,244.877 198.481,244.825 198.561,244.746 197.824,244.01 197.745,244.089 
			195.911,242.258 195.175,242.994 196.474,244.292 192.111,244.292 		"/>
		<g opacity="0.3" clip-path="url(#SVGID_2_)">
			<rect x="146.747" y="216.876" fill="none" width="51" height="8.875"/>
			<text transform="matrix(1 0 0 1 148.6992 221.2588)" font-family="'SignPainter-HouseScript'" font-size="7">Estação de metrô</text>
		</g>
		<g opacity="0.3" clip-path="url(#SVGID_2_)">
			<rect x="146.747" y="229.126" fill="none" width="51" height="8.875"/>
			<text transform="matrix(1 0 0 1 150.3379 233.5088)" font-family="'SignPainter-HouseScript'" font-size="7">praça da árvore</text>
		</g>
		<g opacity="0.3" clip-path="url(#SVGID_2_)">
			<rect x="136.997" y="242.376" fill="none" width="51" height="8.875"/>
			<text transform="matrix(1 0 0 1 146.9014 246.7588)" font-family="'SignPainter-HouseScript'" font-size="7">feira de rua</text>
		</g>
		<use xlink:href="#SVGID_1_"  overflow="visible" fill="none" stroke="#A6A29E" stroke-width="18" stroke-miterlimit="10"/>
	</g>
	<g>
		<g>
			<path fill-rule="evenodd" clip-rule="evenodd" fill="#E95E55" d="M291.185,180.797c-4.557-4.093-11.562-3.717-15.656,0.837
				c-4.09,4.554-3.715,11.56,0.84,15.652l8.24,7.408l7.414-8.243C296.111,191.895,295.734,184.888,291.185,180.797z
				 M284.106,194.417c-3.109,0.236-5.824-2.089-6.062-5.197c-0.24-3.106,2.088-5.825,5.196-6.064
				c3.109-0.236,5.825,2.09,6.063,5.199C289.541,191.464,287.216,194.177,284.106,194.417z"/>
		</g>
	</g>
</g>
</svg>
