<?xml version="1.0" encoding="UTF-8" standalone="no"?>
<svg width="215px" height="215px" viewBox="0 0 215 215" version="1.1" xmlns="http://www.w3.org/2000/svg" xmlns:xlink="http://www.w3.org/1999/xlink" xmlns:sketch="http://www.bohemiancoding.com/sketch/ns">
    <!-- Generator: bin/sketchtool 1.4 (305) - http://www.bohemiancoding.com/sketch -->
    <title>Ilustração</title>
    <desc>Created with bin/sketchtool.</desc>
    <defs>
        <circle id="path-1" cx="100.5" cy="100.5" r="100.5"></circle>
    </defs>
    <g id="Page-1" stroke="none" stroke-width="1" fill="none" fill-rule="evenodd" sketch:type="MSPage">
        <g id="Adote-um-mapa02" sketch:type="MSArtboardGroup" transform="translate(-381.000000, -177.000000)">
            <g id="Ilustração" sketch:type="MSLayerGroup" transform="translate(388.000000, 184.000000)">
                <mask id="mask-2" sketch:name="Mask" fill="white">
                    <use xlink:href="#path-1"></use>
                </mask>
                <use id="Mask" stroke="#6C9691" stroke-width="7" fill="#CFEBA9" sketch:type="MSShapeGroup" xlink:href="#path-1"></use>
                <g id="Imported-Layers" mask="url(#mask-2)">
                    <g transform="translate(-6.883562, -7.571918)">
                        <path d="M131.1525,193.396995 C131.258966,194.023177 131.29889,194.60939 131.285582,195.128988 L131.272274,195.368802 L125.709438,195.528679 L125.669514,195.355479 C125.310192,193.277088 124.990795,191.225342 124.684705,189.160274 C122.448925,173.545692 121.863363,158.3308 122.03637,142.503049 C122.102911,136.241228 131.804603,136.227905 131.738062,142.503049 C131.538438,159.423288 128.264616,176.556695 131.1525,193.396995" id="Fill-1" fill="#3C3C3B" sketch:type="MSShapeGroup"></path>
                        <path d="M131.52513,195.355479 L131.272274,195.368802 L125.709438,195.528679 L111.12363,195.968338 L124.684705,189.160274 L124.857712,189.080336 L131.285582,195.128988 L131.52513,195.355479" id="Fill-2" fill="#3C3C3B" sketch:type="MSShapeGroup"></path>
                        <path d="M50.1267384,0.446321255 L76.7431767,0.446321255 L76.7431767,195.643257 L50.1267384,195.643257 L50.1267384,0.446321255 Z" id="Fill-3" fill="#A7A68E" sketch:type="MSShapeGroup"></path>
                        <path d="M70.0890671,195.643257 L76.4104712,195.643257 L76.4104712,195.959012 L70.0890671,195.959012 L70.0890671,195.643257 Z" id="Fill-4" fill="#B0AD9E" sketch:type="MSShapeGroup"></path>
                        <path d="M70.0890671,195.643257 L76.4104712,195.643257 L76.4104712,122.126818 L70.0890671,122.126818 L70.0890671,195.643257 Z M70.0890671,45.2982766 L76.4104712,45.2982766 L76.4104712,0.446321255 L70.0890671,0.446321255 L70.0890671,45.2982766 Z" id="Fill-5" fill="#92927D" sketch:type="MSShapeGroup"></path>
                        <path d="M121.327042,95.2596111 C107.362727,94.0672006 92.6265363,87.2218316 88.832363,73.276624 C87.4802479,68.3084688 82.6294021,68.9146664 83.9841788,73.8948122 C88.7618295,91.4545559 103.818749,101.758582 121.327042,103.253425 C126.458691,103.691752 126.417436,95.6939417 121.327042,95.2596111" id="Fill-6" fill="#7F664B" sketch:type="MSShapeGroup"></path>
                        <path d="M70.0890671,45.2982766 L76.4104712,45.2982766 L76.4104712,122.128151 L70.0890671,122.128151 L70.0890671,45.2982766 Z" id="Fill-9" fill="#8B8A77" sketch:type="MSShapeGroup"></path>
                        <path d="M52.5523973,44.6321255 L77.8380137,44.6321255 L77.8380137,98.1453778 L52.5523973,98.1453778 L52.5523973,44.6321255 Z" id="Fill-10" fill="#FFFFFF" sketch:type="MSShapeGroup"></path>
                        <path d="M52.5523973,44.6321255 L77.8380137,44.6321255 L77.8380137,54.4032302 L52.5523973,54.4032302 L52.5523973,44.6321255 Z" id="Fill-11" fill="#DC494D" sketch:type="MSShapeGroup"></path>
                        <path d="M52.5523973,75.3173663 L77.8380137,75.3173663 L77.8380137,98.8538179 L52.5523973,98.8538179 L52.5523973,75.3173663 Z" id="Fill-12" fill="#D8D1C4" sketch:type="MSShapeGroup"></path>
                        <path d="M159.841028,123.275263 C159.841028,126.811193 156.97843,129.678308 153.44776,129.678308 L135.15162,129.678308 C131.619618,129.678308 128.757021,126.811193 128.757021,123.275263 L128.757021,93.2238533 C128.757021,89.6879231 131.619618,86.822141 135.15162,86.822141 L153.44776,86.822141 C156.97843,86.822141 159.841028,89.6879231 159.841028,93.2238533 L159.841028,123.275263" id="Fill-13" fill="#50341C" sketch:type="MSShapeGroup"></path>
                        <path d="M151.5823,94.3016858 C151.927199,95.2755988 152.117272,96.3507667 152.117272,97.480559 L150.858514,135.006184 C150.858514,139.421434 147.941973,142.999998 144.341927,142.999998 L126.957229,142.999998 C123.357183,142.999998 120.439384,139.421434 120.439384,135.006184 L121.698141,97.480559 C121.698141,93.0666416 124.615941,89.4867455 128.215987,89.4867455 L145.600685,89.4867455 C148.27932,89.4867455 150.580329,91.4678789 151.5823,94.3016858" id="Fill-14" fill="#DC494D" sketch:type="MSShapeGroup"></path>
                        <path d="M150.865965,135.416533 C150.648489,142.817472 143.776842,148.76487 135.31792,148.76487 C131.024274,148.76487 127.135375,147.232722 124.321775,144.742649 C121.59728,142.337844 119.890696,139.055051 119.781958,135.416533 L150.865965,135.416533" id="Fill-16" fill="#4D4D4C" sketch:type="MSShapeGroup"></path>
                        <path d="M110.937315,117.030762 L131.988054,114.191058 L136.032422,139.179719 L114.983014,142.019423 L110.937315,117.030762 Z" id="Fill-17" fill="#FFFFFF" sketch:type="MSShapeGroup"></path>
                        <path d="M155.539812,53.855654 C155.539812,64.3408727 147.049168,72.8409611 136.575599,72.8409611 C126.102031,72.8409611 117.611387,64.3408727 117.611387,53.855654 C117.611387,43.3704353 126.102031,34.8703469 136.575599,34.8703469 C147.049168,34.8703469 155.539812,43.3704353 155.539812,53.855654" id="Fill-18" fill="#343433" sketch:type="MSShapeGroup"></path>
                        <path d="M155.539812,53.855654 C155.539812,64.3408727 147.049168,72.8409611 136.575599,72.8409611 C126.102031,72.8409611 141.615422,63.0578657 141.615422,52.5726469 C141.615422,42.0860959 126.102031,34.8703469 136.575599,34.8703469 C147.049168,34.8703469 155.539812,43.3704353 155.539812,53.855654" id="Fill-19" fill="#272826" sketch:type="MSShapeGroup"></path>
                        <path d="M133.747603,90.7564295 C124.964178,90.7564295 122.18276,95.9390853 122.209377,101.015157 L121.344342,112.139881 C120.690909,112.033297 120.053445,111.646929 119.586327,110.940809 C113.758658,102.107645 116.646541,90.0236633 127.464792,87.6121962 C130.806486,86.8661069 137.181123,90.7564295 133.747603,90.7564295" id="Fill-22" fill="#50341C" sketch:type="MSShapeGroup"></path>
                        <path d="M138.959101,91.3319841 C138.959101,92.7055877 136.910966,93.8180601 134.383736,93.8180601 C131.859166,93.8180601 129.809701,92.7055877 129.809701,91.3319841 L129.809701,80.2045957 C129.809701,78.8323243 131.859166,77.719852 134.383736,77.719852 C136.910966,77.719852 138.959101,78.8323243 138.959101,80.2045957 L138.959101,91.3319841" id="Fill-23" fill="#745D47" sketch:type="MSShapeGroup"></path>
                        <path d="M144.851981,87.5269289 C134.028406,89.9397282 132.665645,101.254971 138.48799,110.081474 C140.380419,112.94992 144.883921,110.313294 143.08598,107.391555 C139.818812,102.08766 137.656227,90.6804883 151.130799,90.6804883 C154.564319,90.6804883 148.195005,86.7821719 144.851981,87.5269289" id="Fill-24" fill="#50341C" sketch:type="MSShapeGroup"></path>
                        <path d="M149.575068,104.190033 C148.879048,99.1006385 141.186897,101.276288 141.874932,106.313723 C142.982176,114.424779 136.169699,124.804746 128.86881,126.125057 C123.805032,127.040349 124.896306,131.333027 129.929475,130.423065 C142.057255,128.231427 151.250573,116.460537 149.575068,104.190033" id="Fill-25" fill="#7F664B" sketch:type="MSShapeGroup"></path>
                        <path d="M140.401712,104.585727 L140.401712,98.5903668 C140.401712,95.5553822 142.85841,93.09462 145.891353,93.09462 C148.921634,93.09462 151.380993,95.5553822 151.380993,98.5903668 L151.380993,104.585727" id="Fill-26" fill="#BB4350" sketch:type="MSShapeGroup"></path>
                        <path d="M146.556764,68.5989107 C146.556764,70.0311357 145.397618,71.1902386 143.968315,71.1902386 C142.537682,71.1902386 141.379866,70.0311357 141.379866,68.5989107 C141.379866,67.1680181 142.537682,66.0075829 143.968315,66.0075829 C145.397618,66.0075829 146.556764,67.1680181 146.556764,68.5989107" id="Fill-27" fill="#715A44" sketch:type="MSShapeGroup"></path>
                        <path d="M139.66976,80.0980115 C138.019541,81.2171454 136.023308,81.8699735 133.880685,81.8699735 C133.082192,81.8699735 132.297007,81.7767123 131.551747,81.603513 C131.937685,81.6568051 136.196315,82.203049 139.66976,80.0980115" id="Fill-28" fill="#7F664B" sketch:type="MSShapeGroup"></path>
                        <path d="M131.551747,81.603513 L131.52513,81.603513 C126.947103,80.5376712 123.52689,76.4208573 123.52689,71.504662 L123.52689,55.3704817 L139.403596,55.2638975 L139.510062,73.6096995 C139.510062,73.6096995 138.352247,81.576867 131.551747,81.603513" id="Fill-29" fill="#7F664B" sketch:type="MSShapeGroup"></path>
                        <path d="M144.194555,72.3173663 C144.128014,73.3698851 143.888466,74.3691118 143.515836,75.3017234 C143.715459,74.7288334 143.888466,74.1159744 144.00824,73.4365002 C144.074781,73.0634556 144.141322,72.6770879 144.194555,72.3173663" id="Fill-30" fill="#7F664B" sketch:type="MSShapeGroup"></path>
                        <path d="M153.289392,190.132855 C144.298359,179.185327 144.159953,158.484015 144.247788,144.672037 C144.287712,138.197048 134.590013,138.327614 134.550088,144.790612 C134.446284,161.558968 137.071996,178.525837 147.856977,191.657008 C151.911991,196.594521 157.307143,195.025068 153.289392,190.132855" id="Fill-31" fill="#4D4D4C" sketch:type="MSShapeGroup"></path>
                        <path d="M150.53459,188.642008 L136.796516,195.519353 L157.203339,194.913155 L150.53459,188.642008" id="Fill-32" fill="#4D4D4C" sketch:type="MSShapeGroup"></path>
                        <path d="M131.418664,128.151489 C131.418664,129.990066 129.780423,131.482245 127.758904,131.482245 C125.737386,131.482245 124.099144,129.990066 124.099144,128.151489 C124.099144,126.31158 125.737386,124.820734 127.758904,124.820734 C129.780423,124.820734 131.418664,126.31158 131.418664,128.151489" id="Fill-33" fill="#7F664B" sketch:type="MSShapeGroup"></path>
                        <path d="M0.278141781,194.405548 L199.013771,194.405548 L199.013771,217.942 L0.278141781,217.942 L0.278141781,194.405548 Z" id="Fill-34" fill="#636462" sketch:type="MSShapeGroup"></path>
                        <path d="M144.234479,58.1150243 L144.234479,71.504662 C144.234479,71.7711224 144.221171,72.0509059 144.194555,72.3173663 C144.141322,72.6770879 144.074781,73.0634556 144.00824,73.4365002 C143.888466,74.1159744 143.715459,74.7288334 143.515836,75.3017234 L143.40937,75.5548608 C142.890349,76.7805789 142.131781,77.8997128 141.200205,78.8323243 C140.734418,79.2986301 140.228705,79.7249669 139.66976,80.0980115 C136.196315,82.203049 131.937685,81.6568051 131.551747,81.603513 C138.352247,81.576867 139.510062,73.6096995 139.510062,73.6096995 L139.403596,55.2638975 L141.373212,55.2505745 C144.234479,55.2505745 144.234479,58.1150243 144.234479,58.1150243" id="Fill-35" fill="#715A44" sketch:type="MSShapeGroup"></path>
                        <path d="M141.200205,78.8323243 C142.131781,77.8997128 142.890349,76.7805789 143.40937,75.5548608 C142.570952,77.7531595 141.200205,79.1787229 139.66976,80.0980115 C140.228705,79.7249669 140.734418,79.2986301 141.200205,78.8323243" id="Fill-36" fill="#715A44" sketch:type="MSShapeGroup"></path>
                        <path d="M128.759682,67.4198232 C128.759682,67.9260981 128.522796,68.3364472 128.231346,68.3364472 C127.941227,68.3364472 127.70434,67.9260981 127.70434,67.4198232 C127.70434,66.9135484 127.941227,66.5045316 128.231346,66.5045316 C128.522796,66.5045316 128.759682,66.9135484 128.759682,67.4198232" id="Fill-37" fill="#272826" sketch:type="MSShapeGroup"></path>
                        <path d="M133.27383,67.3638665 C133.27383,67.8701414 133.001012,68.2804905 132.668306,68.2804905 C132.331608,68.2804905 132.060121,67.8701414 132.060121,67.3638665 C132.060121,66.8575917 132.331608,66.4485749 132.668306,66.4485749 C133.001012,66.4485749 133.27383,66.8575917 133.27383,67.3638665" id="Fill-38" fill="#272826" sketch:type="MSShapeGroup"></path>
                        <path d="M125.984918,67.4211555 C125.126538,67.4211555 125.126538,68.7534578 125.984918,68.7534578 C126.841968,68.7534578 126.841968,67.4211555 125.984918,67.4211555" id="Fill-39" fill="#624F3D" sketch:type="MSShapeGroup"></path>
                        <path d="M134.578036,67.5317366 C133.719655,67.5317366 133.719655,68.8640389 134.578036,68.8640389 C135.436416,68.8640389 135.436416,67.5317366 134.578036,67.5317366" id="Fill-40" fill="#624F3D" sketch:type="MSShapeGroup"></path>
                        <path d="M127.110794,63.9998034 L126.90984,63.9158683 L127.108132,64.0064649 L127.110794,63.9998034 L126.90984,63.9158683 L127.108132,64.0064649 C127.110794,63.9958065 127.205282,63.8052872 127.387605,63.6400817 C127.57392,63.4762086 127.820122,63.3269907 128.244654,63.3243261 L128.450932,63.3363168 C128.780975,63.3736213 129.077749,63.1378038 129.115012,62.8087251 C129.153605,62.4809788 128.916719,62.1825431 128.589337,62.1452386 L128.244654,62.1252541 C127.448823,62.1212572 126.856607,62.4743173 126.513255,62.816719 C126.16591,63.1617852 126.026174,63.4881993 126.006212,63.5348299 C125.878453,63.8399271 126.020851,64.1916549 126.325609,64.3195559 C126.630367,64.4487892 126.981704,64.3049006 127.110794,63.9998034" id="Fill-41" fill="#272826" sketch:type="MSShapeGroup"></path>
                        <path d="M132.093391,63.2177419 L132.008218,63.0059059 L132.086737,63.2217388 L132.093391,63.2177419 L132.008218,63.0059059 L132.086737,63.2217388 C132.093391,63.2177419 132.258413,63.1617852 132.468683,63.1631175 C132.769449,63.1724437 133.122116,63.2337296 133.504062,63.7133584 C133.709009,63.9744896 134.084301,64.0211202 134.345142,63.8172779 C134.607314,63.614768 134.653892,63.2377265 134.450277,62.9765952 C133.842091,62.1812108 133.024966,61.9547194 132.468683,61.9640455 C132.005557,61.9653778 131.696806,62.0866173 131.651558,62.1039373 C131.342808,62.2265091 131.193755,62.5742399 131.316191,62.8820018 C131.438627,63.1897636 131.785971,63.3403137 132.093391,63.2177419" id="Fill-42" fill="#272826" sketch:type="MSShapeGroup"></path>
                        <path d="M129.574145,73.916129 C129.583461,73.9201259 129.803047,74.0147194 130.089173,74.1146421 C130.384616,74.2105678 130.704013,74.3224812 131.08729,74.3318073 C131.996241,74.3331396 132.686938,74.0027287 133.12744,73.6723177 C133.570603,73.3392422 133.780873,73.0128281 133.812813,72.9661975 C134.008444,72.6557711 133.915286,72.2440897 133.605205,72.046909 C133.293792,71.8510605 132.883899,71.9443217 132.686938,72.2547481 L132.886561,72.3813168 L132.69093,72.2480866 L132.686938,72.2547481 L132.886561,72.3813168 L132.69093,72.2480866 C132.684276,72.258745 132.54454,72.4572581 132.281037,72.6411158 C132.014873,72.8236412 131.640912,72.9968405 131.08729,72.9995051 C131.054019,73.0061666 130.749261,72.9395515 130.524352,72.8556164 L130.222255,72.7423707 L130.102482,72.6930756 C129.765784,72.5478546 129.373191,72.7024017 129.226801,73.0394741 C129.081741,73.3778789 129.236116,73.7695758 129.574145,73.916129" id="Fill-43" fill="#624F3D" sketch:type="MSShapeGroup"></path>
                        <g id="Imported-Layers" stroke-width="1" fill="none" sketch:type="MSLayerGroup" transform="translate(92.500000, 69.000000) rotate(38.000000) translate(-92.500000, -69.000000) translate(82.000000, 58.000000)">
                            <path d="M18.375,9.13559322 L10.000125,9.13559322 L10.000125,7.27118644 L18.375,7.27118644 C18.685125,7.27118644 18.9375,7.02023729 18.9375,6.71186441 L18.9375,4.35040678 C18.9375,4.0420339 18.685125,3.79108475 18.375,3.79108475 L10.000125,3.79108475 L10.000125,1.92667797 L18.375,1.92667797 C19.719,1.92667797 20.8125,3.014 20.8125,4.35040678 L20.8125,6.71186441 C20.8125,8.04827119 19.719,9.13559322 18.375,9.13559322" id="Fill-1" fill="#777776" sketch:type="MSShapeGroup"></path>
                            <path d="M9.18825,17.6801695 L7.31325,17.6801695 L7.31325,9.72623729 C7.31325,8.38983051 8.40675,7.30250847 9.75075,7.30250847 L11.37525,7.30250847 L11.37525,9.16691525 L9.75075,9.16691525 C9.440625,9.16691525 9.18825,9.41786441 9.18825,9.72623729 L9.18825,17.6801695" id="Fill-2" fill="#777776" sketch:type="MSShapeGroup"></path>
                            <path d="M6.12525,12.9889492 L10.3125,12.9889492 L10.3125,21.751661 L6.12525,21.751661 L6.12525,12.9889492 Z" id="Fill-3" fill="#1A1918" sketch:type="MSShapeGroup"></path>
                            <path d="M0.1875,0.186440678 L18.1875,0.186440678 L18.1875,5.77966102 L0.1875,5.77966102 L0.1875,0.186440678 Z" id="Fill-4" fill="#FFFFFF" sketch:type="MSShapeGroup"></path>
                        </g>
                    </g>
                </g>
            </g>
        </g>
    </g>
</svg>