<?xml version="1.0" encoding="UTF-8" standalone="no"?>
<svg width="34px" height="33px" viewBox="0 0 34 33" version="1.1" xmlns="http://www.w3.org/2000/svg" xmlns:xlink="http://www.w3.org/1999/xlink" xmlns:sketch="http://www.bohemiancoding.com/sketch/ns">
    <!-- Generator: bin/sketchtool 1.4 (305) - http://www.bohemiancoding.com/sketch -->
    <title>Impressora</title>
    <desc>Created with bin/sketchtool.</desc>
    <defs></defs>
    <g id="Page-1" stroke="none" stroke-width="1" fill="none" fill-rule="evenodd" sketch:type="MSPage">
        <g id="Landing" sketch:type="MSArtboardGroup" transform="translate(-666.000000, -1291.000000)" fill="#6A908B">
            <g id="Faixa:-Adote-um-mapa" sketch:type="MSLayerGroup" transform="translate(-25.500000, 995.000000)">
                <path d="M721.592684,302.224275 L720.931335,302.224275 L720.931335,296.086817 L696.587306,296.086817 L696.587306,302.224275 L695.927836,302.224275 C693.780331,302.224275 692.033017,303.860696 692.033017,305.87191 L692.033017,314.847591 C692.033017,316.858805 693.780331,318.496986 695.927836,318.496986 L696.587306,318.496986 L696.587306,328.857466 L720.931335,328.857466 L720.931335,318.496986 L721.592684,318.496986 C723.740189,318.496986 725.487503,316.858805 725.487503,314.847591 L725.487503,305.87191 C725.487503,303.860696 723.740189,302.224275 721.592684,302.224275 L721.592684,302.224275 Z M698.514988,297.892159 L719.005532,297.892159 L719.005532,302.224275 L698.514988,302.224275 L698.514988,297.892159 Z M698.514988,314.427049 L719.005532,314.427049 L719.005532,327.053884 L698.514988,327.053884 L698.514988,314.427049 Z M723.5617,314.847591 C723.5617,315.864636 722.678649,316.691644 721.592684,316.691644 L720.931335,316.691644 L720.931335,312.621707 L696.587306,312.621707 L696.587306,316.691644 L695.927836,316.691644 C694.841871,316.691644 693.95882,315.864636 693.95882,314.847591 L693.95882,305.87191 C693.95882,304.854866 694.841871,304.027857 695.927836,304.027857 L721.592684,304.027857 C722.678649,304.027857 723.5617,304.854866 723.5617,305.87191 L723.5617,314.847591 Z M699.54083,320.534594 L717.707259,320.534594 L717.707259,321.375679 L699.54083,321.375679 L699.54083,320.534594 Z M702.813756,319.931054 L703.448801,319.336311 L702.396655,318.35094 L704.427673,318.35094 L704.427673,317.511614 L702.282047,317.511614 L703.448801,316.417148 L702.813756,315.824165 L700.639947,317.860013 L700.656857,317.877609 L700.639947,317.893446 L702.813756,319.931054 Z M715.524056,321.982738 L714.88901,322.575721 L715.939278,323.562852 L713.90826,323.562852 L713.90826,324.402178 L716.055765,324.402178 L714.88901,325.494885 L715.524056,326.089627 L717.697865,324.052019 L717.679076,324.036183 L717.697865,324.018587 L715.524056,321.982738 Z" id="Impressora" sketch:type="MSShapeGroup"></path>
            </g>
        </g>
    </g>
</svg>