<?xml version="1.0" encoding="UTF-8" standalone="no"?>
<svg width="193px" height="26px" viewBox="0 0 193 26" version="1.1" xmlns="http://www.w3.org/2000/svg" xmlns:xlink="http://www.w3.org/1999/xlink" xmlns:sketch="http://www.bohemiancoding.com/sketch/ns">
    <!-- Generator: bin/sketchtool 1.4 (305) - http://www.bohemiancoding.com/sketch -->
    <title>Logo-horizontal</title>
    <desc>Created with bin/sketchtool.</desc>
    <defs></defs>
    <g id="Page-1" stroke="none" stroke-width="1" fill="none" fill-rule="evenodd" sketch:type="MSPage">
        <g id="Landing" sketch:type="MSArtboardGroup" transform="translate(-193.000000, -4268.000000)">
            <g id="Footer" sketch:type="MSLayerGroup" transform="translate(0.000000, 4209.000000)">
                <g id="Logo-horizontal" transform="translate(193.000000, 59.000000)" sketch:type="MSShapeGroup">
                    <path d="M96.6000741,2.46541176 C92.7043333,-1.02776471 86.7152063,-0.706588235 83.2146561,3.18015686 C79.7187011,7.06690196 80.0398571,13.0474118 83.933045,16.541098 L90.9785661,22.8641961 L97.3159101,15.8273725 C100.811354,11.9385882 100.489688,5.95756863 96.6000741,2.46541176 L96.6000741,2.46541176 Z M90.5486561,14.0914902 C87.8910767,14.2943922 85.5689497,12.3092157 85.3652275,9.65517647 C85.1604841,7.00419608 87.1512434,4.68305882 89.8078016,4.47913725 C92.4664021,4.2767451 94.7875079,6.26345098 94.9917407,8.91698039 C95.1949524,11.5715294 93.206746,13.886549 90.5486561,14.0914902 L90.5486561,14.0914902 Z" id="Fill-1" fill="#FF5959"></path>
                    <path d="M158.939585,20.3100784 C160.405976,21.4698824 161.226992,21.5274902 162.768439,20.5507059 C163.849852,21.4260392 164.942497,22.3110588 166.028505,23.189451 C164.693333,25.3331765 161.586442,26.2722353 158.991153,25.2444706 C157.93527,24.8259216 156.950357,24.1922353 156.00527,23.5488627 C154.47914,22.5093725 152.927481,21.6299608 151.108278,21.117098 C146.604944,19.8492157 143.778873,15.3338824 144.523302,10.8725882 C145.284069,6.30678431 149.356471,2.99815686 154.134497,3.06596078 C158.772114,3.1332549 162.719934,6.59278431 163.285659,11.1310588 C163.718122,14.6216863 162.436561,17.4230588 159.731497,19.6167451 C159.477228,19.8221961 159.213257,20.014902 158.957455,20.2167843 C158.939585,20.2320784 158.94418,20.2789804 158.939585,20.3100784 L158.939585,20.3100784 Z M158.734331,12.3882353 C158.771603,9.67964706 156.70732,7.50737255 154.038508,7.4492549 C151.335997,7.39011765 149.066971,9.55270588 149.032762,12.2235686 C148.997532,14.9280784 151.15423,17.1197255 153.871548,17.1396078 C156.603672,17.1579608 158.695016,15.1151765 158.734331,12.3882353 L158.734331,12.3882353 Z" id="Fill-2" fill="#FFFFFF"></path>
                    <path d="M106.50077,21.1869412 L106.50077,3.47278431 C106.775463,3.44270588 107.024627,3.3932549 107.271749,3.39223529 C109.708246,3.38713725 112.146275,3.39988235 114.582262,3.38815686 C121.113116,3.35501961 123.551656,8.43062745 123.173315,13.1656863 C122.891474,16.6573333 121.409254,19.398549 117.930148,20.6949804 C117.290899,20.9335686 116.599061,21.1532941 115.926114,21.1645098 C112.807479,21.2139608 109.688844,21.1869412 106.50077,21.1869412 L106.50077,21.1869412 Z M111.066905,16.8112941 L114.722672,16.8112941 C116.627653,16.8112941 117.831095,15.7284706 118.340146,14.0058431 C118.967651,11.8789412 118.425413,9.64192157 116.999357,8.59886275 C116.685349,8.36996078 115.839825,7.76329412 114.722672,7.76329412 C113.196542,7.76329412 112.715063,7.7347451 111.066905,7.7347451 L111.066905,16.8112941 L111.066905,16.8112941 Z" id="Fill-3" fill="#FFFFFF"></path>
                    <path d="M39.0145926,15.4776471 C37.5318624,11.879451 36.0220714,8.29145098 34.5694656,4.68305882 C34.319791,4.06568627 34.0088466,3.86992157 33.3471323,3.86992157 L30.5639497,3.86992157 C29.9017249,3.86992157 29.591291,4.06568627 29.3411058,4.68305882 C27.8890106,8.29145098 26.3792196,11.879451 24.8964894,15.4776471 C24.1025344,17.4067451 23.3259392,19.3394118 22.5013492,21.369451 L25.463746,21.369451 C27.4259127,21.369451 27.4596111,21.3832157 28.1187725,19.6055294 C28.3480238,18.9815294 28.6553942,18.7862745 29.317619,18.8127843 C30.1958201,18.8505098 31.0740212,18.8433725 31.9552857,18.8331765 C32.8365503,18.8433725 33.7152619,18.8505098 34.593463,18.8127843 C35.2551772,18.7862745 35.5625476,18.9815294 35.7923095,19.6055294 C36.4509603,21.3832157 36.4846587,21.369451 38.4468254,21.369451 L41.4092222,21.369451 C40.5851429,19.3394118 39.808037,17.4067451 39.0145926,15.4776471 L39.0145926,15.4776471 Z M29.9961825,14.7527059 C30.6379841,13.0698431 31.259873,11.4507059 31.9552857,9.63019608 C32.651209,11.4507059 33.2725873,13.0698431 33.9143889,14.7527059 L29.9961825,14.7527059 L29.9961825,14.7527059 Z" id="Fill-4" fill="#FFFFFF"></path>
                    <path d="M75.2669365,15.4776471 C73.7842063,11.879451 72.2744153,8.29145098 70.8218095,4.68305882 C70.5721349,4.06568627 70.2611905,3.86992157 69.5994762,3.86992157 L66.8162937,3.86992157 C66.1540688,3.86992157 65.8436349,4.06568627 65.5934497,4.68305882 C64.1413545,8.29145098 62.6310529,11.879451 61.1488333,15.4776471 C60.3548783,17.4067451 59.5777725,19.3394118 58.7542037,21.369451 L61.7160899,21.369451 C63.6782566,21.369451 63.7124656,21.3832157 64.3711164,19.6055294 C64.6003677,18.9815294 64.9077381,18.7862745 65.569963,18.8127843 C66.448164,18.8505098 67.3263651,18.8433725 68.2076296,18.8331765 C69.0894048,18.8433725 69.9676058,18.8505098 70.8458069,18.8127843 C71.5075212,18.7862745 71.8148915,18.9815294 72.0446534,19.6055294 C72.7033042,21.3832157 72.7375132,21.369451 74.6996799,21.369451 L77.6615661,21.369451 C76.8374868,19.3394118 76.0608915,17.4067451 75.2669365,15.4776471 L75.2669365,15.4776471 Z M66.2485265,14.7527059 C66.8908386,13.0698431 67.5122169,11.4507059 68.2076296,9.63019608 C68.9035529,11.4507059 69.5254418,13.0698431 70.1667328,14.7527059 L66.2485265,14.7527059 L66.2485265,14.7527059 Z" id="Fill-5" fill="#FFFFFF"></path>
                    <path d="M140.566802,15.4776471 C139.083561,11.879451 137.57377,8.29145098 136.122185,4.68305882 C135.871489,4.06568627 135.561056,3.86992157 134.899341,3.86992157 L132.116159,3.86992157 C131.453934,3.86992157 131.1435,4.06568627 130.892804,4.68305882 C129.44122,8.29145098 127.931429,11.879451 126.448188,15.4776471 C125.654743,17.4067451 124.877638,19.3394118 124.053558,21.369451 L127.015955,21.369451 C128.978122,21.369451 129.01182,21.3832157 129.670981,19.6055294 C129.900233,18.9815294 130.208114,18.7862745 130.869828,18.8127843 C131.747519,18.8505098 132.62623,18.8433725 133.507495,18.8331765 C134.388759,18.8433725 135.267471,18.8505098 136.145672,18.8127843 C136.806876,18.7862745 137.114757,18.9815294 137.344008,19.6055294 C138.003169,21.3832157 138.036868,21.369451 139.999034,21.369451 L142.961431,21.369451 C142.137352,19.3394118 141.360246,17.4067451 140.566802,15.4776471 L140.566802,15.4776471 Z M131.548392,14.7527059 C132.190193,13.0698431 132.811571,11.4507059 133.507495,9.63019608 C134.203418,11.4507059 134.824796,13.0698431 135.466087,14.7527059 L131.548392,14.7527059 L131.548392,14.7527059 Z" id="Fill-6" fill="#FFFFFF"></path>
                    <path d="M167.368272,3.44270588 L171.87518,3.44270588 C171.87518,3.80313725 171.874669,4.15184314 171.87518,4.4985098 C171.878754,7.488 171.855267,10.4769804 171.894582,13.4659608 C171.921643,15.4266667 172.823841,16.6639608 174.380095,17.0417255 C176.930963,17.6616471 178.870153,16.4534118 179.060601,13.8493333 C179.255132,11.200902 179.146378,8.53258824 179.166802,5.87192157 C179.17395,5.08835294 179.167312,4.30784314 179.167312,3.458 L183.728341,3.458 C183.728341,4.71721569 183.738553,5.92494118 183.725278,7.13419608 C183.698728,9.62764706 183.803907,12.1338431 183.593037,14.6140392 C183.187124,19.390902 179.355206,21.9924314 174.545013,21.5223922 C169.972751,21.0773333 167.396865,18.2158039 167.317214,13.6163529 C167.26105,10.4627059 167.299854,7.3065098 167.300365,4.15337255 C167.300365,3.93262745 167.341722,3.71137255 167.368272,3.44270588" id="Fill-7" fill="#FFFFFF"></path>
                    <path d="M44.168918,3.92854902 C47.035836,3.92854902 49.8756931,3.92039216 52.7150397,3.9387451 C53.1669048,3.94180392 53.625918,4.03764706 54.068082,4.14470588 C57.4302646,4.966 59.1938148,7.7352549 58.8522354,11.6352549 C58.5780529,14.7634118 56.1900608,17.3149804 52.9458228,17.3149804 L48.6737831,17.3149804 L48.6737831,21.2950196 L44.168918,21.2950196 L44.168918,3.92854902 L44.168918,3.92854902 Z M48.7003333,8.05439216 L48.7003333,13.2854902 L52.353037,13.2854902 C53.5993677,13.2854902 54.3049921,12.1052941 54.3182672,10.6508235 C54.3305212,9.23917647 53.5947725,8.05439216 52.3678439,8.05439216 L48.7003333,8.05439216 L48.7003333,8.05439216 Z" id="Fill-8" fill="#FFFFFF"></path>
                    <path d="M192.737561,21.2012157 L188.310815,21.2012157 L188.310815,3.44423529 L192.737561,3.44423529 L192.737561,21.2012157" id="Fill-9" fill="#FFFFFF"></path>
                    <path d="M19.5900106,3.86329412 L19.5900106,21.3184706 L15.1316085,21.3184706 L15.1316085,13.3058824 C14.8783598,13.774902 13.142381,16.9887059 12.1492989,18.8703922 C11.274672,20.5226667 10.8008519,20.7286275 9.79092063,20.7286275 L9.7919418,20.7286275 C8.78201058,20.7286275 8.35618519,20.5226667 7.4815582,18.8703922 C6.48898677,16.9887059 4.75249735,13.774902 4.49924868,13.3058824 L4.49924868,21.3184706 L0.0408465608,21.3184706 L0.0408465608,3.86329412 L3.44540741,3.86329412 C4.31339683,3.86329412 4.71879894,4.12278431 5.05629365,4.87168627 C6.53596032,8.14666667 9.69748413,14.9520392 9.81542857,15.0596078 C9.9338836,14.9520392 13.0954074,8.14666667 14.5745635,4.87168627 C14.9120582,4.12278431 15.3174603,3.86329412 16.1854497,3.86329412 L19.5900106,3.86329412" id="Fill-10" fill="#FFFFFF"></path>
                    <path d="M110.998997,3.4065098 L114.601664,3.4065098 L114.601664,7.7347451 L110.998997,7.7347451 L110.998997,3.4065098 Z" id="Fill-11" fill="#FFFFFF"></path>
                </g>
            </g>
        </g>
    </g>
</svg>