<?xml version="1.0" encoding="UTF-8" standalone="no"?>
<svg width="134px" height="115px" viewBox="0 0 134 115" version="1.1" xmlns="http://www.w3.org/2000/svg" xmlns:xlink="http://www.w3.org/1999/xlink" xmlns:sketch="http://www.bohemiancoding.com/sketch/ns">
    <!-- Generator: bin/sketchtool 1.4 (305) - http://www.bohemiancoding.com/sketch -->
    <title>Logotipo</title>
    <desc>Created with bin/sketchtool.</desc>
    <defs></defs>
    <g id="Page-1" stroke="none" stroke-width="1" fill="none" fill-rule="evenodd" sketch:type="MSPage">
        <g id="Landing" sketch:type="MSArtboardGroup" transform="translate(-194.000000, -70.000000)">
            <g id="ABOVE" sketch:type="MSLayerGroup" transform="translate(0.000000, -40.000000)">
                <g id="Logotipo" transform="translate(194.000000, 109.659183)" sketch:type="MSShapeGroup">
                    <path d="M82.5421892,66.8504682 C84.7531892,68.6094522 85.9963108,68.6938617 88.3222973,67.212612 C89.9556486,68.5404724 91.6052973,69.8846702 93.2449865,71.2143459 C91.2295541,74.4654712 86.5386486,75.887725 82.6200541,74.3320498 C81.0256351,73.6948946 79.5380541,72.7346237 78.1120405,71.7598307 C75.805973,70.1841876 73.4627838,68.8481585 70.7148784,68.0721361 C63.9152838,66.1506866 59.6481081,59.3062603 60.7744324,52.5417052 C61.9215811,45.6201304 68.0710946,40.6063907 75.2853649,40.7071374 C82.2877703,40.8106071 88.2516757,46.0548844 89.1027568,52.935616 C89.7573649,58.2279976 87.8216081,62.472976 83.7364189,65.7976192 C83.3543378,66.1098434 82.9541486,66.403915 82.5675405,66.7079705 L82.5421892,66.8504682 L82.5421892,66.8504682 Z M82.2307297,54.8407281 C82.2877703,50.7355245 79.1713649,47.4417408 75.1414054,47.3518855 C71.0598378,47.2647532 67.6346892,50.5421996 67.5794595,54.5920379 C67.5278514,58.6917958 70.7845946,62.013716 74.8887973,62.0436678 C79.0156351,62.0708966 82.1718784,58.9758835 82.2307297,54.8407281 L82.2307297,54.8407281 Z" id="Fill-1" fill="#FFFFFF"></path>
                    <path d="M3.35905405,68.1801439 L3.35905405,41.3243248 C3.77372973,41.2789434 4.15037838,41.2036102 4.52340541,41.2027026 C8.20297297,41.1963492 11.8834459,41.2135941 15.5630135,41.1963492 C25.4228784,41.1482449 29.1078784,48.8413039 28.5329459,56.0197375 C28.1092162,61.3093963 25.8701486,65.4690577 20.6160811,67.4340733 C19.6518243,67.7944018 18.6078919,68.1284091 17.592027,68.1465617 C12.8821081,68.2209872 8.17218919,68.1801439 3.35905405,68.1801439 L3.35905405,68.1801439 Z M10.2528108,61.5453797 L15.7748784,61.5453797 C18.6495405,61.5453797 20.4685,59.9043874 21.2380946,57.2940479 C22.1842432,54.0683363 21.3657568,50.6774363 19.2127027,49.0954398 C18.7391757,48.750541 17.4607432,47.8292981 15.7748784,47.8292981 C13.4706216,47.8292981 12.7426757,47.7866396 10.2528108,47.7866396 L10.2528108,61.5453797 L10.2528108,61.5453797 Z" id="Fill-2" fill="#FFFFFF"></path>
                    <path d="M54.7978514,59.5259064 C52.5578784,54.0701516 50.278973,48.6298264 48.0851757,43.1577343 C47.7076216,42.2219694 47.2404324,41.9288054 46.2417703,41.9288054 L42.0370676,41.9288054 C41.0375,41.9288054 40.5703108,42.2219694 40.1927568,43.1577343 C37.9989595,48.6298264 35.7200541,54.0701516 33.4791757,59.5259064 C32.2822297,62.4484701 31.1079189,65.3801101 29.8629865,68.4551554 L34.3356892,68.4551554 C37.2981757,68.4551554 37.3506892,68.4769384 38.3475405,65.7812819 C38.6915946,64.8364406 39.1560676,64.5405537 40.1556351,64.581397 C41.4811486,64.63767 42.8075676,64.6267784 44.1403243,64.6113487 C45.4703649,64.6267784 46.7958784,64.63767 48.1222973,64.581397 C49.1218649,64.5405537 49.5863378,64.8364406 49.9322027,65.7812819 C50.9272432,68.4769384 50.9797568,68.4551554 53.9386216,68.4551554 L58.4149459,68.4551554 C57.1700135,65.3801101 55.9975135,62.4484701 54.7978514,59.5259064 L54.7978514,59.5259064 Z M41.1805541,58.4267683 C42.1520541,55.8727017 43.0882432,53.4184743 44.1403243,50.6583761 C45.1896892,53.4184743 46.1285946,55.8727017 47.0973784,58.4267683 L41.1805541,58.4267683 L41.1805541,58.4267683 Z" id="Fill-3" fill="#FFFFFF"></path>
                    <path d="M95.2685676,41.2789434 L102.071784,41.2789434 L102.071784,42.8809076 C102.078122,47.411789 102.043716,51.9444856 102.101662,56.475367 C102.143311,59.4478503 103.506851,61.324826 105.855473,61.8948167 C109.707973,62.8342122 112.636054,61.0035255 112.923068,57.0535264 C113.216419,53.0390856 113.053446,48.9956007 113.083324,44.9630074 C113.094189,43.7740141 113.083324,42.5895589 113.083324,41.304357 L119.971649,41.304357 C119.971649,43.2112844 119.987946,45.0428787 119.966216,46.8753806 C119.927284,50.6556532 120.088446,54.4540784 119.766122,58.2143832 C119.154973,65.4581661 113.367622,69.3999966 106.107176,68.6893235 C99.2016486,68.0131403 95.312027,63.6737685 95.1897973,56.7013665 C95.1055946,51.9217949 95.1635405,47.1367776 95.1671622,42.3581136 C95.1671622,42.0213835 95.2287297,41.6873762 95.2685676,41.2789434" id="Fill-4" fill="#FFFFFF"></path>
                    <path d="M133.57627,68.1992041 L126.891662,68.1992041 L126.891662,41.2825739 L133.57627,41.2825739 L133.57627,68.1992041" id="Fill-5" fill="#FFFFFF"></path>
                    <path d="M62.2104054,18.2850834 C59.969527,12.8275133 57.6897162,7.39081873 55.4977297,1.91781898 C55.1192703,0.982961646 54.6502703,0.686167132 53.6507027,0.686167132 L49.4478108,0.686167132 C48.4500541,0.686167132 47.9792432,0.982961646 47.6016892,1.91781898 C45.4078919,7.39081873 43.1298919,12.8275133 40.8917297,18.2850834 C39.6920676,21.2058319 38.5195676,24.1374718 37.2746351,27.2143324 L41.7482432,27.2143324 C44.7116351,27.2143324 44.7632432,27.2352079 45.7555676,24.5413665 C46.1041486,23.5938024 46.5677162,23.3006384 47.565473,23.3378512 C48.8946081,23.396847 50.2183108,23.3859555 51.5492568,23.3668953 C52.8792973,23.3859555 54.2057162,23.396847 55.5321351,23.3378512 C56.5317027,23.3006384 56.9979865,23.5938024 57.3447568,24.5413665 C58.3370811,27.2352079 58.3886892,27.2143324 61.3520811,27.2143324 L65.8238784,27.2143324 C64.5807568,24.1374718 63.4082568,21.2058319 62.2104054,18.2850834 L62.2104054,18.2850834 Z M48.5912973,17.18413 C49.5600811,14.6327864 50.4998919,12.1776513 51.5492568,9.41846076 C52.6004324,12.1776513 53.5393378,14.6327864 54.5081216,17.18413 L48.5912973,17.18413 L48.5912973,17.18413 Z" id="Fill-6" fill="#FFFFFF"></path>
                    <path d="M116.951216,18.2850834 C114.708527,12.8275133 112.431432,7.39081873 110.238541,1.91781898 C109.860986,0.982961646 109.391081,0.686167132 108.392419,0.686167132 L104.188622,0.686167132 C103.188149,0.686167132 102.720959,0.982961646 102.341595,1.91781898 C100.149608,7.39081873 97.8697973,12.8275133 95.6307297,18.2850834 C94.431973,21.2058319 93.259473,24.1374718 92.0154459,27.2143324 L96.4881486,27.2143324 C99.4524459,27.2143324 99.5022432,27.2352079 100.496378,24.5413665 C100.843149,23.5938024 101.307622,23.3006384 102.306284,23.3378512 C103.632703,23.396847 104.959122,23.3859555 106.290973,23.3668953 C107.622824,23.3859555 108.946527,23.396847 110.272946,23.3378512 C111.273419,23.3006384 111.737892,23.5938024 112.082851,24.5413665 C113.079703,27.2352079 113.130405,27.2143324 116.092892,27.2143324 L120.565595,27.2143324 C119.321568,24.1374718 118.149068,21.2058319 116.951216,18.2850834 L116.951216,18.2850834 Z M103.333014,17.18413 C104.299081,14.6327864 105.240703,12.1776513 106.290973,9.41846076 C107.341243,12.1776513 108.278338,14.6327864 109.248027,17.18413 L103.333014,17.18413 L103.333014,17.18413 Z" id="Fill-7" fill="#FFFFFF"></path>
                    <path d="M69.9914595,0.773299467 C74.3220135,0.773299467 78.6082027,0.762407925 82.8962027,0.788729151 C83.5797838,0.79508255 84.2715135,0.941210736 84.9387973,1.10004572 C90.0181216,2.34621963 92.6782027,6.54581661 92.163027,12.4572009 C91.751973,17.1986521 88.1448378,21.0660571 83.2447838,21.0660571 L76.7928649,21.0660571 L76.7928649,27.1017865 L69.9914595,27.1017865 L69.9914595,0.773299467 L69.9914595,0.773299467 Z M76.8336081,7.02958259 L76.8336081,14.9577174 L82.3493378,14.9577174 C84.2316757,14.9577174 85.2964324,13.1696893 85.3172568,10.9650597 C85.3362703,8.82668699 84.2244324,7.02958259 82.3710676,7.02958259 L76.8336081,7.02958259 L76.8336081,7.02958259 Z" id="Fill-8" fill="#FFFFFF"></path>
                    <path d="M32.8779865,0.675275591 L32.8779865,27.137184 L26.1462973,27.137184 L26.1462973,14.9912996 C25.7624054,15.7028804 23.1421622,20.5750301 21.6428108,23.4267987 C20.3218243,25.9318534 19.6056486,26.2422623 18.0836622,26.2422623 C16.5571486,26.2422623 15.9161216,25.9318534 14.5933243,23.4267987 C13.0966892,20.5750301 10.4737297,15.7028804 10.0907432,14.9912996 L10.0907432,27.137184 L3.35905405,27.137184 L3.35905405,0.675275591 L8.49994595,0.675275591 C9.81097297,0.675275591 10.4221216,1.07009398 10.9336757,2.20553721 C13.1664054,7.16754212 17.9397027,17.4863703 18.1198784,17.6479282 C18.2982432,17.4863703 23.0706351,7.16754212 25.3024595,2.20553721 C25.8149189,1.07009398 26.4251622,0.675275591 27.7370946,0.675275591 L32.8779865,0.675275591" id="Fill-9" fill="#FFFFFF"></path>
                    <path d="M15.0523649,101.49737 C11.2188784,101.49737 7.97118919,98.5366861 7.67331081,94.6411447 C7.35822973,90.5568165 10.4121622,86.9816679 14.4892027,86.6667209 C14.6811486,86.6521988 14.8712838,86.6449378 15.0605135,86.6449378 C18.8949054,86.6449378 22.1453108,89.6074371 22.4431892,93.5029786 C22.7546486,97.5936601 19.7043378,101.159732 15.6254865,101.475587 C15.4335405,101.490109 15.2415946,101.49737 15.0523649,101.49737 M15.1963243,79.8313708 C11.2134459,79.8313708 7.24686486,81.4623791 4.37310811,84.6663077 C-0.992324324,90.6539328 -0.499783784,99.8672695 5.47498649,105.249506 L16.2846216,114.990175 L26.0095811,104.149461 C31.3732027,98.1582051 30.8788514,88.9448683 24.9113243,83.5653543 C22.1317297,81.0630226 18.6576892,79.8313708 15.1963243,79.8313708" id="Fill-10" fill="#ED4D51"></path>
                </g>
            </g>
        </g>
    </g>
</svg>