<?xml version="1.0" encoding="utf-8"?>
<!-- Generator: Adobe Illustrator 16.0.0, SVG Export Plug-In . SVG Version: 6.00 Build 0)  -->
<!DOCTYPE svg PUBLIC "-//W3C//DTD SVG 1.1//EN" "http://www.w3.org/Graphics/SVG/1.1/DTD/svg11.dtd">
<svg version="1.1" id="Layer_1" xmlns="http://www.w3.org/2000/svg" xmlns:xlink="http://www.w3.org/1999/xlink" x="0px" y="0px"
	 width="97.669px" height="74.996px" viewBox="0 0 97.669 74.996" enable-background="new 0 0 97.669 74.996" xml:space="preserve">
<g>
	<g>
		<path fill-rule="evenodd" clip-rule="evenodd" fill="#FFFFFF" d="M61.751,46.066c1.356,1.076,2.119,1.128,3.545,0.222
			c1.002,0.812,2.014,1.635,3.02,2.448c-1.236,1.989-4.113,2.859-6.517,1.907c-0.978-0.39-1.891-0.977-2.765-1.573
			c-1.415-0.965-2.852-1.781-4.537-2.256c-4.171-1.176-6.789-5.364-6.098-9.503c0.703-4.235,4.476-7.303,8.9-7.242
			c4.295,0.064,7.953,3.272,8.476,7.482c0.401,3.238-0.786,5.836-3.292,7.87c-0.234,0.191-0.479,0.371-0.717,0.558
			C61.751,45.994,61.755,46.038,61.751,46.066z M61.56,38.718c0.035-2.512-1.876-4.527-4.348-4.582
			c-2.504-0.053-4.604,1.951-4.639,4.43c-0.031,2.509,1.966,4.542,4.483,4.56C59.589,43.142,61.524,41.248,61.56,38.718z"/>
		<path fill-rule="evenodd" clip-rule="evenodd" fill="#FFFFFF" d="M13.183,46.88c0-5.523,0-10.945,0-16.432
			c0.255-0.028,0.486-0.074,0.715-0.075c2.256-0.004,4.514,0.007,6.771-0.004c6.047-0.029,8.308,4.678,7.955,9.07
			c-0.26,3.236-1.633,5.781-4.855,6.983c-0.592,0.221-1.232,0.426-1.855,0.437C19.024,46.904,16.136,46.88,13.183,46.88z
			 M17.411,42.82c1.199,0,2.283,0,3.387,0c1.764,0,2.88-1.004,3.352-2.602c0.58-1.974,0.078-4.048-1.242-5.016
			c-0.291-0.211-1.074-0.775-2.109-0.775c-1.413,0-1.859-0.026-3.387-0.026C17.411,37.32,17.411,40.011,17.411,42.82z"/>
		<path fill-rule="evenodd" clip-rule="evenodd" fill="#FFFFFF" d="M44.733,41.584c-1.373-3.337-2.771-6.666-4.117-10.015
			c-0.231-0.572-0.518-0.752-1.131-0.752h-2.579c-0.612,0-0.899,0.18-1.131,0.752c-1.346,3.349-2.743,6.678-4.117,10.015
			c-0.734,1.789-1.455,3.583-2.218,5.465h2.742c1.817,0,1.85,0.013,2.461-1.637c0.211-0.578,0.496-0.76,1.109-0.734
			c0.812,0.035,1.627,0.027,2.443,0.019c0.816,0.009,1.63,0.017,2.443-0.019c0.612-0.025,0.897,0.156,1.109,0.734
			c0.61,1.649,0.643,1.637,2.458,1.637h2.745C46.188,45.167,45.47,43.373,44.733,41.584z M36.382,40.912
			c0.596-1.562,1.17-3.064,1.814-4.753c0.645,1.688,1.221,3.19,1.814,4.753H36.382z"/>
		<path fill-rule="evenodd" clip-rule="evenodd" fill="#FFFFFF" d="M69.557,30.42c1.377,0,2.708,0,4.173,0c0,0.334,0,0.656,0,0.98
			c0.004,2.771-0.017,5.546,0.02,8.317c0.025,1.819,0.861,2.968,2.302,3.316c2.362,0.575,4.159-0.545,4.335-2.962
			c0.18-2.457,0.08-4.931,0.099-7.398c0.007-0.728,0-1.451,0-2.238c1.435,0,2.78,0,4.225,0c0,1.167,0.011,2.287-0.003,3.408
			c-0.024,2.312,0.074,4.638-0.123,6.938c-0.375,4.432-3.925,6.845-8.378,6.409c-4.235-0.414-6.621-3.069-6.696-7.335
			c-0.052-2.924-0.016-5.853-0.014-8.776C69.495,30.875,69.532,30.67,69.557,30.42z"/>
		<path fill-rule="evenodd" clip-rule="evenodd" fill="#FFFFFF" d="M93.054,46.892c-1.386,0-2.715,0-4.1,0c0-5.496,0-10.957,0-16.47
			c1.366,0,2.698,0,4.1,0C93.054,35.887,93.054,41.347,93.054,46.892z"/>
	</g>
	<path fill-rule="evenodd" clip-rule="evenodd" fill="#FFFFFF" d="M49.28,16.351c-1.374-3.339-2.773-6.665-4.117-10.015
		c-0.232-0.571-0.52-0.754-1.133-0.754h-2.578c-0.612,0-0.9,0.183-1.133,0.754c-1.345,3.35-2.742,6.676-4.115,10.015
		c-0.736,1.788-1.455,3.581-2.219,5.464h2.744c1.817,0,1.85,0.013,2.458-1.636c0.214-0.579,0.498-0.759,1.11-0.736
		c0.814,0.037,1.627,0.029,2.443,0.019c0.816,0.011,1.629,0.019,2.443-0.019c0.613-0.022,0.898,0.157,1.111,0.736
		c0.608,1.648,0.641,1.636,2.458,1.636h2.743C50.734,19.932,50.015,18.139,49.28,16.351z M40.927,15.678
		c0.595-1.562,1.171-3.063,1.814-4.752c0.645,1.688,1.221,3.19,1.814,4.752H40.927z"/>
	<path fill-rule="evenodd" clip-rule="evenodd" fill="#FFFFFF" d="M82.856,16.351c-1.375-3.339-2.772-6.665-4.117-10.015
		c-0.232-0.571-0.52-0.754-1.133-0.754h-2.578c-0.613,0-0.9,0.183-1.133,0.754c-1.345,3.35-2.743,6.676-4.116,10.015
		c-0.735,1.788-1.454,3.581-2.218,5.464h2.744c1.817,0,1.848,0.013,2.458-1.636c0.212-0.579,0.497-0.759,1.11-0.736
		c0.813,0.037,1.627,0.029,2.444,0.019c0.816,0.011,1.628,0.019,2.442-0.019c0.613-0.022,0.898,0.157,1.109,0.736
		c0.611,1.648,0.643,1.636,2.459,1.636h2.744C84.311,19.932,83.591,18.139,82.856,16.351z M74.503,15.678
		c0.594-1.562,1.171-3.063,1.815-4.752c0.644,1.688,1.218,3.19,1.813,4.752H74.503z"/>
	<path fill-rule="evenodd" clip-rule="evenodd" fill="#FFFFFF" d="M54.053,5.636c2.656,0,5.286-0.007,7.915,0.01
		c0.42,0.004,0.844,0.093,1.254,0.19c3.115,0.763,4.746,3.332,4.431,6.948c-0.253,2.901-2.465,5.269-5.47,5.269
		c-1.343,0-2.594,0-3.957,0c0,1.299,0,2.469,0,3.692c-1.412,0-2.758,0-4.173,0C54.053,16.412,54.053,11.057,54.053,5.636z
		 M58.25,9.464c0,1.667,0,3.241,0,4.852c1.163,0,2.277,0,3.383,0c1.155,0,1.808-1.095,1.821-2.443
		c0.011-1.309-0.671-2.408-1.808-2.408C60.54,9.464,59.423,9.464,58.25,9.464z"/>
	<path fill-rule="evenodd" clip-rule="evenodd" fill="#FFFFFF" d="M31.289,5.576v16.191h-4.13v-7.432
		c-0.234,0.435-1.842,3.416-2.762,5.161c-0.811,1.532-1.249,1.723-2.184,1.723l0,0c-0.936,0-1.328-0.19-2.141-1.723
		c-0.918-1.745-2.526-4.727-2.761-5.161v7.432h-4.13V5.576h3.153c0.805,0,1.179,0.242,1.493,0.936
		c1.369,3.037,4.297,9.351,4.407,9.45c0.11-0.1,3.037-6.413,4.406-9.45c0.313-0.693,0.688-0.936,1.493-0.936H31.289z"/>
</g>
<g opacity="0.4">
	<g>
		<path fill-rule="evenodd" clip-rule="evenodd" fill="#FFFFFF" d="M23.812,57.471c-0.028-0.008-0.059-0.021-0.082-0.031
			c-0.493-0.219-1.01-0.389-1.546-0.514c-0.62-0.148-1.268-0.229-1.923-0.238c-2.168-0.027-4.184,0.665-5.783,1.859
			c-0.029,0.021-0.059,0.052-0.089,0.073c-0.921,0.706-1.702,1.583-2.277,2.594c-0.079,0.139-0.152,0.287-0.234,0.427
			c-0.074,0.139-0.14,0.287-0.206,0.436c-0.303,0.662-0.516,1.375-0.64,2.121c-0.634,3.806,1.427,7.646,4.919,9.318
			c0.119,0.06,0.238,0.119,0.354,0.17c0.486,0.213,0.994,0.389,1.52,0.516c0.014,0.008,0.021,0.008,0.035,0.008
			c0.641,0.163,1.312,0.242,1.998,0.26c2.269,0.028,4.375-0.738,6.011-2.058c0.058-0.045,0.126-0.097,0.184-0.155
			c0.898-0.758,1.65-1.685,2.181-2.748c0.072-0.147,0.147-0.287,0.207-0.435c0.301-0.663,0.516-1.379,0.641-2.12
			C29.741,63.025,27.511,59.049,23.812,57.471z M23.341,68.903c-0.318,0.312-0.68,0.575-1.077,0.789
			c-0.132,0.068-0.271,0.132-0.405,0.191c-0.559,0.228-1.186,0.353-1.848,0.346c-0.973-0.007-1.864-0.302-2.61-0.811
			c-0.124-0.087-0.242-0.177-0.353-0.266c-1.008-0.874-1.635-2.187-1.613-3.651c0.016-1.299,0.516-2.432,1.334-3.249
			c0.42-0.422,0.928-0.752,1.496-0.987c0.559-0.222,1.178-0.347,1.841-0.339c0.811,0.006,1.569,0.214,2.226,0.574
			c0.133,0.073,0.258,0.155,0.383,0.235c1.208,0.853,1.987,2.283,1.967,3.918c-0.016,1.143-0.404,2.166-1.061,2.947
			C23.53,68.706,23.444,68.81,23.341,68.903z"/>
		<circle fill-rule="evenodd" clip-rule="evenodd" fill="#FFFFFF" cx="5.346" cy="71.769" r="2.21"/>
	</g>
	<g>
		<path fill-rule="evenodd" clip-rule="evenodd" fill="#FFFFFF" d="M32.915,57.319c2.754,0,5.48-0.007,8.207,0.01
			c0.434,0.005,0.875,0.096,1.299,0.197c3.229,0.79,4.922,3.454,4.594,7.205c-0.262,3.009-2.556,5.46-5.671,5.46
			c-1.392,0-2.689,0-4.103,0c0,1.349,0,2.562,0,3.829c-1.465,0-2.859,0-4.326,0C32.915,68.491,32.915,62.938,32.915,57.319z
			 M37.267,61.287c0,1.729,0,3.361,0,5.029c1.205,0,2.361,0,3.508,0c1.197,0,1.875-1.133,1.887-2.532
			c0.012-1.357-0.695-2.497-1.873-2.497C39.642,61.287,38.483,61.287,37.267,61.287z"/>
		<polygon fill-rule="evenodd" clip-rule="evenodd" fill="#FFFFFF" points="46.668,73.994 42.371,73.994 39.657,67.511 
			43.954,67.511 		"/>
	</g>
	<path fill-rule="evenodd" clip-rule="evenodd" fill="#FFFFFF" d="M66.533,64.18h-0.024v-0.175h-6.422v3.417h2.828v1.345
		c-0.044,0.048-0.086,0.094-0.137,0.142c-0.316,0.309-0.678,0.574-1.075,0.787c-0.134,0.065-0.272,0.134-0.405,0.192
		c-0.561,0.229-1.186,0.354-1.849,0.345c-0.972-0.007-1.864-0.3-2.608-0.809c-0.125-0.089-0.242-0.179-0.354-0.267
		c-1.01-0.876-1.635-2.188-1.614-3.653c0.015-1.296,0.517-2.432,1.335-3.249c0.418-0.422,0.928-0.751,1.494-0.987
		c0.561-0.221,1.179-0.346,1.842-0.339c0.811,0.007,1.57,0.212,2.226,0.575c0.132,0.073,0.258,0.155,0.382,0.235
		c0.244,0.169,0.475,0.369,0.687,0.589l3.085-3.08c-0.765-0.736-1.663-1.34-2.673-1.775c-0.029-0.005-0.06-0.021-0.081-0.028
		c-0.494-0.222-1.008-0.389-1.547-0.516c-0.617-0.146-1.268-0.229-1.923-0.235c-2.166-0.029-4.185,0.664-5.782,1.856
		c-0.031,0.023-0.061,0.051-0.09,0.073c-0.921,0.708-1.701,1.582-2.275,2.593c-0.082,0.142-0.156,0.288-0.236,0.427
		c-0.073,0.142-0.141,0.287-0.207,0.436c-0.301,0.662-0.514,1.378-0.641,2.121c-0.633,3.809,1.43,7.649,4.922,9.319
		c0.117,0.06,0.235,0.12,0.354,0.17c0.484,0.214,0.994,0.391,1.518,0.516c0.014,0.01,0.021,0.01,0.037,0.01
		c0.641,0.16,1.311,0.24,1.995,0.255c2.271,0.029,4.376-0.735,6.013-2.055c0.059-0.043,0.125-0.097,0.184-0.154
		c0.191-0.164,0.369-0.324,0.544-0.501l0.5-0.554v0.012V64.18z"/>
</g>
</svg>
