<?xml version="1.0" encoding="utf-8"?>
<!-- Generator: Adobe Illustrator 16.0.4, SVG Export Plug-In . SVG Version: 6.00 Build 0)  -->
<!DOCTYPE svg PUBLIC "-//W3C//DTD SVG 1.1//EN" "http://www.w3.org/Graphics/SVG/1.1/DTD/svg11.dtd">
<svg version="1.1" id="Layer_1" xmlns="http://www.w3.org/2000/svg" xmlns:xlink="http://www.w3.org/1999/xlink" x="0px" y="0px"
	 width="81.164px" height="124.062px" viewBox="0 0 81.164 124.062" enable-background="new 0 0 81.164 124.062"
	 xml:space="preserve">
<g>
	<g opacity="0.8">
		<rect x="9.447" y="105.056" fill-rule="evenodd" clip-rule="evenodd" fill="none" width="132.998" height="19.006"/>
		<path fill="#501313" d="M10.562,113.575l0.312-2.351H9.891v-0.708h1.092l0.228-1.738h-1.031v-0.708h1.14l0.312-2.291h0.695
			l-0.3,2.291h1.248l0.312-2.291h0.708l-0.3,2.291h0.983v0.708h-1.092l-0.216,1.738H14.7v0.708h-1.14l-0.312,2.351h-0.72
			l0.312-2.351h-1.248l-0.312,2.351H10.562z M12.949,110.517l0.228-1.738H11.93l-0.228,1.738H12.949z"/>
		<path fill="#501313" d="M23.135,110.025c-0.06-1.128-0.132-2.482-0.12-3.49h-0.036c-0.275,0.947-0.611,1.955-1.019,3.07
			l-1.428,3.922h-0.791l-1.308-3.85c-0.384-1.14-0.708-2.184-0.936-3.143h-0.024c-0.023,1.008-0.084,2.362-0.155,3.574l-0.216,3.466
			h-0.996l0.564-8.084h1.331l1.379,3.91c0.336,0.995,0.611,1.883,0.815,2.723h0.036c0.204-0.815,0.492-1.703,0.852-2.723l1.439-3.91
			h1.331l0.504,8.084h-1.02L23.135,110.025z"/>
		<path fill="#501313" d="M29.221,113.575l-0.084-0.731h-0.036c-0.324,0.456-0.947,0.863-1.775,0.863
			c-1.175,0-1.774-0.827-1.774-1.667c0-1.403,1.247-2.171,3.49-2.159v-0.119c0-0.48-0.132-1.344-1.319-1.344
			c-0.54,0-1.104,0.168-1.512,0.432l-0.239-0.695c0.479-0.312,1.175-0.516,1.906-0.516c1.775,0,2.207,1.211,2.207,2.374v2.171
			c0,0.504,0.024,0.996,0.096,1.392H29.221z M29.064,110.613c-1.151-0.024-2.458,0.18-2.458,1.307c0,0.684,0.455,1.008,0.995,1.008
			c0.756,0,1.235-0.479,1.403-0.972c0.036-0.107,0.06-0.228,0.06-0.336V110.613z"/>
		<path fill="#501313" d="M31.791,109.665c0-0.743-0.024-1.343-0.049-1.895h0.948l0.048,0.995h0.023
			c0.432-0.707,1.115-1.127,2.063-1.127c1.403,0,2.458,1.188,2.458,2.95c0,2.087-1.271,3.118-2.639,3.118
			c-0.768,0-1.438-0.336-1.786-0.911h-0.024v3.154h-1.043V109.665z M32.834,111.213c0,0.155,0.024,0.3,0.048,0.432
			c0.192,0.731,0.828,1.235,1.583,1.235c1.115,0,1.764-0.912,1.764-2.243c0-1.163-0.612-2.159-1.728-2.159
			c-0.72,0-1.392,0.517-1.595,1.308c-0.036,0.132-0.072,0.288-0.072,0.432V111.213z"/>
		<path fill="#501313" d="M41.833,113.575l-0.084-0.731h-0.036c-0.323,0.456-0.947,0.863-1.775,0.863
			c-1.175,0-1.774-0.827-1.774-1.667c0-1.403,1.247-2.171,3.49-2.159v-0.119c0-0.48-0.132-1.344-1.319-1.344
			c-0.54,0-1.104,0.168-1.512,0.432l-0.239-0.695c0.479-0.312,1.175-0.516,1.906-0.516c1.775,0,2.207,1.211,2.207,2.374v2.171
			c0,0.504,0.024,0.996,0.096,1.392H41.833z M41.677,110.613c-1.151-0.024-2.458,0.18-2.458,1.307c0,0.684,0.455,1.008,0.995,1.008
			c0.756,0,1.235-0.479,1.403-0.972c0.036-0.107,0.06-0.228,0.06-0.336V110.613z"/>
		<path fill="#501313" d="M44.438,105.6c0.636-0.096,1.392-0.168,2.219-0.168c1.5,0,2.567,0.348,3.274,1.008
			c0.72,0.659,1.14,1.595,1.14,2.902c0,1.319-0.408,2.398-1.163,3.142c-0.756,0.756-2.003,1.164-3.574,1.164
			c-0.744,0-1.367-0.036-1.896-0.097V105.6z M45.482,112.748c0.264,0.048,0.647,0.06,1.056,0.06c2.23,0,3.441-1.247,3.441-3.43
			c0.013-1.907-1.067-3.119-3.273-3.119c-0.54,0-0.948,0.049-1.224,0.108V112.748z"/>
		<path fill="#501313" d="M55.609,113.575l-0.084-0.731h-0.036c-0.324,0.456-0.947,0.863-1.775,0.863
			c-1.175,0-1.774-0.827-1.774-1.667c0-1.403,1.247-2.171,3.49-2.159v-0.119c0-0.48-0.132-1.344-1.319-1.344
			c-0.54,0-1.104,0.168-1.512,0.432l-0.239-0.695c0.479-0.312,1.175-0.516,1.906-0.516c1.775,0,2.207,1.211,2.207,2.374v2.171
			c0,0.504,0.024,0.996,0.096,1.392H55.609z M55.453,110.613c-1.151-0.024-2.458,0.18-2.458,1.307c0,0.684,0.455,1.008,0.995,1.008
			c0.756,0,1.235-0.479,1.403-0.972c0.036-0.107,0.06-0.228,0.06-0.336V110.613z"/>
		<path fill="#501313" d="M62.137,112.676h-0.023c-0.312,0.575-0.96,1.031-1.896,1.031c-1.354,0-2.458-1.175-2.458-2.938
			c0-2.171,1.403-3.13,2.626-3.13c0.899,0,1.499,0.443,1.787,1.007h0.024l0.036-0.875h0.995c-0.024,0.491-0.036,0.995-0.036,1.595
			v6.585h-1.056V112.676z M62.137,110.121c0-0.144-0.012-0.312-0.048-0.443c-0.155-0.648-0.72-1.2-1.511-1.2
			c-1.092,0-1.751,0.924-1.751,2.231c0,1.151,0.552,2.158,1.715,2.158c0.684,0,1.271-0.419,1.511-1.151
			c0.048-0.144,0.084-0.348,0.084-0.503V110.121z"/>
		<path fill="#501313" d="M69.792,111.992c0,0.6,0.013,1.127,0.049,1.583h-0.936l-0.061-0.947h-0.023
			c-0.276,0.468-0.888,1.079-1.919,1.079c-0.912,0-2.003-0.504-2.003-2.543v-3.394h1.055v3.214c0,1.104,0.336,1.848,1.296,1.848
			c0.707,0,1.199-0.492,1.391-0.96c0.061-0.156,0.097-0.348,0.097-0.54v-3.562h1.055V111.992z"/>
		<path fill="#501313" d="M72.723,106.14c0.012,0.359-0.252,0.647-0.672,0.647c-0.371,0-0.636-0.288-0.636-0.647
			c0-0.372,0.276-0.66,0.66-0.66C72.471,105.479,72.723,105.768,72.723,106.14z M71.548,113.575v-5.805h1.055v5.805H71.548z"/>
	</g>
	<g opacity="0.8">
		<g>
			<path fill-rule="evenodd" clip-rule="evenodd" fill="#501313" d="M7.562,86.102c-0.01-5.758,4.709-10.547,10.652-10.439
				c5.75,0.104,10.357,4.885,10.242,10.67c-0.109,5.545-4.693,10.352-10.689,10.223C12.105,96.434,7.553,91.799,7.562,86.102z
				 M21.076,79.482c-0.676,0-1.324-0.006-1.973,0.004c-0.27,0.004-0.541,0.023-0.805,0.068c-1.119,0.189-1.763,0.814-1.914,1.941
				c-0.074,0.557-0.037,1.127-0.047,1.691c-0.004,0.217-0.002,0.434-0.002,0.67c-0.484,0-0.938,0-1.4,0c0,0.76,0,1.496,0,2.271
				c0.471,0,0.928,0,1.406,0c0,2.252,0,4.467,0,6.693c0.896,0,1.77,0,2.674,0c0-2.246,0-4.479,0-6.738c0.643,0,1.254,0,1.873,0
				c0.066-0.756,0.129-1.482,0.195-2.232c-0.699,0-1.371,0-2.07,0c0-0.477-0.004-0.93,0.002-1.383
				c0.006-0.523,0.154-0.668,0.686-0.676c0.168-0.004,0.336-0.002,0.506-0.002c0.285,0,0.57,0,0.869,0
				C21.076,81.016,21.076,80.268,21.076,79.482z"/>
		</g>
		<g>
			<path fill-rule="evenodd" clip-rule="evenodd" fill="#501313" d="M43.115,96.67c-0.314,0-0.629,0.002-0.943,0
				c-0.119,0-0.244,0.025-0.345-0.072c-0.019-0.018-0.06-0.012-0.091-0.016c-0.348-0.057-0.701-0.09-1.043-0.176
				c-0.482-0.121-0.967-0.248-1.426-0.43c-0.498-0.199-0.979-0.447-1.451-0.703c-0.367-0.203-0.713-0.443-1.057-0.682
				c-0.197-0.139-0.379-0.301-0.557-0.465c-0.316-0.291-0.648-0.57-0.932-0.891c-0.336-0.383-0.635-0.799-0.934-1.213
				c-0.387-0.535-0.703-1.113-0.955-1.721c-0.182-0.438-0.322-0.895-0.459-1.35c-0.1-0.332-0.17-0.676-0.24-1.016
				c-0.029-0.133-0.02-0.27-0.039-0.402c-0.012-0.084-0.047-0.164-0.068-0.248c-0.008-0.033-0.018-0.068-0.018-0.104
				c-0.002-0.75-0.002-1.502,0.004-2.254c0-0.057,0.035-0.113,0.053-0.17c0.012-0.039,0.025-0.078,0.031-0.117
				c0.059-0.338,0.094-0.682,0.176-1.014c0.096-0.4,0.221-0.795,0.35-1.188c0.148-0.445,0.326-0.881,0.555-1.295
				c0.344-0.629,0.725-1.234,1.189-1.783c0.229-0.271,0.445-0.553,0.699-0.799c0.291-0.281,0.611-0.535,0.926-0.793
				c0.184-0.15,0.373-0.293,0.568-0.428c0.238-0.162,0.479-0.328,0.732-0.467c0.359-0.199,0.721-0.396,1.1-0.557
				c0.396-0.164,0.811-0.289,1.22-0.422c0.261-0.082,0.524-0.152,0.79-0.209c0.223-0.049,0.451-0.066,0.676-0.104
				c0.094-0.016,0.186-0.047,0.279-0.068c0.047-0.01,0.096-0.02,0.145-0.02c0.707-0.002,1.412-0.002,2.119,0
				c0.062,0.002,0.123,0.037,0.186,0.057c0.033,0.01,0.068,0.031,0.102,0.029c0.336-0.016,0.654,0.088,0.979,0.148
				c0.59,0.109,1.152,0.309,1.707,0.527c0.41,0.162,0.805,0.367,1.191,0.584c0.357,0.197,0.699,0.426,1.035,0.656
				c0.184,0.125,0.346,0.283,0.516,0.426c0.16,0.135,0.332,0.26,0.48,0.408c0.281,0.279,0.561,0.561,0.818,0.859
				c0.244,0.279,0.477,0.572,0.68,0.885c0.408,0.629,0.775,1.281,1.061,1.977c0.152,0.371,0.271,0.756,0.377,1.143
				c0.102,0.367,0.186,0.742,0.244,1.119c0.055,0.348,0.018,0.715,0.107,1.051c0.102,0.385,0.061,0.766,0.055,1.143
				c-0.008,0.375-0.092,0.746-0.139,1.121c-0.01,0.078-0.006,0.16-0.021,0.24c-0.049,0.252-0.1,0.504-0.162,0.754
				c-0.084,0.342-0.16,0.689-0.281,1.018c-0.146,0.402-0.332,0.791-0.514,1.18c-0.115,0.25-0.252,0.494-0.383,0.736
				c-0.053,0.096-0.113,0.189-0.178,0.277c-0.227,0.311-0.443,0.629-0.691,0.924c-0.318,0.381-0.652,0.754-1.002,1.105
				c-0.223,0.223-0.488,0.402-0.736,0.6c-0.119,0.096-0.236,0.193-0.361,0.277c-0.209,0.143-0.42,0.281-0.637,0.414
				c-0.26,0.156-0.516,0.322-0.787,0.453c-0.361,0.17-0.729,0.328-1.105,0.455c-0.471,0.158-0.951,0.287-1.434,0.41
				c-0.223,0.057-0.459,0.068-0.688,0.107c-0.093,0.016-0.182,0.051-0.273,0.072c-0.043,0.012-0.088,0.016-0.133,0.016
				C43.826,96.67,43.471,96.67,43.115,96.67L43.115,96.67z M43.092,92.039c1.236,0,2.473,0.002,3.711-0.002
				c0.076,0,0.156-0.043,0.232-0.068c0.08-0.027,0.156-0.072,0.238-0.086c0.275-0.039,0.521-0.164,0.723-0.33
				c0.279-0.23,0.551-0.48,0.721-0.82c0.156-0.311,0.26-0.629,0.262-0.969c0.012-1.818,0.012-3.633,0.017-5.451
				c0-0.104-0.034-0.146-0.14-0.146c-0.871-0.002-1.744-0.006-2.617-0.008c-0.123,0-0.139,0.037-0.088,0.148
				c0.104,0.225,0.219,0.445,0.299,0.678c0.1,0.297,0.158,0.602,0.174,0.92c0.023,0.449-0.049,0.881-0.18,1.309
				c-0.032,0.104-0.074,0.207-0.125,0.305c-0.086,0.162-0.18,0.322-0.279,0.477c-0.105,0.164-0.207,0.336-0.338,0.48
				c-0.129,0.145-0.291,0.26-0.441,0.387c-0.082,0.066-0.17,0.127-0.258,0.186c-0.408,0.262-0.855,0.457-1.332,0.508
				c-0.551,0.059-1.105,0.055-1.648-0.137c-0.531-0.186-1.004-0.447-1.381-0.867c-0.188-0.207-0.391-0.408-0.529-0.646
				c-0.154-0.262-0.262-0.557-0.355-0.848c-0.078-0.244-0.131-0.5-0.152-0.756c-0.023-0.293-0.035-0.59,0.068-0.881
				c0.088-0.242,0.146-0.494,0.234-0.738c0.043-0.123,0.121-0.236,0.182-0.355c0.062-0.119,0.031-0.174-0.096-0.168
				c-0.076,0.002-0.152,0.008-0.229,0.008c-0.801-0.002-1.602-0.004-2.4-0.008c-0.078,0-0.119,0.027-0.115,0.109
				c0.006,0.09,0.008,0.18,0.008,0.27c0,1.58,0,3.158,0,4.736c0,0.424-0.01,0.842,0.158,1.25c0.076,0.189,0.168,0.363,0.287,0.514
				c0.166,0.211,0.336,0.424,0.592,0.541c0.154,0.074,0.303,0.162,0.459,0.232c0.129,0.057,0.275,0.082,0.396,0.154
				c0.09,0.055,0.174,0.076,0.273,0.074C40.645,92.039,41.869,92.039,43.092,92.039z M43.676,80.195v-0.002
				c-1.109,0-2.221,0-3.332-0.002c-0.092,0-0.143,0.021-0.143,0.127c0.006,0.861,0.008,1.725,0.012,2.588
				c0,0.168-0.078,0.246-0.242,0.246c-0.055,0.002-0.107,0.002-0.162,0c-0.158,0-0.203-0.037-0.203-0.195
				c-0.002-0.822-0.016-1.646,0.006-2.469c0.012-0.369-0.01-0.27-0.301-0.303c-0.088-0.008-0.123,0.033-0.121,0.119
				c0.002,0.301,0.006,0.602,0.006,0.902c0.004,0.611,0.004,1.223,0.007,1.834c0.001,0.084-0.034,0.113-0.112,0.113
				c-0.096-0.002-0.189-0.006-0.283,0c-0.115,0.01-0.156-0.027-0.156-0.15c0.006-0.777,0.004-1.555,0.004-2.334
				c0-0.08,0.008-0.162-0.002-0.242c-0.004-0.029-0.049-0.076-0.078-0.078c-0.137-0.012-0.336,0.188-0.336,0.328
				c0.002,0.709,0.002,1.42,0.004,2.131c0.002,0.295-0.049,0.346-0.342,0.344c-0.191,0-0.26-0.07-0.26-0.27
				c0-0.377-0.002-0.756,0-1.133c0-0.117,0.012-0.232,0.008-0.35c-0.002-0.039-0.025-0.088-0.055-0.109
				c-0.014-0.012-0.076,0.016-0.099,0.041c-0.034,0.043-0.056,0.1-0.075,0.15c-0.014,0.033-0.01,0.072-0.02,0.105
				c-0.041,0.154-0.113,0.305-0.121,0.457c-0.023,0.467-0.021,0.934-0.031,1.402c-0.003,0.098,0.055,0.107,0.131,0.107
				c1.07,0,2.141,0.002,3.211-0.006c0.066,0,0.146-0.037,0.199-0.082c0.168-0.152,0.33-0.311,0.543-0.404
				c0.217-0.096,0.416-0.246,0.641-0.307c0.307-0.082,0.621-0.16,0.947-0.164c0.389-0.004,0.771,0.01,1.145,0.115
				c0.203,0.059,0.4,0.15,0.594,0.242c0.311,0.148,0.607,0.32,0.863,0.557c0.033,0.031,0.096,0.045,0.146,0.045
				c1.057,0.004,2.113,0.004,3.17,0.006c0.113,0,0.162-0.033,0.16-0.156c-0.008-0.367,0.002-0.736-0.014-1.104
				c-0.008-0.164-0.037-0.332-0.094-0.486c-0.086-0.229-0.201-0.445-0.328-0.66c-0.154-0.264-0.387-0.428-0.613-0.588
				c-0.391-0.275-0.848-0.375-1.332-0.371C45.637,80.203,44.656,80.195,43.676,80.195z M40.186,86.088
				c0.031,0.182,0.057,0.369,0.098,0.555c0.047,0.205,0.088,0.418,0.17,0.609c0.092,0.213,0.207,0.424,0.35,0.602
				c0.295,0.369,0.652,0.676,1.09,0.867c0.17,0.074,0.34,0.164,0.519,0.193c0.216,0.035,0.433,0.043,0.628,0.162
				c0.035,0.023,0.104,0.002,0.152-0.012c0.054-0.014,0.102-0.053,0.156-0.064c0.166-0.033,0.342-0.035,0.5-0.092
				c0.262-0.094,0.514-0.221,0.768-0.336c0.084-0.039,0.178-0.07,0.242-0.133c0.189-0.186,0.379-0.373,0.541-0.58
				c0.143-0.184,0.268-0.387,0.369-0.596c0.143-0.287,0.209-0.602,0.242-0.922c0.049-0.453-0.029-0.883-0.184-1.303
				c-0.041-0.115-0.092-0.227-0.152-0.334c-0.074-0.131-0.152-0.262-0.248-0.377c-0.109-0.133-0.234-0.254-0.361-0.367
				c-0.139-0.125-0.283-0.246-0.436-0.355c-0.105-0.076-0.225-0.141-0.346-0.193c-0.113-0.051-0.234-0.084-0.354-0.113
				c-0.201-0.051-0.402-0.113-0.607-0.135c-0.367-0.037-0.719,0.051-1.072,0.145c-0.35,0.094-0.648,0.271-0.928,0.48
				c-0.307,0.229-0.562,0.521-0.75,0.859c-0.117,0.211-0.207,0.443-0.27,0.678C40.24,85.568,40.225,85.824,40.186,86.088z"/>
			<path fill-rule="evenodd" clip-rule="evenodd" fill="#501313" d="M48.09,82.131c0,0.211,0.002,0.422,0,0.635
				c-0.002,0.059,0.006,0.145-0.029,0.174c-0.098,0.084-0.215,0.197-0.328,0.203c-0.447,0.023-0.898,0.01-1.348,0.01
				c-0.184,0.002-0.35-0.219-0.354-0.398c-0.014-0.453-0.008-0.908-0.006-1.361c0-0.127,0.236-0.299,0.412-0.301
				c0.262-0.004,0.521-0.002,0.783-0.002c0.106,0,0.217,0.016,0.322-0.002c0.223-0.035,0.377,0.08,0.52,0.219
				c0.023,0.021,0.029,0.072,0.029,0.109c0.002,0.238,0.002,0.477,0.002,0.715C48.092,82.131,48.092,82.131,48.09,82.131z"/>
			<path fill-rule="evenodd" clip-rule="evenodd" fill="#501313" d="M43.074,83.516c0.412,0.098,0.822,0.107,1.184,0.328
				c0.168,0.102,0.348,0.178,0.482,0.328c0.033,0.035,0.104,0.039,0.139,0.076c0.062,0.066,0.104,0.15,0.164,0.219
				c0.152,0.172,0.284,0.357,0.357,0.572c0.055,0.154,0.16,0.295,0.135,0.473c-0.004,0.029-0.004,0.066,0.012,0.09
				c0.172,0.271,0.09,0.568,0.061,0.848c-0.012,0.107-0.049,0.232-0.078,0.348c-0.047,0.17-0.123,0.338-0.207,0.494
				c-0.1,0.186-0.215,0.365-0.342,0.535c-0.049,0.066-0.156,0.09-0.213,0.152c-0.199,0.221-0.469,0.326-0.725,0.449
				c-0.133,0.064-0.287,0.094-0.434,0.123c-0.17,0.037-0.348,0.098-0.512,0.076c-0.398-0.051-0.789-0.117-1.162-0.305
				c-0.361-0.18-0.619-0.459-0.861-0.746c-0.145-0.172-0.303-0.371-0.326-0.633c-0.016-0.188-0.125-0.363-0.146-0.551
				c-0.025-0.225-0.076-0.461,0.039-0.682c0.016-0.031,0.014-0.07,0.016-0.105c0.012-0.268,0.094-0.527,0.23-0.744
				c0.154-0.248,0.377-0.457,0.576-0.678c0.227-0.254,0.525-0.387,0.842-0.48C42.561,83.625,42.826,83.574,43.074,83.516z"/>
		</g>
	</g>
	<g>
		<path fill-rule="evenodd" clip-rule="evenodd" fill="#FFFFFF" d="M49.305,34.805c1.167,0.924,1.82,0.969,3.048,0.189
			c0.861,0.699,1.731,1.406,2.596,2.105c-1.063,1.709-3.537,2.457-5.603,1.639c-0.84-0.334-1.625-0.84-2.377-1.352
			c-1.215-0.83-2.451-1.531-3.898-1.939c-3.586-1.012-5.836-4.611-5.242-8.168c0.605-3.641,3.848-6.277,7.651-6.225
			c3.691,0.055,6.835,2.812,7.285,6.432c0.345,2.783-0.677,5.016-2.829,6.764c-0.203,0.164-0.413,0.318-0.617,0.479
			C49.305,34.742,49.309,34.779,49.305,34.805z M49.142,28.488c0.029-2.16-1.614-3.893-3.739-3.939
			c-2.15-0.045-3.957,1.678-3.985,3.809c-0.027,2.156,1.689,3.902,3.854,3.918C47.445,32.291,49.109,30.662,49.142,28.488z"/>
		<path fill-rule="evenodd" clip-rule="evenodd" fill="#FFFFFF" d="M7.559,35.504c0-4.748,0-9.408,0-14.125
			c0.219-0.023,0.417-0.062,0.613-0.064c1.939-0.002,3.881,0.006,5.82-0.002c5.199-0.025,7.141,4.02,6.839,7.795
			c-0.224,2.783-1.404,4.971-4.175,6.004c-0.508,0.189-1.059,0.365-1.594,0.375C12.579,35.525,10.096,35.504,7.559,35.504z
			 M11.193,32.014c1.029,0,1.962,0,2.91,0c1.517,0,2.475-0.863,2.881-2.236c0.499-1.695,0.066-3.479-1.068-4.311
			c-0.25-0.182-0.924-0.666-1.812-0.666c-1.215,0-1.598-0.023-2.91-0.023C11.193,27.287,11.193,29.6,11.193,32.014z"/>
		<path fill-rule="evenodd" clip-rule="evenodd" fill="#FFFFFF" d="M34.678,30.951c-1.181-2.869-2.382-5.73-3.538-8.607
			c-0.199-0.492-0.446-0.646-0.974-0.646H27.95c-0.526,0-0.774,0.154-0.974,0.646c-1.156,2.877-2.357,5.738-3.538,8.607
			c-0.632,1.537-1.251,3.08-1.906,4.697h2.357c1.562,0,1.59,0.012,2.114-1.406c0.182-0.498,0.428-0.652,0.954-0.631
			c0.699,0.029,1.397,0.023,2.101,0.016c0.701,0.008,1.4,0.014,2.1-0.016c0.527-0.021,0.771,0.133,0.955,0.631
			c0.523,1.418,0.551,1.406,2.112,1.406h2.358C35.928,34.031,35.311,32.488,34.678,30.951z M27.498,30.373
			c0.512-1.342,1.006-2.633,1.561-4.084c0.553,1.451,1.049,2.742,1.56,4.084H27.498z"/>
		<path fill-rule="evenodd" clip-rule="evenodd" fill="#FFFFFF" d="M56.014,21.355c1.185,0,2.328,0,3.588,0c0,0.287,0,0.564,0,0.842
			c0.004,2.383-0.016,4.768,0.017,7.15c0.021,1.562,0.739,2.551,1.978,2.85c2.031,0.494,3.576-0.469,3.727-2.545
			c0.155-2.111,0.068-4.238,0.085-6.359c0.006-0.625,0-1.248,0-1.924c1.233,0,2.39,0,3.632,0c0,1.002,0.008,1.965-0.003,2.93
			c-0.021,1.988,0.063,3.986-0.105,5.963c-0.323,3.811-3.373,5.883-7.202,5.51c-3.641-0.355-5.691-2.639-5.755-6.305
			c-0.045-2.514-0.014-5.031-0.013-7.545C55.961,21.746,55.994,21.57,56.014,21.355z"/>
		<path fill-rule="evenodd" clip-rule="evenodd" fill="#FFFFFF" d="M76.211,35.514c-1.19,0-2.334,0-3.523,0
			c0-4.725,0-9.418,0-14.156c1.175,0,2.318,0,3.523,0C76.211,26.055,76.211,30.748,76.211,35.514z"/>
	</g>
	<path fill-rule="evenodd" clip-rule="evenodd" fill="#FFFFFF" d="M38.586,9.262c-1.182-2.869-2.384-5.729-3.539-8.607
		c-0.199-0.492-0.446-0.648-0.975-0.648h-2.215c-0.527,0-0.775,0.156-0.974,0.648c-1.156,2.879-2.358,5.738-3.538,8.607
		c-0.632,1.537-1.25,3.078-1.906,4.697h2.357c1.562,0,1.59,0.01,2.113-1.406c0.184-0.498,0.428-0.652,0.955-0.633
		c0.699,0.031,1.398,0.025,2.1,0.016c0.701,0.01,1.401,0.016,2.101-0.016c0.526-0.02,0.772,0.135,0.954,0.633
		c0.524,1.416,0.551,1.406,2.113,1.406h2.358C39.836,12.34,39.217,10.799,38.586,9.262z M31.406,8.684
		c0.51-1.342,1.005-2.633,1.559-4.084c0.555,1.451,1.049,2.742,1.561,4.084H31.406z"/>
	<path fill-rule="evenodd" clip-rule="evenodd" fill="#FFFFFF" d="M67.445,9.262c-1.181-2.869-2.383-5.729-3.539-8.607
		c-0.198-0.492-0.445-0.648-0.973-0.648h-2.216c-0.527,0-0.774,0.156-0.974,0.648c-1.156,2.879-2.357,5.738-3.538,8.607
		c-0.632,1.537-1.251,3.078-1.907,4.697h2.359c1.562,0,1.589,0.01,2.113-1.406c0.183-0.498,0.428-0.652,0.953-0.633
		c0.7,0.031,1.399,0.025,2.102,0.016c0.701,0.01,1.4,0.016,2.1-0.016c0.526-0.02,0.771,0.135,0.954,0.633
		c0.524,1.416,0.552,1.406,2.114,1.406h2.357C68.695,12.34,68.077,10.799,67.445,9.262z M60.266,8.684
		c0.511-1.342,1.006-2.633,1.561-4.084c0.553,1.451,1.048,2.742,1.559,4.084H60.266z"/>
	<path fill-rule="evenodd" clip-rule="evenodd" fill="#FFFFFF" d="M42.688,0.053c2.283,0,4.544-0.006,6.805,0.008
		c0.359,0.004,0.725,0.08,1.076,0.164c2.678,0.654,4.081,2.863,3.809,5.973c-0.217,2.494-2.118,4.527-4.701,4.527
		c-1.153,0-2.229,0-3.401,0c0,1.117,0,2.123,0,3.174c-1.214,0-2.37,0-3.587,0C42.688,9.314,42.688,4.711,42.688,0.053z
		 M46.296,3.342c0,1.434,0,2.787,0,4.17c0.999,0,1.958,0,2.907,0c0.993,0,1.555-0.939,1.564-2.1c0.01-1.125-0.575-2.07-1.552-2.07
		C48.265,3.342,47.305,3.342,46.296,3.342z"/>
	<path fill-rule="evenodd" clip-rule="evenodd" fill="#FFFFFF" d="M23.121,0v13.918h-3.549V7.529
		c-0.202,0.375-1.584,2.938-2.375,4.438c-0.695,1.316-1.074,1.48-1.877,1.48l0,0c-0.804,0-1.143-0.164-1.839-1.48
		c-0.79-1.5-2.173-4.062-2.374-4.438v6.389H7.559V0h2.71c0.69,0,1.014,0.209,1.282,0.805c1.178,2.611,3.694,8.037,3.789,8.123
		c0.095-0.086,2.611-5.512,3.788-8.123C19.396,0.209,19.72,0,20.41,0H23.121z"/>
	<g>
		<path fill-rule="evenodd" clip-rule="evenodd" fill="#FFFFFF" d="M17.141,43.428c-0.023-0.006-0.049-0.018-0.067-0.025
			c-0.409-0.182-0.837-0.322-1.282-0.426c-0.514-0.123-1.051-0.189-1.594-0.197c-1.797-0.023-3.469,0.551-4.795,1.541
			c-0.024,0.018-0.049,0.043-0.073,0.061c-0.764,0.586-1.411,1.312-1.888,2.15c-0.066,0.115-0.127,0.238-0.194,0.354
			C7.186,47,7.131,47.123,7.076,47.246c-0.251,0.549-0.428,1.141-0.531,1.758c-0.525,3.156,1.184,6.34,4.078,7.727
			c0.099,0.049,0.197,0.098,0.294,0.141c0.403,0.176,0.824,0.322,1.259,0.428c0.012,0.006,0.018,0.006,0.03,0.006
			c0.53,0.135,1.087,0.201,1.655,0.215c1.881,0.023,3.628-0.611,4.983-1.705c0.048-0.037,0.104-0.08,0.152-0.129
			c0.745-0.629,1.368-1.396,1.808-2.277c0.061-0.123,0.123-0.238,0.172-0.361c0.25-0.549,0.428-1.143,0.531-1.758
			C22.057,48.033,20.207,44.736,17.141,43.428z M16.75,52.906c-0.263,0.258-0.562,0.477-0.893,0.654
			c-0.109,0.057-0.225,0.109-0.336,0.158c-0.463,0.189-0.982,0.293-1.532,0.287c-0.806-0.006-1.545-0.25-2.163-0.672
			c-0.104-0.072-0.201-0.146-0.292-0.221c-0.837-0.725-1.356-1.812-1.338-3.027c0.013-1.076,0.427-2.016,1.105-2.693
			c0.349-0.35,0.77-0.623,1.24-0.818c0.464-0.184,0.978-0.287,1.526-0.281c0.672,0.006,1.301,0.178,1.845,0.477
			c0.11,0.061,0.214,0.129,0.317,0.195c1.002,0.707,1.648,1.893,1.631,3.248c-0.013,0.947-0.336,1.795-0.879,2.443
			C16.908,52.742,16.836,52.828,16.75,52.906z"/>
		<circle fill-rule="evenodd" clip-rule="evenodd" fill="#FFFFFF" cx="1.832" cy="55.281" r="1.832"/>
	</g>
	<g>
		<path fill-rule="evenodd" clip-rule="evenodd" fill="#FFFFFF" d="M24.688,43.303c2.283,0,4.544-0.006,6.805,0.008
			c0.359,0.004,0.725,0.08,1.076,0.164c2.678,0.654,4.081,2.863,3.809,5.973c-0.217,2.494-2.118,4.527-4.701,4.527
			c-1.153,0-2.229,0-3.401,0c0,1.117,0,2.123,0,3.174c-1.214,0-2.37,0-3.587,0C24.688,52.564,24.688,47.961,24.688,43.303z
			 M28.296,46.592c0,1.434,0,2.787,0,4.17c0.999,0,1.958,0,2.907,0c0.993,0,1.555-0.939,1.564-2.1c0.01-1.125-0.575-2.07-1.552-2.07
			C30.265,46.592,29.305,46.592,28.296,46.592z"/>
		<polygon fill-rule="evenodd" clip-rule="evenodd" fill="#FFFFFF" points="36.09,57.127 32.527,57.127 30.277,51.752 33.84,51.752 
					"/>
	</g>
	<path fill-rule="evenodd" clip-rule="evenodd" fill="#FFFFFF" d="M52.559,48.991h-0.021v-0.146h-5.323v2.833h2.344v1.114
		c-0.036,0.039-0.071,0.078-0.113,0.117c-0.262,0.256-0.562,0.477-0.891,0.652c-0.111,0.055-0.227,0.111-0.336,0.16
		c-0.465,0.189-0.983,0.293-1.533,0.285c-0.806-0.006-1.545-0.248-2.162-0.67c-0.104-0.074-0.201-0.148-0.293-0.221
		c-0.837-0.727-1.355-1.814-1.338-3.029c0.012-1.074,0.428-2.016,1.105-2.693c0.348-0.35,0.77-0.623,1.239-0.818
		c0.465-0.184,0.978-0.287,1.527-0.281c0.672,0.006,1.302,0.176,1.845,0.477c0.109,0.061,0.214,0.129,0.317,0.195
		c0.202,0.141,0.392,0.307,0.568,0.488l2.558-2.553c-0.634-0.611-1.379-1.111-2.216-1.473c-0.024-0.004-0.049-0.018-0.067-0.023
		c-0.409-0.184-0.836-0.322-1.282-0.428c-0.513-0.121-1.051-0.189-1.595-0.195c-1.795-0.023-3.469,0.551-4.793,1.539
		c-0.025,0.02-0.051,0.043-0.074,0.061c-0.764,0.588-1.411,1.312-1.887,2.15c-0.068,0.117-0.129,0.238-0.196,0.354
		c-0.061,0.117-0.116,0.238-0.171,0.361c-0.25,0.549-0.427,1.143-0.531,1.758c-0.525,3.158,1.186,6.342,4.08,7.727
		c0.098,0.049,0.195,0.1,0.293,0.141c0.402,0.178,0.824,0.324,1.258,0.428c0.012,0.008,0.019,0.008,0.031,0.008
		c0.531,0.133,1.087,0.199,1.654,0.211c1.882,0.025,3.628-0.609,4.984-1.703c0.049-0.035,0.104-0.08,0.152-0.127
		c0.158-0.137,0.306-0.27,0.451-0.416l0.414-0.459v0.01V48.991z"/>
</g>
<g>
</g>
<g>
</g>
<g>
</g>
<g>
</g>
<g>
</g>
<g>
</g>
</svg>
