<?xml version="1.0" encoding="UTF-8" standalone="no"?>
<svg width="39px" height="39px" viewBox="0 0 39 39" version="1.1" xmlns="http://www.w3.org/2000/svg" xmlns:xlink="http://www.w3.org/1999/xlink" xmlns:sketch="http://www.bohemiancoding.com/sketch/ns">
    <!-- Generator: bin/sketchtool 1.4 (305) - http://www.bohemiancoding.com/sketch -->
    <title>Mapa do local</title>
    <desc>Created with bin/sketchtool.</desc>
    <defs></defs>
    <g id="Page-1" stroke="none" stroke-width="1" fill="none" fill-rule="evenodd" sketch:type="MSPage">
        <g id="Landing" sketch:type="MSArtboardGroup" transform="translate(-663.000000, -1373.000000)" fill="#6A908B">
            <g id="Faixa:-Adote-um-mapa" sketch:type="MSLayerGroup" transform="translate(-25.500000, 995.000000)">
                <g id="Mapa-do-local" transform="translate(689.000000, 378.399684)" sketch:type="MSShapeGroup">
                    <path d="M19.0276895,0.0312899783 C8.54227682,0.0312899783 0.0419454844,8.53156494 0.0419454844,19.0169776 C0.0419454844,29.5024466 8.54227682,38.0027216 19.0276895,38.0027216 C29.5131022,38.0027216 38.0134335,29.5021084 38.0134335,19.0169776 C38.0134335,8.53195959 29.5131022,0.0312899783 19.0276895,0.0312899783 L19.0276895,0.0312899783 Z M19.0276895,36.1042374 C9.59142134,36.1042374 1.94054244,28.4529639 1.94054244,19.0169776 C1.94054244,9.58070946 9.59142134,1.92983055 19.0276895,1.92983055 C28.4639576,1.92983055 36.1148365,9.58070946 36.1148365,19.0169776 C36.1148365,28.4529639 28.4636194,36.1042374 19.0276895,36.1042374 L19.0276895,36.1042374 Z" id="Fill-1"></path>
                    <path id="Fill-2" d="M22.9140348,2.37935851 L22.9106348,2.37865851 L22.9140348,2.37935851"></path>
                    <path id="Fill-3" d="M30.810255,31.3850556 L30.811555,31.3843556 L30.810255,31.3850556"></path>
                    <path id="Fill-4" d="M6.84568346,30.9947813 L6.84638346,30.9953813 L6.84568346,30.9947813"></path>
                    <path id="Fill-5" d="M35.5137871,23.510607 L35.5137871,23.507907 L35.5137871,23.510607"></path>
                    <path id="Fill-6" d="M35.7912154,15.7046284 L35.7898154,15.6979284 L35.7912154,15.7053284 L35.7912154,15.7046284"></path>
                    <path id="Fill-7" d="M35.5942953,14.8238386 L35.5942953,14.8238386 L35.5948953,14.8251386 L35.5942953,14.8238386"></path>
                    <path id="Fill-8" d="M35.7263178,22.6470661 L35.7263178,22.6470661 C35.7250178,22.6531661 35.7236178,22.6585661 35.7222178,22.6639661 C35.7236178,22.6579661 35.7250178,22.6524661 35.7263178,22.6470661"></path>
                    <path id="Fill-9" d="M6.66002959,7.23464092 L6.66002959,7.23464092 L6.66132959,7.23334092 L6.66002959,7.23464092"></path>
                    <path id="Fill-10" d="M22.3426231,35.7802546 L22.3493231,35.7795546 L22.3426231,35.7802546"></path>
                    <path id="Fill-11" d="M15.4043623,2.31979952 C15.3990623,2.32119952 15.3936623,2.32249952 15.3888623,2.32389952 C15.3936623,2.32249952 15.3990623,2.32119952 15.4043623,2.31979952"></path>
                    <path d="M12.2577785,18.7485603 C11.4379247,18.7485603 10.7726603,19.4134301 10.7726603,20.2339604 L12.2577785,22.5263601 L13.7435733,20.2339604 C13.7435733,19.4138247 13.0783089,18.7485603 12.2577785,18.7485603 L12.2577785,18.7485603 Z M12.2585114,20.7940792 C11.8784087,20.7940792 11.5704138,20.4857461 11.5704138,20.106038 C11.5704138,19.7263299 11.8788033,19.4183914 12.2585114,19.4183914 C12.6378249,19.4183914 12.946158,19.7263299 12.946158,20.106038 C12.946158,20.4857461 12.6378249,20.7940792 12.2585114,20.7940792 L12.2585114,20.7940792 Z" id="Fill-12"></path>
                    <path id="Fill-13" d="M20.5894259,2.00391169 C20.8051294,2.03159443 21.0204383,2.0651092 21.2338303,2.10391169 C21.0200436,2.06565352 20.805524,2.03112786 20.5894259,2.00391169"></path>
                    <path id="Fill-14" d="M19.8304043,1.95035227 C19.9963821,1.96445227 20.1603867,1.98735227 20.3247859,2.00965227 C20.1603867,1.98805227 19.9959875,1.96385227 19.8304043,1.95035227"></path>
                    <path id="Fill-15" d="M17.1929128,2.06439047 C17.4560305,2.02055367 17.7218544,1.98956408 17.9884112,1.96439047 C17.7218544,1.98895645 17.4564252,2.02116131 17.1929128,2.06439047"></path>
                    <path id="Fill-16" d="M15.4006454,2.31946125 C15.9694465,2.19638734 16.548903,2.10184086 17.1367036,2.0361601 C16.5485084,2.10110795 15.9694465,2.19638734 15.4006454,2.31946125"></path>
                    <path id="Fill-17" d="M18.1118234,1.97433055 C18.4151952,1.94533055 18.7201456,1.92983055 19.0276895,1.92983055 C18.7201456,1.92983055 18.4151952,1.94533055 18.1118234,1.97433055"></path>
                    <path id="Fill-18" d="M35.5137871,23.507907 C35.590067,23.2269173 35.6599761,22.9432779 35.7222178,22.6565941 C35.6595815,22.9432779 35.5904616,23.2269173 35.5137871,23.507907"></path>
                    <path id="Fill-19" d="M22.9106348,2.37865851 C22.3870492,2.25676854 21.8542739,2.15917764 21.3136056,2.08667509 C21.5505074,2.1189235 21.786338,2.15540029 22.02059,2.19678199 C22.3198462,2.24955211 22.6171292,2.31032796 22.9106348,2.37865851"></path>
                    <path id="Fill-20" d="M35.5946336,14.8245715 C35.6671925,15.1127776 35.7316893,15.4040281 35.7898154,15.6979284 C35.732084,15.4040281 35.6675308,15.1127776 35.5946336,14.8245715"></path>
                    <path d="M12.8151912,26.9431519 L20.0400189,34.1680361 C20.8404222,34.1152096 21.6237993,34.0005361 22.385527,33.8277928 L14.1578413,25.6005018 L12.8151912,26.9431519" id="Fill-21"></path>
                    <path d="M12.3819236,11.0221345 L8.98614349,7.62635433 C8.5110996,8.04552728 8.06266629,8.49356594 7.64304231,8.96860983 L11.0392735,12.3647846 L12.3819236,11.0221345" id="Fill-22"></path>
                    <path d="M26.0649465,26.2240462 L24.722691,24.8813397 L25.4820509,24.1218671 L13.7242355,12.3647846 L12.381529,13.7074911 L17.8737376,19.1993052 L18.5511798,18.521863 L19.8934353,19.8645696 L19.2160495,20.5415607 L29.0753244,30.4008355 C29.5503682,29.9816625 29.9988015,29.5332292 30.4175799,29.0577907 L26.8239681,25.4645736 L26.0649465,26.2240462" id="Fill-23"></path>
                    <path d="M18.6878409,4.71616083 L17.8497768,3.8781532 C17.0561953,3.9393237 16.2800911,4.06042437 15.5251852,4.23886181 L17.3451343,6.05847271 L18.6878409,4.71616083" id="Fill-24"></path>
                    <path d="M31.7866151,17.8166264 L30.444134,19.1592765 L18.6850219,7.4017994 L20.0274466,6.05914925 L31.7866151,17.8166264" id="Fill-25"></path>
                    <path d="M33.1303364,19.1586564 L31.7876299,20.5013629 L33.8054106,22.518749 C33.9839045,21.7642377 34.1050615,20.9877388 34.165781,20.1944956 L33.1303364,19.1586564" id="Fill-26"></path>
                    <path d="M12.1920414,26.3197203 L13.5346915,24.9770137 L14.158236,25.6005018 L19.2167824,20.5419553 L17.8741323,19.1996998 L7.81398144,29.259456 C8.24116012,29.7268324 8.69945963,30.1657942 9.18166357,30.5770178 L12.8151912,26.9435466 L12.1920414,26.3197203" id="Fill-27"></path>
                    <path d="M12.8151348,26.9432647 L12.1916467,26.3198894 L13.534466,24.9770701 L14.1578413,25.6005582 L12.8151348,26.9432647" id="Fill-28"></path>
                    <path d="M18.5512925,18.5218067 L19.893548,19.8645132 L19.2160495,20.5417862 L17.8737376,19.199136 L18.5512925,18.5218067" id="Fill-29"></path>
                    <path d="M26.8240245,25.46463 L25.4817126,24.1219235 L30.4458818,19.1592202 L31.7881937,20.5018703 L26.8240245,25.46463" id="Fill-30"></path>
                    <path d="M33.1303364,19.1586564 L34.1863027,18.1026901 C34.1380992,17.2980584 34.0268084,16.5112987 33.8585754,15.7450043 L31.7876299,17.8160062 L33.1303364,19.1586564" id="Fill-31"></path>
                    <path d="M26.0648338,26.2245536 L24.7225783,24.8819035 L25.4819381,24.1226564 L26.82425,25.4653065 L26.0648338,26.2245536" id="Fill-32"></path>
                    <path d="M31.7879681,20.5016448 L30.4456563,19.1589383 L31.7886447,17.8164009 L33.1309002,19.159051 L31.7879681,20.5016448" id="Fill-33"></path>
                    <path d="M4.87571153,18.5283465 C5.24668101,18.1573207 5.84744859,18.1573207 6.21802341,18.5283465 C6.58859824,18.899316 6.58899288,19.5000272 6.21802341,19.870602 C6.17207507,19.9166068 6.12274402,19.9568045 6.07031216,19.9909698 L6.08395572,20.0046697 L12.381529,13.7070965 L11.0388788,12.3644463 L4.87571153,18.5283465" id="Fill-34"></path>
                    <path id="Fill-35" d="M4.74130557,18.6624142 L4.75500551,18.6760578 C4.78950905,18.6240206 4.82976319,18.5742949 4.87571153,18.5283465 L4.74130557,18.6624142"></path>
                    <path d="M12.381529,11.0222472 L17.3449088,6.05881098 L18.6874462,7.401292 L13.72401,12.3647282 L12.381529,11.0222472" id="Fill-36"></path>
                    <path d="M20.0300964,6.05886736 L21.9723865,4.11663357 C21.1890095,3.96243882 20.3832503,3.87054212 19.561987,3.84207106 L18.6875026,4.71616083 L20.0300964,6.05886736" id="Fill-37"></path>
                    <path d="M12.3819236,13.7075475 L11.0394426,12.3650665 L12.3819236,11.0225855 L13.7244046,12.3650665 L12.3819236,13.7075475" id="Fill-38"></path>
                    <path d="M18.6885738,4.71711926 L20.0310548,6.05976941 L18.6883483,7.40225043 L17.3459236,6.05960028 L18.6885738,4.71711926" id="Fill-39"></path>
                    <path d="M4.87571153,19.870602 C5.20039439,20.1952849 5.70199247,20.235539 6.07031216,19.9909698 L4.75500551,18.6760578 C4.51083092,19.0447721 4.55108506,19.5459192 4.87571153,19.870602" id="Fill-40"></path>
                    <path d="M6.21802341,18.5283465 C5.84705394,18.1573207 5.24634274,18.1573207 4.87571153,18.5283465 C4.82976319,18.5742949 4.78950905,18.6240206 4.75500551,18.6760578 L6.07031216,19.9909698 C6.12234937,19.9564662 6.17207507,19.9166068 6.21802341,19.870602 C6.58899288,19.4996326 6.58899288,18.8989214 6.21802341,18.5283465" id="Fill-41"></path>
                </g>
            </g>
        </g>
    </g>
</svg>