<?xml version="1.0" encoding="UTF-8" standalone="no"?>
<svg width="105px" height="76px" viewBox="0 0 105 76" version="1.1" xmlns="http://www.w3.org/2000/svg" xmlns:xlink="http://www.w3.org/1999/xlink" xmlns:sketch="http://www.bohemiancoding.com/sketch/ns">
    <!-- Generator: bin/sketchtool 1.4 (305) - http://www.bohemiancoding.com/sketch -->
    <title>Pra onde fica?</title>
    <desc>Created with bin/sketchtool.</desc>
    <defs></defs>
    <g id="Page-1" stroke="none" stroke-width="1" fill="none" fill-rule="evenodd" sketch:type="MSPage">
        <g id="Landing" sketch:type="MSArtboardGroup" transform="translate(-297.000000, -2137.000000)">
            <g id="Faixa-:-Conheça-o-mapa" sketch:type="MSLayerGroup" transform="translate(0.000000, 1997.000000)">
                <g id="Conheça-o-mapa" transform="translate(268.000000, 44.000000)" sketch:type="MSShapeGroup">
                    <g id="Pra-onde-fica?" transform="translate(29.000000, 96.500000)">
                        <path d="M18.1269656,17.1642101 L18.1273235,9.7268564 L21.2521811,12.8317106 L22.6248423,11.4675023 L17.1322291,6.00924646 L11.5512188,11.5553436 L12.9240589,12.919552 L16.1373137,9.72650076 L16.1373137,17.1634988 L18.1269656,17.1642101" id="Fill-1" fill="#8F2F23"></path>
                        <path d="M23.2481702,37.0536988 L15.7637578,37.0533432 L18.8886154,33.9481334 L17.5154173,32.583925 L12.0228041,38.0420031 L17.6038145,43.5881002 L18.9766547,42.2238919 L15.7633999,39.0308407 L23.2478123,39.0308407 L23.2481702,37.0536988" id="Fill-2" fill="#8F2F23"></path>
                        <path d="M83.8189261,64.5428581 L91.3033386,64.543036 L88.1786599,67.6478902 L89.551679,69.0124541 L95.0444712,63.5540205 L89.4632818,58.0081011 L88.0904417,59.3726651 L91.3036965,62.5655385 L83.819284,62.5655385 L83.8189261,64.5428581" id="Fill-3" fill="#8F2F23"></path>
                        <path d="M0.51171875,24.0653092 L104,24.0653092 L104,25.1322083 L0.51171875,25.1322083 L0.51171875,24.0653092 Z" id="Fill-4" stroke="#953232" fill="#8F2F23"></path>
                        <path d="M0.51171875,50.4027405 L104,50.4027405 L104,51.4696396 L0.51171875,51.4696396 L0.51171875,50.4027405 Z" id="Fill-5" stroke="#953232" fill="#8F2F23"></path>
                        <rect id="Rectangle-96" stroke="#8F2F23" stroke-width="2" x="0" y="0" width="105" height="75.5"></rect>
                    </g>
                </g>
            </g>
        </g>
    </g>
</svg>