<?xml version="1.0" encoding="utf-8"?>
<!-- Generator: Adobe Illustrator 16.0.4, SVG Export Plug-In . SVG Version: 6.00 Build 0)  -->
<!DOCTYPE svg PUBLIC "-//W3C//DTD SVG 1.1//EN" "http://www.w3.org/Graphics/SVG/1.1/DTD/svg11.dtd">
<svg version="1.1" id="Layer_1" xmlns="http://www.w3.org/2000/svg" xmlns:xlink="http://www.w3.org/1999/xlink" x="0px" y="0px"
	 width="111.667px" height="190.286px" viewBox="0 0 111.667 190.286" enable-background="new 0 0 111.667 190.286"
	 xml:space="preserve">
<g>
	<g>
		<path fill="#501313" d="M10.658,4.591h8.865v2.422h-6.107v4.255h5.377v2.363h-5.377v1.929h6.381v2.424h-9.139V4.591z"/>
		<path fill="#501313" d="M21.202,15.345l2.245-1.299c0.592,0.965,1.36,1.674,2.718,1.674c1.144,0,1.872-0.572,1.872-1.36
			c0-0.945-0.749-1.279-2.01-1.831l-0.689-0.295c-1.988-0.848-3.309-1.911-3.309-4.156c0-2.069,1.577-3.644,4.039-3.644
			c1.753,0,3.014,0.609,3.919,2.206l-2.147,1.379c-0.473-0.847-0.985-1.182-1.772-1.182c-0.809,0-1.32,0.511-1.32,1.182
			c0,0.826,0.512,1.161,1.694,1.674l0.689,0.294c2.343,1.004,3.663,2.029,3.663,4.333c0,2.481-1.949,3.841-4.569,3.841
			C23.665,18.163,22.01,16.941,21.202,15.345z"/>
		<path fill="#501313" d="M32.495,11.287c0-3.958,3.052-6.853,6.893-6.853c2.424,0,4.155,0.866,5.357,2.738l-2.107,1.497
			c-0.63-1.025-1.713-1.753-3.25-1.753c-2.423,0-4.057,1.871-4.057,4.372c0,2.502,1.634,4.412,4.057,4.412
			c1.734,0,2.698-0.825,3.447-1.969l2.147,1.477c-1.164,1.812-3.014,2.956-5.595,2.956C35.547,18.163,32.495,15.247,32.495,11.287z"
			/>
		<path fill="#501313" d="M51.942,4.473h0.237l6.125,13.512h-2.895l-0.632-1.518h-5.434l-0.631,1.518h-2.66L51.942,4.473z
			 M53.793,14.163l-0.964-2.324c-0.396-0.945-0.807-2.402-0.807-2.402s-0.394,1.458-0.788,2.402l-0.967,2.324H53.793z"/>
		<path fill="#501313" d="M64.102,11.76c-0.67-0.63-1.595-1.832-1.595-1.832s0.196,1.478,0.196,2.443v5.613h-2.581V4.473h0.277
			l6.755,6.343c0.649,0.609,1.577,1.831,1.577,1.831s-0.18-1.517-0.18-2.442V4.591h2.582v13.513h-0.277L64.102,11.76z"/>
		<path fill="#501313" d="M73.938,4.591h8.862v2.422h-6.105v4.255h5.377v2.363h-5.377v1.929h6.38v2.424h-9.137V4.591z"/>
		<path fill="#501313" d="M85.703,4.591h2.758v13.394h-2.758V4.591z"/>
		<path fill="#501313" d="M91.298,4.591h8.864v2.422h-6.106v4.255h5.376v2.363h-5.376v1.929h6.381v2.424h-9.139V4.591z"/>
		<path fill="#501313" d="M37.721,25.823h0.236l6.126,13.511h-2.897l-0.628-1.517h-5.437l-0.631,1.517h-2.659L37.721,25.823z
			 M39.572,35.512l-0.964-2.324c-0.394-0.944-0.809-2.402-0.809-2.402s-0.394,1.458-0.787,2.402l-0.966,2.324H39.572z"/>
		<path fill="#501313" d="M59.295,39.591l-1.831,1.515l-1.99-2.284c-0.927,0.433-1.968,0.69-3.094,0.69
			c-3.859,0-6.931-2.916-6.931-6.876c0-3.958,3.072-6.874,6.931-6.874c3.862,0,6.936,2.916,6.936,6.874
			c0,1.912-0.711,3.586-1.893,4.807L59.295,39.591z M52.146,35.02l1.853-1.516l1.693,1.95c0.512-0.729,0.788-1.695,0.788-2.818
			c0-2.5-1.654-4.412-4.098-4.412c-2.441,0-4.095,1.912-4.095,4.412c0,2.502,1.654,4.413,4.095,4.413
			c0.495,0,0.948-0.058,1.361-0.196L52.146,35.02z"/>
		<path fill="#501313" d="M61.607,34.489v-8.548h2.758v8.391c0,1.949,0.849,2.697,2.68,2.697c1.812,0,2.638-0.748,2.638-2.697
			v-8.391h2.759v8.548c0,3.388-2.345,5.023-5.396,5.023C63.952,39.512,61.607,37.876,61.607,34.489z"/>
		<path fill="#501313" d="M75.245,25.941h2.757v13.393h-2.757V25.941z"/>
	</g>
	<polygon fill="#501313" points="52.91,49.446 52.91,59.054 48.901,55.043 47.137,56.805 54.191,63.855 61.353,56.693 
		59.592,54.931 55.467,59.054 55.467,49.447 	"/>
	<g id="elements_1_" opacity="0.6">
		<path fill="#010101" d="M2.267,79.153h5.052v5.055H2.267V79.153z M7.319,79.153h5.055v5.055H7.319V79.153z M12.374,79.153h5.052
			v5.055h-5.052V79.153z M17.426,79.153h5.056v5.055h-5.056V79.153z M22.481,79.153h5.055v5.055h-5.055V79.153z M27.537,79.153
			h5.052v5.055h-5.052V79.153z M32.588,79.153h5.054v5.055h-5.054V79.153z M52.806,79.153h5.052v5.055h-5.052V79.153z
			 M57.857,79.153h5.054v5.055h-5.054V79.153z M62.911,79.153h5.056v5.055h-5.056V79.153z M73.022,79.153h5.052v5.055h-5.052V79.153
			z M78.074,79.153h5.054v5.055h-5.054V79.153z M83.128,79.153h5.056v5.055h-5.056V79.153z M88.184,79.153h5.052v5.055h-5.052
			V79.153z M93.235,79.153h5.056v5.055h-5.056V79.153z M98.291,79.153h5.055v5.055h-5.055V79.153z M103.346,79.153h5.052v5.055
			h-5.052V79.153z M2.267,84.208h5.052v5.054H2.267V84.208z M32.588,84.208h5.054v5.054h-5.054V84.208z M42.698,84.208h5.052v5.054
			h-5.052V84.208z M47.75,84.208h5.056v5.054H47.75V84.208z M52.806,84.208h5.052v5.054h-5.052V84.208z M62.911,84.208h5.056v5.054
			h-5.056V84.208z M73.022,84.208h5.052v5.054h-5.052V84.208z M103.346,84.208h5.052v5.054h-5.052V84.208z M2.267,89.262h5.052
			v5.054H2.267V89.262z M12.374,89.262h5.052v5.054h-5.052V89.262z M17.426,89.262h5.056v5.054h-5.056V89.262z M22.481,89.262h5.055
			v5.054h-5.055V89.262z M32.588,89.262h5.054v5.054h-5.054V89.262z M52.806,89.262h5.052v5.054h-5.052V89.262z M57.857,89.262
			h5.054v5.054h-5.054V89.262z M62.911,89.262h5.056v5.054h-5.056V89.262z M73.022,89.262h5.052v5.054h-5.052V89.262z
			 M83.128,89.262h5.056v5.054h-5.056V89.262z M88.184,89.262h5.052v5.054h-5.052V89.262z M93.235,89.262h5.056v5.054h-5.056V89.262
			z M103.346,89.262h5.052v5.054h-5.052V89.262z M2.267,94.316h5.052v5.055H2.267V94.316z M12.374,94.316h5.052v5.055h-5.052V94.316
			z M17.426,94.316h5.056v5.055h-5.056V94.316z M22.481,94.316h5.055v5.055h-5.055V94.316z M32.588,94.316h5.054v5.055h-5.054
			V94.316z M42.698,94.316h5.052v5.055h-5.052V94.316z M47.75,94.316h5.056v5.055H47.75V94.316z M62.911,94.316h5.056v5.055h-5.056
			V94.316z M73.022,94.316h5.052v5.055h-5.052V94.316z M83.128,94.316h5.056v5.055h-5.056V94.316z M88.184,94.316h5.052v5.055
			h-5.052V94.316z M93.235,94.316h5.056v5.055h-5.056V94.316z M103.346,94.316h5.052v5.055h-5.052V94.316z M2.267,99.371h5.052
			v5.053H2.267V99.371z M12.374,99.371h5.052v5.053h-5.052V99.371z M17.426,99.371h5.056v5.053h-5.056V99.371z M22.481,99.371h5.055
			v5.053h-5.055V99.371z M32.588,99.371h5.054v5.053h-5.054V99.371z M47.75,99.371h5.056v5.053H47.75V99.371z M62.911,99.371h5.056
			v5.053h-5.056V99.371z M73.022,99.371h5.052v5.053h-5.052V99.371z M83.128,99.371h5.056v5.053h-5.056V99.371z M88.184,99.371
			h5.052v5.053h-5.052V99.371z M93.235,99.371h5.056v5.053h-5.056V99.371z M103.346,99.371h5.052v5.053h-5.052V99.371z
			 M2.267,104.424h5.052v5.052H2.267V104.424z M32.588,104.424h5.054v5.052h-5.054V104.424z M42.698,104.424h5.052v5.052h-5.052
			V104.424z M57.857,104.424h5.054v5.052h-5.054V104.424z M73.022,104.424h5.052v5.052h-5.052V104.424z M103.346,104.424h5.052
			v5.052h-5.052V104.424z M2.267,109.477h5.052v5.054H2.267V109.477z M7.319,109.477h5.055v5.054H7.319V109.477z M12.374,109.477
			h5.052v5.054h-5.052V109.477z M17.426,109.477h5.056v5.054h-5.056V109.477z M22.481,109.477h5.055v5.054h-5.055V109.477z
			 M27.537,109.477h5.052v5.054h-5.052V109.477z M32.588,109.477h5.054v5.054h-5.054V109.477z M42.698,109.477h5.052v5.054h-5.052
			V109.477z M52.806,109.477h5.052v5.054h-5.052V109.477z M62.911,109.477h5.056v5.054h-5.056V109.477z M73.022,109.477h5.052v5.054
			h-5.052V109.477z M78.074,109.477h5.054v5.054h-5.054V109.477z M83.128,109.477h5.056v5.054h-5.056V109.477z M88.184,109.477
			h5.052v5.054h-5.052V109.477z M93.235,109.477h5.056v5.054h-5.056V109.477z M98.291,109.477h5.055v5.054h-5.055V109.477z
			 M103.346,109.477h5.052v5.054h-5.052V109.477z M47.75,114.531h5.056v5.055H47.75V114.531z M2.267,119.585h5.052v5.054H2.267
			V119.585z M7.319,119.585h5.055v5.054H7.319V119.585z M12.374,119.585h5.052v5.054h-5.052V119.585z M17.426,119.585h5.056v5.054
			h-5.056V119.585z M22.481,119.585h5.055v5.054h-5.055V119.585z M32.588,119.585h5.054v5.054h-5.054V119.585z M37.643,119.585
			h5.055v5.054h-5.055V119.585z M42.698,119.585h5.052v5.054h-5.052V119.585z M57.857,119.585h5.054v5.054h-5.054V119.585z
			 M67.967,119.585h5.056v5.054h-5.056V119.585z M78.074,119.585h5.054v5.054h-5.054V119.585z M88.184,119.585h5.052v5.054h-5.052
			V119.585z M98.291,119.585h5.055v5.054h-5.055V119.585z M2.267,124.64h5.052v5.054H2.267V124.64z M22.481,124.64h5.055v5.054
			h-5.055V124.64z M62.911,124.64h5.056v5.054h-5.056V124.64z M67.967,124.64h5.056v5.054h-5.056V124.64z M83.128,124.64h5.056
			v5.054h-5.056V124.64z M93.235,124.64h5.056v5.054h-5.056V124.64z M103.346,124.64h5.052v5.054h-5.052V124.64z M2.267,129.694
			h5.052v5.052H2.267V129.694z M27.537,129.694h5.052v5.052h-5.052V129.694z M32.588,129.694h5.054v5.052h-5.054V129.694z
			 M52.806,129.694h5.052v5.052h-5.052V129.694z M62.911,129.694h5.056v5.052h-5.056V129.694z M67.967,129.694h5.056v5.052h-5.056
			V129.694z M88.184,129.694h5.052v5.052h-5.052V129.694z M93.235,129.694h5.056v5.052h-5.056V129.694z M98.291,129.694h5.055v5.052
			h-5.055V129.694z M2.267,134.746h5.052v5.056H2.267V134.746z M12.374,134.746h5.052v5.056h-5.052V134.746z M17.426,134.746h5.056
			v5.056h-5.056V134.746z M22.481,134.746h5.055v5.056h-5.055V134.746z M37.643,134.746h5.055v5.056h-5.055V134.746z M47.75,134.746
			h5.056v5.056H47.75V134.746z M57.857,134.746h5.054v5.056h-5.054V134.746z M67.967,134.746h5.056v5.056h-5.056V134.746z
			 M88.184,134.746h5.052v5.056h-5.052V134.746z M93.235,134.746h5.056v5.056h-5.056V134.746z M98.291,134.746h5.055v5.056h-5.055
			V134.746z M7.319,139.801h5.055v5.054H7.319V139.801z M12.374,139.801h5.052v5.054h-5.052V139.801z M22.481,139.801h5.055v5.054
			h-5.055V139.801z M27.537,139.801h5.052v5.054h-5.052V139.801z M32.588,139.801h5.054v5.054h-5.054V139.801z M52.806,139.801
			h5.052v5.054h-5.052V139.801z M57.857,139.801h5.054v5.054h-5.054V139.801z M62.911,139.801h5.056v5.054h-5.056V139.801z
			 M73.022,139.801h5.052v5.054h-5.052V139.801z M78.074,139.801h5.054v5.054h-5.054V139.801z M88.184,139.801h5.052v5.054h-5.052
			V139.801z M98.291,139.801h5.055v5.054h-5.055V139.801z M103.346,139.801h5.052v5.054h-5.052V139.801z M42.698,144.855h5.052
			v5.053h-5.052V144.855z M47.75,144.855h5.056v5.053H47.75V144.855z M73.022,144.855h5.052v5.053h-5.052V144.855z M83.128,144.855
			h5.056v5.053h-5.056V144.855z M93.235,144.855h5.056v5.053h-5.056V144.855z M103.346,144.855h5.052v5.053h-5.052V144.855z
			 M2.267,149.908h5.052v5.056H2.267V149.908z M7.319,149.908h5.055v5.056H7.319V149.908z M12.374,149.908h5.052v5.056h-5.052
			V149.908z M17.426,149.908h5.056v5.056h-5.056V149.908z M22.481,149.908h5.055v5.056h-5.055V149.908z M27.537,149.908h5.052v5.056
			h-5.052V149.908z M32.588,149.908h5.054v5.056h-5.054V149.908z M42.698,149.908h5.052v5.056h-5.052V149.908z M52.806,149.908
			h5.052v5.056h-5.052V149.908z M57.857,149.908h5.054v5.056h-5.054V149.908z M62.911,149.908h5.056v5.056h-5.056V149.908z
			 M67.967,149.908h5.056v5.056h-5.056V149.908z M93.235,149.908h5.056v5.056h-5.056V149.908z M98.291,149.908h5.055v5.056h-5.055
			V149.908z M2.267,154.963h5.052v5.052H2.267V154.963z M32.588,154.963h5.054v5.052h-5.054V154.963z M52.806,154.963h5.052v5.052
			h-5.052V154.963z M88.184,154.963h5.052v5.052h-5.052V154.963z M93.235,154.963h5.056v5.052h-5.056V154.963z M98.291,154.963
			h5.055v5.052h-5.055V154.963z M2.267,160.015h5.052v5.053H2.267V160.015z M12.374,160.015h5.052v5.053h-5.052V160.015z
			 M17.426,160.015h5.056v5.053h-5.056V160.015z M22.481,160.015h5.055v5.053h-5.055V160.015z M32.588,160.015h5.054v5.053h-5.054
			V160.015z M42.698,160.015h5.052v5.053h-5.052V160.015z M47.75,160.015h5.056v5.053H47.75V160.015z M52.806,160.015h5.052v5.053
			h-5.052V160.015z M62.911,160.015h5.056v5.053h-5.056V160.015z M73.022,160.015h5.052v5.053h-5.052V160.015z M78.074,160.015
			h5.054v5.053h-5.054V160.015z M98.291,160.015h5.055v5.053h-5.055V160.015z M103.346,160.015h5.052v5.053h-5.052V160.015z
			 M2.267,165.068h5.052v5.056H2.267V165.068z M12.374,165.068h5.052v5.056h-5.052V165.068z M17.426,165.068h5.056v5.056h-5.056
			V165.068z M22.481,165.068h5.055v5.056h-5.055V165.068z M32.588,165.068h5.054v5.056h-5.054V165.068z M42.698,165.068h5.052v5.056
			h-5.052V165.068z M57.857,165.068h5.054v5.056h-5.054V165.068z M67.967,165.068h5.056v5.056h-5.056V165.068z M73.022,165.068
			h5.052v5.056h-5.052V165.068z M78.074,165.068h5.054v5.056h-5.054V165.068z M83.128,165.068h5.056v5.056h-5.056V165.068z
			 M93.235,165.068h5.056v5.056h-5.056V165.068z M2.267,170.124h5.052v5.054H2.267V170.124z M12.374,170.124h5.052v5.054h-5.052
			V170.124z M17.426,170.124h5.056v5.054h-5.056V170.124z M22.481,170.124h5.055v5.054h-5.055V170.124z M32.588,170.124h5.054v5.054
			h-5.054V170.124z M42.698,170.124h5.052v5.054h-5.052V170.124z M47.75,170.124h5.056v5.054H47.75V170.124z M52.806,170.124h5.052
			v5.054h-5.052V170.124z M57.857,170.124h5.054v5.054h-5.054V170.124z M62.911,170.124h5.056v5.054h-5.056V170.124z
			 M73.022,170.124h5.052v5.054h-5.052V170.124z M88.184,170.124h5.052v5.054h-5.052V170.124z M93.235,170.124h5.056v5.054h-5.056
			V170.124z M2.267,175.177h5.052v5.053H2.267V175.177z M32.588,175.177h5.054v5.053h-5.054V175.177z M42.698,175.177h5.052v5.053
			h-5.052V175.177z M47.75,175.177h5.056v5.053H47.75V175.177z M57.857,175.177h5.054v5.053h-5.054V175.177z M67.967,175.177h5.056
			v5.053h-5.056V175.177z M78.074,175.177h5.054v5.053h-5.054V175.177z M88.184,175.177h5.052v5.053h-5.052V175.177z
			 M93.235,175.177h5.056v5.053h-5.056V175.177z M2.267,180.23h5.052v5.056H2.267V180.23z M7.319,180.23h5.055v5.056H7.319V180.23z
			 M12.374,180.23h5.052v5.056h-5.052V180.23z M17.426,180.23h5.056v5.056h-5.056V180.23z M22.481,180.23h5.055v5.056h-5.055V180.23
			z M27.537,180.23h5.052v5.056h-5.052V180.23z M32.588,180.23h5.054v5.056h-5.054V180.23z M42.698,180.23h5.052v5.056h-5.052
			V180.23z M57.857,180.23h5.054v5.056h-5.054V180.23z M73.022,180.23h5.052v5.056h-5.052V180.23z M98.291,180.23h5.055v5.056
			h-5.055V180.23z"/>
	</g>
</g>
<g>
</g>
<g>
</g>
<g>
</g>
<g>
</g>
<g>
</g>
<g>
</g>
</svg>
