<?xml version="1.0" encoding="utf-8"?>
<!-- Generator: Adobe Illustrator 16.0.4, SVG Export Plug-In . SVG Version: 6.00 Build 0)  -->
<!DOCTYPE svg PUBLIC "-//W3C//DTD SVG 1.1//EN" "http://www.w3.org/Graphics/SVG/1.1/DTD/svg11.dtd">
<svg version="1.1" id="Layer_1" xmlns="http://www.w3.org/2000/svg" xmlns:xlink="http://www.w3.org/1999/xlink" x="0px" y="0px"
	 width="39px" height="29.723px" viewBox="0 0 39 29.723" enable-background="new 0 0 39 29.723" xml:space="preserve">
<path opacity="0.8" fill-rule="evenodd" clip-rule="evenodd" fill="#501313" d="M10.247,28.219
	c-0.764-0.666-1.115-1.447-1.058-2.414c0.079-1.301,0.971-2.115,2.27-2.049c1.327,0.07,2.503,0.986,2.756,2.148
	c0.144,0.656-0.085,1.219-0.458,1.736c-0.138,0.191-0.3,0.363-0.5,0.604c3.566,0.508,7.082,0.359,10.629,0.299
	c-0.266-1.402-0.523-2.775-0.783-4.146c-0.158-0.842-0.336-1.68-0.473-2.525c-0.037-0.236-0.012-0.514,0.075-0.736
	C25.168,14.754,27.641,8.375,30.12,2c0.562-1.443,1.741-1.998,3.18-2c1.889-0.002,3.534,0.676,4.816,2.094
	c0.896,0.992,1.131,2.135,0.615,3.404c-0.313,0.77-0.603,1.551-0.902,2.326c-2.143,5.52-4.28,11.041-6.438,16.555
	c-0.115,0.297-0.344,0.59-0.598,0.785c-1.854,1.42-3.721,2.824-5.603,4.207c-0.267,0.197-0.64,0.35-0.963,0.35
	c-3.081,0.004-6.163,0.012-9.243-0.074c-0.982-0.027-1.956-0.336-2.935-0.512c-0.132-0.023-0.284-0.078-0.399-0.039
	c-1.916,0.662-3.904,0.688-5.881,0.549c-1.732-0.121-3.453-0.416-5.176-0.65c-0.453-0.061-0.648-0.34-0.581-0.721
	c0.065-0.359,0.378-0.523,0.819-0.438c2.562,0.498,5.143,0.76,7.755,0.629c0.465-0.023,0.927-0.102,1.391-0.16
	C10.051,28.295,10.122,28.26,10.247,28.219z M27.754,22.689c2.096-5.406,4.18-10.781,6.277-16.193
	c-0.543-0.211-1.062-0.41-1.599-0.617c-2.103,5.42-4.187,10.795-6.279,16.191C26.696,22.279,27.208,22.477,27.754,22.689z
	 M35.149,6.926c-2.102,5.42-4.186,10.793-6.279,16.195c0.515,0.199,1.002,0.389,1.513,0.588c2.098-5.41,4.185-10.793,6.28-16.193
	C36.139,7.312,35.661,7.125,35.149,6.926z M30.659,3.902c2.173,0.842,4.291,1.664,6.431,2.492c0.183-0.463,0.334-0.887,0.515-1.301
	c0.371-0.857,0.191-1.613-0.428-2.266c-1.066-1.121-2.406-1.641-3.936-1.635c-0.77,0.004-1.5,0.227-1.881,0.98
	C31.089,2.711,30.903,3.289,30.659,3.902z M30.231,5.018c-2.101,5.416-4.188,10.797-6.282,16.199
	c0.388,0.146,0.731,0.277,1.094,0.414c2.103-5.422,4.186-10.793,6.276-16.186C30.958,5.305,30.621,5.172,30.231,5.018z
	 M23.969,22.508c0.115,0.631,0.201,1.176,0.322,1.715c0.029,0.131,0.152,0.299,0.271,0.346c1.041,0.412,2.09,0.801,3.139,1.191
	c0.086,0.031,0.221,0.062,0.279,0.021c0.498-0.355,0.983-0.727,1.521-1.129C27.628,23.926,25.829,23.229,23.969,22.508z
	 M10.389,26.025c-0.003,0.711,0.617,1.516,1.299,1.676c0.067,0.016,0.15,0.006,0.217-0.02c0.564-0.215,1.167-0.973,1.152-1.438
	c-0.016-0.48-0.523-0.988-1.208-1.209c-0.071-0.021-0.144-0.047-0.218-0.059C10.786,24.832,10.392,25.166,10.389,26.025z"/>
<g>
</g>
<g>
</g>
<g>
</g>
<g>
</g>
<g>
</g>
<g>
</g>
</svg>
