<?xml version="1.0" encoding="utf-8"?>
<!-- Generator: Adobe Illustrator 16.0.4, SVG Export Plug-In . SVG Version: 6.00 Build 0)  -->
<!DOCTYPE svg PUBLIC "-//W3C//DTD SVG 1.1//EN" "http://www.w3.org/Graphics/SVG/1.1/DTD/svg11.dtd">
<svg version="1.1" id="Layer_1" xmlns="http://www.w3.org/2000/svg" xmlns:xlink="http://www.w3.org/1999/xlink" x="0px" y="0px"
	 width="38.207px" height="35.787px" viewBox="0 0 38.207 35.787" enable-background="new 0 0 38.207 35.787" xml:space="preserve">
<g opacity="0.8">
	<path fill-rule="evenodd" clip-rule="evenodd" fill="#501313" d="M33.386,32.1h-1.629c-0.01-0.08-0.021-0.119-0.021-0.15V20.311
		c0-0.121,0.07-0.24,0.141-0.34c0.1-0.15,0.25-0.281,0.35-0.432c0.76-1.049,0.99-2.18,0.66-3.459c-0.34-1.279-0.529-2.59-0.84-3.871
		c-0.09-0.389-0.16-0.779-0.209-1.17l-1.16,0.611c0.32,1.51,0.639,3.029,0.959,4.58H2.437c0.141-0.611,0.27-1.191,0.41-1.781
		c0.21-0.939,0.43-1.879,0.66-2.809c0.02-0.102,0.14-0.24,0.21-0.24c1.601-0.021,3.19-0.01,4.819-0.01v3.619h1.24v-3.6h6.08v3.6
		h1.221v-3.6h7.318v3.6h1.23v-3.6h1.551l0.219-1.27H3.707V5.279h21.35l-1.26-1.229H3.248c-0.58,0-0.791,0.199-0.791,0.779v5.59
		c0,0.141-0.01,0.279-0.049,0.42c-0.451,1.971-0.91,3.939-1.36,5.91c-0.03,0.15-0.06,0.32-0.05,0.48c0.05,1.1,0.49,2.02,1.26,2.809
		c0.109,0.111,0.189,0.311,0.189,0.471c0.01,3.75,0.01,7.5,0.01,11.25c0,0.109-0.01,0.211-0.02,0.34h-1.67
		c-0.529,0.01-0.76,0.24-0.76,0.76c-0.01,0.73-0.01,1.451,0,2.18c0,0.521,0.24,0.74,0.76,0.74c10.891,0.01,21.77,0.01,32.66,0
		c0.52,0,0.76-0.229,0.76-0.75c0.01-0.709,0.01-1.43,0-2.139C34.187,32.33,33.957,32.109,33.386,32.1z M31.757,17.51
		c-0.121,1.471-1.67,2.67-3.35,2.6c-1.49-0.059-2.961-1.34-2.961-2.6H31.757z M28.056,21.301v5.898h-4.83
		c-0.01-0.1-0.02-0.199-0.02-0.289c0-1.971,0-3.951-0.01-5.92c0-0.211,0.09-0.311,0.24-0.451c0.471-0.389,0.9-0.83,1.35-1.25
		C25.537,20.43,26.646,21.09,28.056,21.301z M24.046,17.51c-0.119,1.43-1.6,2.619-3.219,2.6c-1.561-0.01-3-1.219-3.101-2.6H24.046z
		 M17.117,19.369c0.58,0.781,1.261,1.352,2.131,1.67c0.879,0.33,1.77,0.4,2.719,0.16v6h-4.85V19.369z M16.307,17.5
		c0.101,1.18-1.38,2.51-2.89,2.609c-1.68,0.111-3.33-1.139-3.4-2.609H16.307z M9.328,19.23c0.709,1.08,1.699,1.779,2.959,2.029
		c1.281,0.25,2.451-0.029,3.561-0.779c0.01,0.148,0.02,0.26,0.02,0.379v6.791c0,0.6,0.201,0.809,0.801,0.809h11.84
		c0.6,0,0.799-0.209,0.799-0.799c0-2.02,0.01-4.041,0-6.051c0-0.26,0.07-0.359,0.32-0.41c0.291-0.039,0.561-0.148,0.859-0.24V32.09
		H13.447v-8.9c0-0.639-0.209-0.85-0.83-0.85H6.917c-0.61,0-0.811,0.211-0.811,0.83v8.9h-2.4V21.029
		C6.007,21.77,7.887,21.189,9.328,19.23z M12.207,23.6v8.48h-4.85V23.6H12.207z M2.297,17.51h6.33c-0.101,1.369-1.55,2.59-3.08,2.6
		C3.897,20.129,2.437,18.971,2.297,17.51z M32.957,34.551H1.238c0-0.361,0-0.721,0.01-1.07c0-0.051,0.1-0.121,0.17-0.141
		c0.09-0.02,0.189,0,0.289,0h30.779c0.521,0,0.461-0.061,0.471,0.461V34.551z"/>
	<polygon fill-rule="evenodd" clip-rule="evenodd" fill="#501313" points="35.087,7.58 35.828,11.869 31.966,9.84 31.748,9.959 
		28.976,11.41 28.107,11.869 28.187,11.41 28.408,10.141 28.847,7.58 26.486,5.279 25.726,4.539 29.078,4.051 30.037,3.91 31.966,0 
		33.896,3.91 38.207,4.539 	"/>
</g>
<g>
</g>
<g>
</g>
<g>
</g>
<g>
</g>
<g>
</g>
<g>
</g>
</svg>
