<?xml version="1.0" encoding="utf-8"?>
<!-- Generator: Adobe Illustrator 16.0.4, SVG Export Plug-In . SVG Version: 6.00 Build 0)  -->
<!DOCTYPE svg PUBLIC "-//W3C//DTD SVG 1.1//EN" "http://www.w3.org/Graphics/SVG/1.1/DTD/svg11.dtd">
<svg version="1.1" id="Layer_1" xmlns="http://www.w3.org/2000/svg" xmlns:xlink="http://www.w3.org/1999/xlink" x="0px" y="0px"
	 width="41.157px" height="38.561px" viewBox="0 0 41.157 38.561" enable-background="new 0 0 41.157 38.561" xml:space="preserve">
<g opacity="0.8">
	<rect opacity="0.8" fill-rule="evenodd" clip-rule="evenodd" fill="none" width="41.157" height="38.561"/>
	<path fill="#501313" d="M39.301,20.5L35.509,7.037l-9.97,2.809c-0.239-0.178-0.485-0.348-0.753-0.467
		c-0.447-0.195-0.935-0.297-1.412-0.443c1.449-0.982,1.982-2.189,1.567-3.578c-0.386-1.289-1.529-2.148-2.872-2.154
		c-1.322-0.008-2.492,0.842-2.889,2.094c-0.35,1.105-0.11,2.705,1.604,3.67c-0.106,0.027-0.188,0.055-0.272,0.066
		c-1.766,0.234-3.102,1.496-3.45,3.201l-2.526,0.711c-0.244-0.201-0.543-0.309-0.883-0.311c-0.786-0.008-1.27,0.424-1.486,0.979
		l-6.231,1.756l3.793,13.463l8.886-2.504c0,2.746-0.001,5.492,0,8.238c0,0.586,0.275,0.943,0.861,1.014
		c0.434,0.053,0.881,0.053,1.312,0.002c0.594-0.07,0.878-0.439,0.878-1.041c0-2.707,0-5.414,0-8.121c0-0.133,0-0.266,0-0.414
		c0.267,0,0.497,0,0.765,0c0,0.15,0,0.283,0,0.416c0,2.697,0,5.395,0.002,8.092c0,0.633,0.295,0.996,0.922,1.08
		c0.333,0.045,0.676,0.039,1.012,0.027c0.772-0.021,1.144-0.418,1.144-1.191c0-2.969-0.003-5.936,0.007-8.904
		c0.001-0.156,0.074-0.338,0.168-0.469c0.229-0.312,0.471-0.615,0.711-0.92l3.48-0.98c0.393,0.346,0.885,0.473,1.384,0.334
		c0.522-0.148,0.896-0.516,1.052-1.021L39.301,20.5z M30.411,20.525c-0.539,0.166-0.859,0.52-1.012,1.117l-18.574,5.232
		l-2.934-10.41l4.553-1.281c0.189,0.227,0.424,0.398,0.733,0.459c0.306,0.062,0.659,0.051,0.955-0.043
		c0.541-0.168,0.87-0.59,0.97-1.166l19.311-5.439l2.932,10.41l-5.428,1.529C31.438,20.48,30.968,20.352,30.411,20.525z"/>
</g>
<g>
</g>
<g>
</g>
<g>
</g>
<g>
</g>
<g>
</g>
<g>
</g>
</svg>
