<?xml version="1.0" encoding="utf-8"?>
<!-- Generator: Adobe Illustrator 16.0.4, SVG Export Plug-In . SVG Version: 6.00 Build 0)  -->
<!DOCTYPE svg PUBLIC "-//W3C//DTD SVG 1.1//EN" "http://www.w3.org/Graphics/SVG/1.1/DTD/svg11.dtd">
<svg version="1.1" id="Layer_1" xmlns="http://www.w3.org/2000/svg" xmlns:xlink="http://www.w3.org/1999/xlink" x="0px" y="0px"
	 width="28.7px" height="29.34px" viewBox="0 0 28.7 29.34" enable-background="new 0 0 28.7 29.34" xml:space="preserve">
<g opacity="0.8">
	<g>
		<path fill="#501313" d="M17.252,11.072c-0.686,0.803-1.023,1.818-0.938,2.871c0.068,0.93,0.475,1.771,1.094,2.408v-5.443
			C17.35,10.957,17.301,11.014,17.252,11.072z M16.441,0H0.969C0.436,0,0,0.436,0,0.967v27.406c0,0.531,0.436,0.967,0.969,0.967
			h15.473c0.541,0,0.967-0.436,0.967-0.967v-8.502l-1.412-1.266c-0.193-0.174-0.367-0.348-0.523-0.541v9.342H1.936V1.934h13.537
			v7.602c0.01-0.02,0.029-0.029,0.039-0.049c0.543-0.6,1.189-1.094,1.896-1.432V0.967C17.408,0.436,16.982,0,16.441,0z"/>
	</g>
	<g>
		<circle fill="#501313" cx="8.685" cy="25.307" r="1.208"/>
	</g>
	<g>
		<g>
			<g>
				<path fill-rule="evenodd" clip-rule="evenodd" fill="#501313" d="M19.941,9.699c-0.967,0.078-1.867,0.502-2.533,1.209
					c-0.059,0.049-0.107,0.105-0.156,0.164c-0.686,0.803-1.023,1.818-0.938,2.871c0.068,0.93,0.475,1.771,1.094,2.408
					c0.715,0.766,1.73,1.229,2.832,1.229c0.107,0,0.203-0.01,0.311-0.01c2.166-0.174,3.791-2.068,3.627-4.234
					C24.012,11.189,22.137,9.545,19.941,9.699z M20.473,16.604c-1.412,0.107-2.668-0.793-3.064-2.09
					c-0.068-0.201-0.107-0.424-0.127-0.646c-0.029-0.396,0.01-0.773,0.127-1.131c0.348-1.133,1.363-1.975,2.609-2.07
					c1.635-0.125,3.066,1.102,3.191,2.746C23.336,15.047,22.117,16.479,20.473,16.604z M19.941,9.699
					c-0.967,0.078-1.867,0.502-2.533,1.209c-0.059,0.049-0.107,0.105-0.156,0.164c-0.686,0.803-1.023,1.818-0.938,2.871
					c0.068,0.93,0.475,1.771,1.094,2.408c0.715,0.766,1.73,1.229,2.832,1.229c0.107,0,0.203-0.01,0.311-0.01
					c2.166-0.174,3.791-2.068,3.627-4.234C24.012,11.189,22.137,9.545,19.941,9.699z M20.473,16.604
					c-1.412,0.107-2.668-0.793-3.064-2.09c-0.068-0.201-0.107-0.424-0.127-0.646c-0.029-0.396,0.01-0.773,0.127-1.131
					c0.348-1.133,1.363-1.975,2.609-2.07c1.635-0.125,3.066,1.102,3.191,2.746C23.336,15.047,22.117,16.479,20.473,16.604z
					 M25.279,8.277c-2.215-1.982-5.299-2.398-7.871-1.305c-0.688,0.289-1.346,0.686-1.936,1.207C15.232,8.375,15,8.596,14.787,8.838
					c-2.736,3.057-2.486,7.746,0.561,10.492l0.125,0.117l1.936,1.73l3.461,3.113l4.971-5.521
					C28.576,15.715,28.326,11.023,25.279,8.277z M25.115,18.123l-4.314,4.805l-3.393-3.057l-1.412-1.266
					c-0.193-0.174-0.367-0.348-0.523-0.541c-2.127-2.398-2.166-6.074,0-8.529c0.01-0.02,0.029-0.029,0.039-0.049
					c0.543-0.6,1.189-1.094,1.896-1.432c0.889-0.465,1.885-0.705,2.91-0.705c1.596,0,3.123,0.59,4.312,1.652
					C27.271,11.381,27.494,15.473,25.115,18.123z M19.941,9.699c-0.967,0.078-1.867,0.502-2.533,1.209
					c-0.059,0.049-0.107,0.105-0.156,0.164c-0.686,0.803-1.023,1.818-0.938,2.871c0.068,0.93,0.475,1.771,1.094,2.408
					c0.715,0.766,1.73,1.229,2.832,1.229c0.107,0,0.203-0.01,0.311-0.01c2.166-0.174,3.791-2.068,3.627-4.234
					C24.012,11.189,22.137,9.545,19.941,9.699z M20.473,16.604c-1.412,0.107-2.668-0.793-3.064-2.09
					c-0.068-0.201-0.107-0.424-0.127-0.646c-0.029-0.396,0.01-0.773,0.127-1.131c0.348-1.133,1.363-1.975,2.609-2.07
					c1.635-0.125,3.066,1.102,3.191,2.746C23.336,15.047,22.117,16.479,20.473,16.604z"/>
			</g>
		</g>
		<g>
			<g>
				<path fill="#501313" d="M19.941,9.699c-0.967,0.078-1.867,0.502-2.533,1.209c-0.059,0.049-0.107,0.105-0.156,0.164
					c-0.686,0.803-1.023,1.818-0.938,2.871c0.068,0.93,0.475,1.771,1.094,2.408c0.715,0.766,1.73,1.229,2.832,1.229
					c0.107,0,0.203-0.01,0.311-0.01c2.166-0.174,3.791-2.068,3.627-4.234C24.012,11.189,22.137,9.545,19.941,9.699z M20.396,15.637
					c-1.113,0.086-2.07-0.754-2.158-1.848c-0.037-0.531,0.137-1.053,0.484-1.459s0.832-0.658,1.363-0.697
					c0.059-0.01,0.107-0.01,0.164-0.01c1.035,0,1.916,0.822,2.002,1.857C22.33,14.582,21.508,15.559,20.396,15.637z M19.941,9.699
					c-0.967,0.078-1.867,0.502-2.533,1.209c-0.059,0.049-0.107,0.105-0.156,0.164c-0.686,0.803-1.023,1.818-0.938,2.871
					c0.068,0.93,0.475,1.771,1.094,2.408c0.715,0.766,1.73,1.229,2.832,1.229c0.107,0,0.203-0.01,0.311-0.01
					c2.166-0.174,3.791-2.068,3.627-4.234C24.012,11.189,22.137,9.545,19.941,9.699z M20.396,15.637
					c-1.113,0.086-2.07-0.754-2.158-1.848c-0.037-0.531,0.137-1.053,0.484-1.459s0.832-0.658,1.363-0.697
					c0.059-0.01,0.107-0.01,0.164-0.01c1.035,0,1.916,0.822,2.002,1.857C22.33,14.582,21.508,15.559,20.396,15.637z M25.918,7.562
					c-1.537-1.385-3.529-2.148-5.6-2.148c-1.006,0-1.992,0.176-2.91,0.523c-0.213,0.076-0.426,0.164-0.639,0.262h-0.01
					c-0.164,0.076-0.311,0.154-0.465,0.25c-0.279,0.146-0.561,0.32-0.822,0.514c-0.512,0.357-0.977,0.773-1.402,1.236
					c-3.094,3.443-2.803,8.752,0.639,11.846l0.764,0.688l0.871,0.783l0.416,0.377l0.01,0.012l0.639,0.57l2.814,2.533
					c0.184,0.164,0.414,0.25,0.646,0.25c0.271,0,0.533-0.105,0.727-0.318l4.961-5.521C29.65,15.975,29.359,10.656,25.918,7.562z
					 M17.408,19.871l-1.412-1.266c-0.193-0.174-0.367-0.348-0.523-0.541c-2.127-2.398-2.166-6.074,0-8.529
					c0.01-0.02,0.029-0.029,0.039-0.049c0.543-0.6,1.189-1.094,1.896-1.432c0.889-0.465,1.885-0.705,2.91-0.705
					c1.596,0,3.123,0.59,4.312,1.652c2.641,2.379,2.863,6.471,0.484,9.121l-4.314,4.805L17.408,19.871z M19.941,9.699
					c-0.967,0.078-1.867,0.502-2.533,1.209c-0.059,0.049-0.107,0.105-0.156,0.164c-0.686,0.803-1.023,1.818-0.938,2.871
					c0.068,0.93,0.475,1.771,1.094,2.408c0.715,0.766,1.73,1.229,2.832,1.229c0.107,0,0.203-0.01,0.311-0.01
					c2.166-0.174,3.791-2.068,3.627-4.234C24.012,11.189,22.137,9.545,19.941,9.699z M20.396,15.637
					c-1.113,0.086-2.07-0.754-2.158-1.848c-0.037-0.531,0.137-1.053,0.484-1.459s0.832-0.658,1.363-0.697
					c0.059-0.01,0.107-0.01,0.164-0.01c1.035,0,1.916,0.822,2.002,1.857C22.33,14.582,21.508,15.559,20.396,15.637z M19.941,9.699
					c-0.967,0.078-1.867,0.502-2.533,1.209c-0.059,0.049-0.107,0.105-0.156,0.164c-0.686,0.803-1.023,1.818-0.938,2.871
					c0.068,0.93,0.475,1.771,1.094,2.408c0.715,0.766,1.73,1.229,2.832,1.229c0.107,0,0.203-0.01,0.311-0.01
					c2.166-0.174,3.791-2.068,3.627-4.234C24.012,11.189,22.137,9.545,19.941,9.699z M20.396,15.637
					c-1.113,0.086-2.07-0.754-2.158-1.848c-0.037-0.531,0.137-1.053,0.484-1.459s0.832-0.658,1.363-0.697
					c0.059-0.01,0.107-0.01,0.164-0.01c1.035,0,1.916,0.822,2.002,1.857C22.33,14.582,21.508,15.559,20.396,15.637z M19.941,9.699
					c-0.967,0.078-1.867,0.502-2.533,1.209c-0.059,0.049-0.107,0.105-0.156,0.164c-0.686,0.803-1.023,1.818-0.938,2.871
					c0.068,0.93,0.475,1.771,1.094,2.408c0.715,0.766,1.73,1.229,2.832,1.229c0.107,0,0.203-0.01,0.311-0.01
					c2.166-0.174,3.791-2.068,3.627-4.234C24.012,11.189,22.137,9.545,19.941,9.699z M20.396,15.637
					c-1.113,0.086-2.07-0.754-2.158-1.848c-0.037-0.531,0.137-1.053,0.484-1.459s0.832-0.658,1.363-0.697
					c0.059-0.01,0.107-0.01,0.164-0.01c1.035,0,1.916,0.822,2.002,1.857C22.33,14.582,21.508,15.559,20.396,15.637z"/>
				<path fill="#FFFFFF" d="M24.631,9.002c-1.189-1.062-2.717-1.652-4.312-1.652c-1.025,0-2.021,0.24-2.91,0.705
					c-0.707,0.338-1.354,0.832-1.896,1.432c-0.01,0.02-0.029,0.029-0.039,0.049c-2.166,2.455-2.127,6.131,0,8.529
					c0.156,0.193,0.33,0.367,0.523,0.541l1.412,1.266l3.393,3.057l4.314-4.805C27.494,15.473,27.271,11.381,24.631,9.002z
					 M20.551,17.57c-0.107,0-0.203,0.01-0.311,0.01c-1.102,0-2.117-0.463-2.832-1.229c-0.619-0.637-1.025-1.479-1.094-2.408
					c-0.086-1.053,0.252-2.068,0.938-2.871c0.049-0.059,0.098-0.115,0.156-0.164c0.666-0.707,1.566-1.131,2.533-1.209
					c2.195-0.154,4.07,1.49,4.236,3.637C24.342,15.502,22.717,17.396,20.551,17.57z"/>
			</g>
		</g>
	</g>
	<g>
		<rect x="0.807" y="4.516" fill="#501313" width="15.957" height="1.936"/>
	</g>
	<g>
		<rect x="0.807" y="21.521" fill="#501313" width="15.957" height="1.934"/>
	</g>
</g>
<g>
</g>
<g>
</g>
<g>
</g>
<g>
</g>
<g>
</g>
<g>
</g>
</svg>
