<?xml version="1.0" encoding="utf-8"?>
<!-- Generator: Adobe Illustrator 16.0.4, SVG Export Plug-In . SVG Version: 6.00 Build 0)  -->
<!DOCTYPE svg PUBLIC "-//W3C//DTD SVG 1.1//EN" "http://www.w3.org/Graphics/SVG/1.1/DTD/svg11.dtd">
<svg version="1.1" id="Layer_1" xmlns="http://www.w3.org/2000/svg" xmlns:xlink="http://www.w3.org/1999/xlink" x="0px" y="0px"
	 width="512.722px" height="505.997px" viewBox="0 0 512.722 505.997" enable-background="new 0 0 512.722 505.997"
	 xml:space="preserve">
<g>
	<g opacity="0.4">
		
			<circle fill="none" stroke="#F04B4C" stroke-width="4" stroke-miterlimit="10" stroke-dasharray="1.0007,3.0021" cx="255.998" cy="252.998" r="250.998"/>
	</g>
	
		<line opacity="0.4" fill="none" stroke="#F04B4C" stroke-width="2" stroke-miterlimit="10" x1="254.985" y1="248.439" x2="504.4" y2="248.439"/>
	<g opacity="0.4">
		
			<rect x="342.312" y="261.977" transform="matrix(1 0.0043 -0.0043 1 1.361 -1.8545)" fill="none" width="173.189" height="102.735"/>
		<path fill="#F04B4C" d="M352.958,264.854l-5.948-0.025l-0.617,4.004c0.36-0.047,0.696-0.094,1.271-0.09
			c1.199,0.004,2.397,0.273,3.354,0.854c1.221,0.701,2.222,2.049,2.214,4.016c-0.014,3.047-2.446,5.314-5.828,5.299
			c-1.703-0.008-3.141-0.492-3.882-0.975l0.535-1.605c0.646,0.387,1.915,0.871,3.33,0.877c1.991,0.01,3.699-1.279,3.709-3.365
			c-0.016-2.016-1.353-3.461-4.471-3.475c-0.888-0.004-1.584,0.09-2.16,0.16l1.04-7.48l7.46,0.031L352.958,264.854z"/>
		<path fill="#F04B4C" d="M361.694,270.241c0.005-1.199-0.015-2.182-0.082-3.141l1.847,0.008l0.088,1.871h0.072
			c0.652-1.102,1.736-2.127,3.655-2.119c1.583,0.008,2.778,0.971,3.275,2.34h0.048c0.363-0.645,0.821-1.146,1.303-1.504
			c0.697-0.525,1.466-0.809,2.569-0.805c1.535,0.006,3.81,1.023,3.792,5.053l-0.029,6.836l-2.062-0.008l0.028-6.572
			c0.01-2.23-0.8-3.578-2.503-3.586c-1.199-0.004-2.139,0.879-2.503,1.908c-0.098,0.289-0.171,0.672-0.173,1.055l-0.031,7.172
			l-2.062-0.008l0.03-6.957c0.008-1.846-0.802-3.193-2.409-3.201c-1.319-0.004-2.283,1.047-2.623,2.102
			c-0.122,0.311-0.171,0.67-0.173,1.029l-0.03,7.004l-2.062-0.008L361.694,270.241z"/>
		<path fill="#F04B4C" d="M384.082,263.934c0.021,0.719-0.509,1.293-1.349,1.289c-0.743-0.002-1.269-0.582-1.266-1.301
			c0.003-0.744,0.558-1.316,1.325-1.314C383.583,262.612,384.084,263.19,384.082,263.934z M381.667,278.795l0.051-11.609l2.11,0.01
			l-0.05,11.609L381.667,278.795z"/>
		<path fill="#F04B4C" d="M387.317,270.352c0.006-1.199-0.015-2.184-0.082-3.143l1.871,0.008l0.111,1.92h0.048
			c0.581-1.1,1.929-2.174,3.848-2.166c1.607,0.008,4.098,0.977,4.08,4.959l-0.029,6.932l-2.111-0.008l0.029-6.693
			c0.008-1.871-0.681-3.432-2.672-3.441c-1.392-0.006-2.475,0.973-2.84,2.146c-0.097,0.264-0.146,0.623-0.148,0.982l-0.03,6.98
			l-2.11-0.01L387.317,270.352z"/>
		<path fill="#F04B4C" d="M410.325,275.752c-0.006,1.199,0.014,2.256,0.082,3.168l-1.871-0.01l-0.111-1.895h-0.048
			c-0.557,0.932-1.785,2.15-3.848,2.143c-1.823-0.008-4.002-1.025-3.983-5.104l0.029-6.787l2.11,0.008l-0.027,6.43
			c-0.01,2.205,0.655,3.695,2.574,3.705c1.415,0.006,2.403-0.975,2.791-1.908c0.121-0.311,0.194-0.693,0.196-1.078l0.03-7.123
			l2.111,0.008L410.325,275.752z"/>
		<path fill="#F04B4C" d="M416.423,264.002l-0.015,3.334l3.022,0.012l-0.008,1.607l-3.021-0.014l-0.027,6.262
			c-0.006,1.439,0.398,2.256,1.573,2.262c0.552,0.002,0.96-0.068,1.224-0.139l0.09,1.584c-0.409,0.166-1.057,0.283-1.873,0.279
			c-0.983-0.004-1.773-0.32-2.274-0.896c-0.597-0.627-0.809-1.66-0.803-3.027l0.027-6.332l-1.799-0.008l0.007-1.607l1.799,0.008
			l0.013-2.781L416.423,264.002z"/>
		<path fill="#F04B4C" d="M432.145,273.114c-0.019,4.293-3.001,6.15-5.808,6.139c-3.143-0.014-5.555-2.326-5.539-5.996
			c0.017-3.887,2.569-6.154,5.783-6.141C429.916,267.131,432.16,269.563,432.145,273.114z M422.933,273.192
			c-0.011,2.543,1.444,4.469,3.507,4.479c2.015,0.008,3.534-1.881,3.546-4.496c0.008-1.967-0.965-4.465-3.459-4.475
			C424.032,268.688,422.943,270.987,422.933,273.192z"/>
		<path fill="#F04B4C" d="M434.506,276.864c0.622,0.412,1.724,0.848,2.778,0.854c1.535,0.006,2.258-0.758,2.263-1.717
			c0.004-1.008-0.593-1.562-2.149-2.145c-2.084-0.754-3.062-1.91-3.057-3.301c0.008-1.871,1.526-3.398,4.021-3.389
			c1.176,0.006,2.205,0.346,2.852,0.732l-0.534,1.531c-0.455-0.289-1.293-0.676-2.372-0.68c-1.247-0.006-1.946,0.711-1.95,1.574
			c-0.004,0.959,0.69,1.393,2.199,1.977c2.011,0.775,3.038,1.789,3.03,3.516c-0.009,2.039-1.598,3.471-4.356,3.459
			c-1.271-0.006-2.445-0.322-3.259-0.807L434.506,276.864z"/>
		<path fill="#F04B4C" d="M455.8,279.116l-0.162-1.463l-0.072-0.002c-0.651,0.91-1.902,1.719-3.557,1.713
			c-2.352-0.012-3.543-1.672-3.536-3.35c0.013-2.807,2.514-4.332,6.999-4.287l0.001-0.24c0.004-0.959-0.252-2.688-2.627-2.699
			c-1.079-0.004-2.208,0.326-3.026,0.852l-0.474-1.393c0.962-0.621,2.355-1.021,3.818-1.016c3.55,0.016,4.403,2.441,4.394,4.768
			l-0.02,4.342c-0.004,1.008,0.04,1.99,0.181,2.783L455.8,279.116z M455.513,273.19c-2.302-0.059-4.918,0.338-4.928,2.592
			c-0.006,1.367,0.902,2.02,1.981,2.025c1.512,0.006,2.476-0.949,2.815-1.932c0.072-0.215,0.122-0.455,0.123-0.672L455.513,273.19z"
			/>
		<path fill="#F04B4C" d="M466.055,271.34c0.007-1.486-0.036-2.686-0.079-3.791l1.895,0.01l0.088,1.99h0.048
			c0.869-1.412,2.24-2.244,4.135-2.236c2.807,0.012,4.907,2.395,4.893,5.922c-0.019,4.174-2.57,6.225-5.305,6.213
			c-1.535-0.006-2.875-0.684-3.565-1.838h-0.049l-0.026,6.309l-2.087-0.01L466.055,271.34z M468.128,274.444
			c-0.001,0.312,0.046,0.6,0.093,0.863c0.377,1.465,1.645,2.479,3.155,2.484c2.23,0.01,3.534-1.807,3.546-4.471
			c0.01-2.326-1.205-4.322-3.436-4.332c-1.439-0.006-2.787,1.02-3.202,2.602c-0.072,0.262-0.146,0.574-0.147,0.863L468.128,274.444z
			"/>
		<path fill="#F04B4C" d="M480.872,273.803c0.036,2.855,1.854,4.037,3.964,4.047c1.512,0.006,2.424-0.254,3.217-0.586l0.354,1.514
			c-0.745,0.332-2.018,0.711-3.865,0.703c-3.573-0.016-5.698-2.377-5.683-5.879c0.015-3.502,2.09-6.25,5.472-6.236
			c3.79,0.016,4.783,3.355,4.773,5.49c-0.002,0.432-0.051,0.768-0.076,0.982L480.872,273.803z M487.067,272.319
			c0.029-1.344-0.537-3.434-2.912-3.443c-2.135-0.01-3.078,1.953-3.253,3.416L487.067,272.319z M487.612,262.629l-2.94,3.418
			l-1.512-0.006l2.126-3.422L487.612,262.629z"/>
	</g>
</g>
<g>
</g>
<g>
</g>
<g>
</g>
<g>
</g>
<g>
</g>
<g>
</g>
</svg>
