<?xml version="1.0" encoding="utf-8"?>
<!-- Generator: Adobe Illustrator 16.0.4, SVG Export Plug-In . SVG Version: 6.00 Build 0)  -->
<!DOCTYPE svg PUBLIC "-//W3C//DTD SVG 1.1//EN" "http://www.w3.org/Graphics/SVG/1.1/DTD/svg11.dtd">
<svg version="1.1" id="Layer_1" xmlns="http://www.w3.org/2000/svg" xmlns:xlink="http://www.w3.org/1999/xlink" x="0px" y="0px"
	 width="281.996px" height="281.996px" viewBox="0 0 281.996 281.996" enable-background="new 0 0 281.996 281.996"
	 xml:space="preserve">
<g opacity="0.4">
	
		<circle fill="none" stroke="#F04B4C" stroke-width="4" stroke-miterlimit="10" stroke-dasharray="0.5542,1.6625" cx="140.998" cy="140.998" r="138.998"/>
</g>
<line opacity="0.4" fill="none" stroke="#F04B4C" stroke-width="2" stroke-miterlimit="10" x1="140.438" y1="141.242" x2="278.559" y2="141.242"/>
<g opacity="0.5">
	
		<rect x="179.801" y="146.623" transform="matrix(1 0.0043 -0.0043 1 0.8595 -1.054)" fill="none" width="128.116" height="102.735"/>
	<path fill="#F04B4C" d="M183.372,148.332h-0.028l-1.587,0.848l-0.233-0.939l1.993-1.056l1.051,0.005l-0.039,9.104l-1.19-0.006
		L183.372,148.332z"/>
	<path fill="#F04B4C" d="M193.313,148.263l-3.474-0.015l-0.36,2.337c0.21-0.026,0.406-0.054,0.742-0.052
		c0.701,0.003,1.4,0.16,1.959,0.498c0.713,0.41,1.298,1.196,1.293,2.345c-0.008,1.779-1.429,3.104-3.403,3.096
		c-0.994-0.004-1.834-0.288-2.267-0.57l0.312-0.938c0.377,0.227,1.118,0.509,1.944,0.513c1.163,0.005,2.16-0.746,2.166-1.965
		c-0.009-1.177-0.79-2.021-2.611-2.029c-0.518-0.002-0.925,0.053-1.261,0.093l0.607-4.367l4.356,0.019L193.313,148.263z"/>
	<path fill="#F04B4C" d="M198.407,151.409c0.003-0.701-0.009-1.275-0.049-1.835l1.079,0.004l0.051,1.093h0.042
		c0.382-0.642,1.015-1.242,2.135-1.237c0.925,0.004,1.623,0.568,1.913,1.367h0.028c0.212-0.377,0.479-0.67,0.76-0.879
		c0.408-0.307,0.856-0.473,1.501-0.47c0.896,0.004,2.225,0.598,2.215,2.951l-0.018,3.992l-1.204-0.006l0.017-3.838
		c0.005-1.303-0.468-2.089-1.462-2.093c-0.7-0.003-1.249,0.512-1.462,1.113c-0.057,0.168-0.1,0.393-0.101,0.616l-0.019,4.188
		l-1.204-0.005l0.018-4.062c0.005-1.078-0.469-1.864-1.407-1.869c-0.771-0.003-1.333,0.611-1.532,1.227
		c-0.07,0.181-0.1,0.391-0.101,0.602l-0.018,4.09l-1.204-0.005L198.407,151.409z"/>
	<path fill="#F04B4C" d="M211.472,147.726c0.012,0.42-0.298,0.754-0.788,0.752c-0.434-0.002-0.74-0.339-0.739-0.759
		c0.002-0.435,0.326-0.77,0.774-0.768C211.181,146.953,211.474,147.291,211.472,147.726z M210.062,156.404l0.029-6.779l1.232,0.005
		l-0.029,6.779L210.062,156.404z"/>
	<path fill="#F04B4C" d="M213.358,151.474c0.003-0.701-0.008-1.275-0.048-1.835l1.093,0.005l0.065,1.12h0.027
		c0.339-0.643,1.126-1.27,2.247-1.265c0.938,0.004,2.393,0.571,2.383,2.896l-0.018,4.048l-1.232-0.006l0.017-3.908
		c0.005-1.093-0.397-2.005-1.561-2.01c-0.812-0.003-1.445,0.568-1.658,1.254c-0.057,0.154-0.085,0.364-0.086,0.574l-0.018,4.076
		l-1.233-0.006L213.358,151.474z"/>
	<path fill="#F04B4C" d="M226.788,154.628c-0.003,0.7,0.008,1.316,0.048,1.849l-1.093-0.005l-0.064-1.106h-0.028
		c-0.324,0.544-1.042,1.256-2.247,1.251c-1.064-0.005-2.336-0.6-2.326-2.98l0.018-3.964l1.232,0.006l-0.017,3.754
		c-0.005,1.288,0.383,2.158,1.504,2.163c0.826,0.004,1.403-0.567,1.63-1.113c0.07-0.182,0.113-0.406,0.114-0.63l0.019-4.16
		l1.232,0.006L226.788,154.628z"/>
	<path fill="#F04B4C" d="M230.344,147.765l-0.009,1.947l1.765,0.008l-0.004,0.938l-1.765-0.008l-0.016,3.655
		c-0.004,0.841,0.232,1.318,0.919,1.321c0.321,0.002,0.56-0.039,0.714-0.081l0.053,0.925c-0.238,0.098-0.617,0.165-1.094,0.163
		c-0.574-0.003-1.035-0.187-1.328-0.523c-0.349-0.366-0.473-0.969-0.469-1.768l0.016-3.697l-1.05-0.005l0.004-0.938l1.05,0.005
		l0.008-1.625L230.344,147.765z"/>
	<path fill="#F04B4C" d="M239.521,153.085c-0.011,2.508-1.752,3.593-3.391,3.586c-1.835-0.008-3.244-1.358-3.234-3.502
		c0.01-2.269,1.5-3.594,3.377-3.586C238.22,149.592,239.53,151.013,239.521,153.085z M234.142,153.132
		c-0.006,1.485,0.844,2.609,2.048,2.614c1.177,0.005,2.064-1.098,2.071-2.625c0.005-1.148-0.563-2.606-2.021-2.613
		C234.783,150.502,234.147,151.844,234.142,153.132z"/>
	<path fill="#F04B4C" d="M240.895,155.276c0.362,0.24,1.006,0.494,1.622,0.497c0.896,0.004,1.318-0.442,1.321-1.003
		c0.003-0.588-0.347-0.912-1.255-1.252c-1.217-0.439-1.789-1.114-1.785-1.927c0.005-1.093,0.891-1.985,2.348-1.979
		c0.687,0.003,1.288,0.202,1.665,0.427l-0.312,0.896c-0.266-0.169-0.755-0.396-1.385-0.397c-0.729-0.004-1.137,0.415-1.139,0.919
		c-0.003,0.561,0.402,0.813,1.283,1.153c1.175,0.454,1.774,1.045,1.771,2.054c-0.006,1.19-0.934,2.026-2.544,2.02
		c-0.743-0.003-1.429-0.188-1.903-0.47L240.895,155.276z"/>
	<path fill="#F04B4C" d="M253.322,156.591l-0.094-0.854l-0.042-0.001c-0.381,0.531-1.111,1.004-2.078,1
		c-1.372-0.006-2.068-0.976-2.064-1.956c0.007-1.639,1.468-2.529,4.087-2.504l0.001-0.14c0.002-0.561-0.147-1.57-1.534-1.576
		c-0.631-0.003-1.29,0.191-1.768,0.497l-0.276-0.813c0.562-0.361,1.375-0.597,2.229-0.593c2.073,0.009,2.571,1.426,2.565,2.784
		l-0.011,2.535c-0.002,0.589,0.023,1.164,0.105,1.626L253.322,156.591z M253.155,153.13c-1.345-0.034-2.872,0.197-2.878,1.515
		c-0.004,0.798,0.527,1.179,1.157,1.182c0.883,0.004,1.445-0.554,1.644-1.127c0.043-0.126,0.071-0.267,0.072-0.393L253.155,153.13z"
		/>
	<path fill="#F04B4C" d="M259.304,152.05c0.004-0.868-0.021-1.569-0.046-2.213l1.106,0.005l0.051,1.162h0.028
		c0.508-0.823,1.308-1.311,2.415-1.306c1.639,0.007,2.865,1.399,2.856,3.458c-0.011,2.438-1.501,3.636-3.098,3.629
		c-0.896-0.004-1.679-0.399-2.082-1.073h-0.028l-0.016,3.684l-1.219-0.006L259.304,152.05z M260.515,153.862
		c-0.001,0.183,0.026,0.351,0.054,0.505c0.221,0.855,0.961,1.446,1.843,1.45c1.303,0.006,2.063-1.056,2.07-2.61
		c0.006-1.359-0.703-2.524-2.006-2.53c-0.841-0.003-1.628,0.596-1.869,1.519c-0.043,0.154-0.086,0.337-0.087,0.505L260.515,153.862z
		"/>
	<path fill="#F04B4C" d="M267.95,153.488c0.021,1.667,1.082,2.357,2.314,2.363c0.883,0.004,1.416-0.148,1.879-0.343l0.206,0.884
		c-0.435,0.194-1.178,0.415-2.257,0.41c-2.087-0.009-3.328-1.387-3.319-3.432c0.009-2.046,1.221-3.65,3.196-3.643
		c2.213,0.01,2.793,1.96,2.787,3.206c-0.001,0.252-0.029,0.448-0.044,0.574L267.95,153.488z M271.567,152.622
		c0.018-0.785-0.313-2.006-1.7-2.012c-1.246-0.005-1.798,1.142-1.899,1.996L271.567,152.622z M271.887,146.964l-1.718,1.995
		l-0.883-0.004l1.241-1.997L271.887,146.964z"/>
</g>
<g>
</g>
<g>
</g>
<g>
</g>
<g>
</g>
<g>
</g>
<g>
</g>
</svg>
