<?xml version="1.0" encoding="UTF-8" standalone="no"?>
<svg width="31px" height="37px" viewBox="0 0 31 37" version="1.1" xmlns="http://www.w3.org/2000/svg" xmlns:xlink="http://www.w3.org/1999/xlink" xmlns:sketch="http://www.bohemiancoding.com/sketch/ns">
    <!-- Generator: bin/sketchtool 1.4 (305) - http://www.bohemiancoding.com/sketch -->
    <title>Tres materiais</title>
    <desc>Created with bin/sketchtool.</desc>
    <defs></defs>
    <g id="Page-1" stroke="none" stroke-width="1" fill="none" fill-rule="evenodd" sketch:type="MSPage">
        <g id="Landing" sketch:type="MSArtboardGroup" transform="translate(-895.000000, -1375.000000)">
            <g id="Faixa:-Adote-um-mapa" sketch:type="MSLayerGroup" transform="translate(-25.500000, 995.000000)">
                <g id="Tres-materiais" transform="translate(921.049667, 380.399684)" sketch:type="MSShapeGroup">
                    <path d="M20.041473,27.4978338 L17.5791064,27.4978338 L17.5791064,23.3150578 L19.2206841,26.1027545 L20.041473,27.4978338" id="Fill-1" fill="#FFFFFF"></path>
                    <path d="M29.6375085,0.00820634887 L29.6375085,32.5447383 L23.0131538,32.5447383 L23.0131538,31.149659 L28.2477265,31.149659 L28.2477265,1.40328566 L14.6777322,1.40328566 L14.6777322,21.8699197 L13.2879503,21.8699197 L13.2879503,0.00820634887 L29.6375085,0.00820634887" id="Fill-2" fill="#6A908B"></path>
                    <path d="M17.5791064,24.6863387 L17.5791064,27.4978338 L19.2345819,27.4978338 L17.5791064,24.6863387 L17.5791064,24.6863387 Z M18.8102897,21.8699197 L2.65693605,21.8699197 L2.65693605,36.5584636 L23.0131538,36.5584636 L23.0131538,26.1454275 L18.8102897,21.8699197 L18.8102897,21.8699197 Z M18.9688883,24.0175212 L21.0192255,26.1027545 L18.9688883,26.1027545 L18.9688883,24.0175212 L18.9688883,24.0175212 Z M21.6233718,35.1633843 L4.04671798,35.1633843 L4.04671798,23.264999 L17.5791064,23.264999 L17.5791064,27.4978338 L21.6233718,27.4978338 L21.6233718,35.1633843 L21.6233718,35.1633843 Z M17.5791064,24.6863387 L17.5791064,27.4978338 L19.2345819,27.4978338 L17.5791064,24.6863387 L17.5791064,24.6863387 Z" id="Fill-3" fill="#6A908B"></path>
                    <path d="M5.54522991,1.45580629 C5.49863134,1.37620471 5.44549262,1.30152693 5.38663127,1.2325936 L5.66540517,1.7052793 C5.63270442,1.61993327 5.592646,1.53622851 5.54522991,1.45580629 L5.54522991,1.45580629 Z M0.228087741,4.40598871 C0.251795785,4.45850934 0.278773905,4.51102997 0.3090221,4.56190934 C0.337635258,4.61114743 0.368700972,4.65792362 0.40303676,4.70305854 L0.228087741,4.40598871 L0.228087741,4.40598871 Z" id="Fill-4" fill="#000000"></path>
                    <path d="M13.2879503,14.6540772 L5.66540517,1.7052793 L5.38663127,1.2325936 C5.02774052,0.804222189 4.4522073,0.563776167 3.76712656,0.563776167 C3.13681957,0.563776167 2.44683372,0.767293619 1.82470193,1.13657932 C0.468438263,1.94080151 -0.20282641,3.28664272 0.189664358,4.3140776 C0.20192714,4.34526173 0.214189921,4.37562522 0.228087741,4.40598871 L11.3299928,23.264999 L12.9445924,23.264999 L2.44683372,5.43260295 C2.97331582,5.37187597 3.52350596,5.18148868 4.02873257,4.88113631 C4.54785699,4.57339822 4.96724413,4.18523792 5.26400345,3.76671413 L14.6777322,19.7576055 L14.6777322,17.0150437 L13.2879503,14.6540772 L13.2879503,14.6540772 Z M3.32239634,3.67972683 C2.9160895,3.92017285 2.46645417,4.05886015 2.08712546,4.05886015 C1.80336469,4.05886015 1.58026381,3.97925857 1.50505208,3.85206016 C1.4625411,3.77984429 1.45600095,3.67316175 1.48543163,3.54596335 C1.56473095,3.20211733 1.90890636,2.70809513 2.53185567,2.33798879 C2.93734499,2.09754277 3.38779784,1.95885548 3.76712656,1.95885548 C3.88975437,1.95885548 3.99930189,1.9736269 4.09249903,1.99988722 C4.21512685,2.03599515 4.30587143,2.0934396 4.34838241,2.16565547 C4.50616354,2.43318244 4.17670347,3.17339511 3.32239634,3.67972683 L3.32239634,3.67972683 Z" id="Fill-5" fill="#6A908B"></path>
                </g>
            </g>
        </g>
    </g>
</svg>